<?xml version="1.0" encoding="UTF-8"?>
<svg width="306px" height="289px" viewBox="0 0 306 289" version="1.1" xmlns="http://www.w3.org/2000/svg" xmlns:xlink="http://www.w3.org/1999/xlink">
    <!-- Generator: Sketch 41.2 (35397) - http://www.bohemiancoding.com/sketch -->
    <title>BIRD</title>
    <desc>Created with Sketch.</desc>
    <defs>
        <path d="M130.851852,179.190556 C184.628022,179.190556 254.703704,173.21456 254.703704,111.586847 C254.703704,49.9591329 211.109504,0 157.333333,0 C103.557163,0 66.4814815,40.9996051 66.4814815,102.627319 C66.4814815,164.255032 77.0756812,179.190556 130.851852,179.190556 Z" id="path-1"></path>
        <filter x="-50%" y="-50%" width="200%" height="200%" filterUnits="objectBoundingBox" id="filter-2">
            <feGaussianBlur stdDeviation="10" in="SourceAlpha" result="shadowBlurInner1"></feGaussianBlur>
            <feOffset dx="0" dy="5" in="shadowBlurInner1" result="shadowOffsetInner1"></feOffset>
            <feComposite in="shadowOffsetInner1" in2="SourceAlpha" operator="arithmetic" k2="-1" k3="1" result="shadowInnerInner1"></feComposite>
            <feColorMatrix values="0 0 0 0 0.584313725   0 0 0 0 0.788235294   0 0 0 0 0.878431373  0 0 0 1 0" type="matrix" in="shadowInnerInner1"></feColorMatrix>
        </filter>
        <path d="M202.016307,33.6835259 C225.623489,21.8672491 243.296296,46.4266442 248.185185,65.4491245 C253.074074,84.4716048 262.851852,102.627319 262.851852,102.627319 C262.851852,102.627319 305.222222,193.851602 300.333333,197.109612 C298.548079,198.299326 279.306146,185.405026 253.074074,176.747049 C226.842002,168.089071 210.252562,169.431974 203.37037,166.973019 C192.514709,163.094373 194.98704,142.943701 200.111111,127.062395 C205.235182,111.181088 215.667403,94.7860102 213.148148,92.0387858 C195.222222,72.4907251 175.402984,47.0044885 202.016307,33.6835259 Z" id="path-3"></path>
        <filter x="-50%" y="-50%" width="200%" height="200%" filterUnits="objectBoundingBox" id="filter-4">
            <feGaussianBlur stdDeviation="11" in="SourceAlpha" result="shadowBlurInner1"></feGaussianBlur>
            <feOffset dx="0" dy="2" in="shadowBlurInner1" result="shadowOffsetInner1"></feOffset>
            <feComposite in="shadowOffsetInner1" in2="SourceAlpha" operator="arithmetic" k2="-1" k3="1" result="shadowInnerInner1"></feComposite>
            <feColorMatrix values="0 0 0 0 0   0 0 0 0 0   0 0 0 0 0  0 0 0 0.5 0" type="matrix" in="shadowInnerInner1"></feColorMatrix>
        </filter>
        <path d="M228.956247,56.6891236 C245.252543,51.8021084 271.314665,93.1440537 286.481481,122.175379 C301.648298,151.206705 308.481481,196.29511 303.592593,199.55312 C298.703704,202.81113 268.389233,124.483589 253.400691,102.301265 C238.412149,80.1189414 212.65995,61.5761388 228.956247,56.6891236 Z" id="path-5"></path>
        <filter x="-50%" y="-50%" width="200%" height="200%" filterUnits="objectBoundingBox" id="filter-6">
            <feGaussianBlur stdDeviation="4" in="SourceAlpha" result="shadowBlurInner1"></feGaussianBlur>
            <feOffset dx="0" dy="1" in="shadowBlurInner1" result="shadowOffsetInner1"></feOffset>
            <feComposite in="shadowOffsetInner1" in2="SourceAlpha" operator="arithmetic" k2="-1" k3="1" result="shadowInnerInner1"></feComposite>
            <feColorMatrix values="0 0 0 0 0.874509804   0 0 0 0 0.0392156863   0 0 0 0 0.0941176471  0 0 0 1 0" type="matrix" in="shadowInnerInner1"></feColorMatrix>
        </filter>
        <linearGradient x1="50%" y1="0%" x2="50%" y2="100%" id="linearGradient-7">
            <stop stop-color="#DE7226" offset="0%"></stop>
            <stop stop-color="#BA3E11" offset="100%"></stop>
        </linearGradient>
        <path d="M182.592593,92.0387858 C188.217715,92.0387858 192.777778,88.2098012 192.777778,83.4865093 C192.777778,78.7632174 188.217715,74.9342327 182.592593,74.9342327 C176.96747,74.9342327 169.962963,75.097956 169.962963,79.8212479 C169.962963,84.5445398 176.96747,92.0387858 182.592593,92.0387858 Z" id="path-8"></path>
        <filter x="-50%" y="-50%" width="200%" height="200%" filterUnits="objectBoundingBox" id="filter-9">
            <feGaussianBlur stdDeviation="1.5" in="SourceAlpha" result="shadowBlurInner1"></feGaussianBlur>
            <feOffset dx="0" dy="5" in="shadowBlurInner1" result="shadowOffsetInner1"></feOffset>
            <feComposite in="shadowOffsetInner1" in2="SourceAlpha" operator="arithmetic" k2="-1" k3="1" result="shadowInnerInner1"></feComposite>
            <feColorMatrix values="0 0 0 0 0   0 0 0 0 0   0 0 0 0 0  0 0 0 0.5 0" type="matrix" in="shadowInnerInner1"></feColorMatrix>
        </filter>
    </defs>
    <g id="Page-1" stroke="none" stroke-width="1" fill="none" fill-rule="evenodd">
        <g id="Desktop-HD-Copy-6" transform="translate(-700.000000, -2179.000000)">
            <g id="BIRD" transform="translate(700.000000, 2179.000000)">
                <path d="M159.37037,288.333895 C183.755313,288.333895 208.255939,272.147519 214.777778,233.762226 C221.299616,195.376933 198.785786,184.98264 203.37037,171.860034 C220.307098,123.381488 254.703704,134.897241 254.703704,111.586847 C254.703704,49.9591329 211.109504,0 157.333333,0 C139.43496,0 117.38796,6.65532477 94.1851852,26.0640809 C70.9824108,45.4728371 0.481481481,137.650927 0.481481481,177.561551 C0.481481481,239.189265 105.5942,288.333895 159.37037,288.333895 Z" id="Oval-7" fill="#5173B9"></path>
                <g id="Oval-7">
                    <use fill="#CAE8F7" fill-rule="evenodd" xlink:href="#path-1"></use>
                    <use fill="black" fill-opacity="1" filter="url(#filter-2)" xlink:href="#path-1"></use>
                </g>
                <g id="Rectangle">
                    <use fill="#F23661" fill-rule="evenodd" xlink:href="#path-3"></use>
                    <use fill="black" fill-opacity="1" filter="url(#filter-4)" xlink:href="#path-3"></use>
                </g>
                <g id="Rectangle">
                    <use fill="#FB7E8F" fill-rule="evenodd" xlink:href="#path-5"></use>
                    <use fill="black" fill-opacity="1" filter="url(#filter-6)" xlink:href="#path-5"></use>
                </g>
                <path d="M232.688,66.5984059 C243.280592,62.5258933 268.606178,97.8040239 282.233332,118.691843 C286.863841,125.789526 291.485765,130.953412 297.776366,146.755543 C304.066967,162.557674 310.154455,194.729843 309.342741,194.800832 C308.531027,194.87182 300.749094,162.030225 293.048112,148.804281 C285.34713,135.578336 289.020082,140.162801 275.815456,119.253119 C267.566716,106.191141 256.645216,94.1540614 250.556197,87.4875202 C244.467177,80.820979 228.352385,68.2653109 232.688,66.5984059 Z" id="Rectangle" fill-opacity="0.680000007" fill="#FFFFFF" opacity="0.408740942" transform="translate(270.686485, 130.537687) rotate(5.000000) translate(-270.686485, -130.537687) "></path>
                <g id="Oval-17">
                    <use fill="url(#linearGradient-7)" fill-rule="evenodd" xlink:href="#path-8"></use>
                    <use fill="black" fill-opacity="1" filter="url(#filter-9)" xlink:href="#path-8"></use>
                </g>
                <ellipse id="Oval-9" fill="#170808" cx="182.592593" cy="81.0430017" rx="4.48148148" ry="4.47976391"></ellipse>
                <path d="M165.888889,80.1645086 C165.888889,80.1645086 166.703704,68.7614732 179.740741,71.2049808 C192.777778,73.6484883 196.851852,88.3095339 196.851852,88.3095339 C196.851852,88.3095339 188.703704,77.721001 179.740741,76.0919959 C170.777778,74.4629909 165.888889,80.1645086 165.888889,80.1645086 Z" id="Path-16" fill="#170808"></path>
                <path d="M173.653199,75.7487352 C173.653199,75.7487352 166.319865,83.079258 176.097643,87.9662732 C185.875421,92.8532884 192.777778,83.8937605 192.777778,83.8937605 L194.407407,85.5227656 C194.407407,85.5227656 187.505051,96.925801 176.097643,92.0387858 C164.690236,87.1517707 167.949495,79.0067454 167.949495,79.0067454 C167.949495,79.0067454 169.305547,77.1849382 170.393939,76.5632378 C171.482332,75.9415374 173.653199,75.7487352 173.653199,75.7487352 Z" id="Path-17" fill="#170808"></path>
                <path d="M173.653199,75.7487352 C173.653199,75.7487352 166.319865,83.8937605 176.097643,88.7807757 C185.875421,93.6677909 192.393939,84.7082631 192.393939,84.7082631 L192.777778,85.5227656 C192.777778,85.5227656 187.505051,94.4822934 176.097643,89.5952782 C164.690236,84.7082631 173.653199,75.7487352 173.653199,75.7487352 Z" id="Path-17" fill="#FEFEFE" opacity="0.304177989"></path>
                <path d="M174.851852,72.4907251 C177.776916,72.4907251 180.555556,72.9405625 180.555556,72.4907251 C180.555556,72.0408878 176.962101,71.6762226 174.037037,71.6762226 C171.111973,71.6762226 168.333333,76.1134004 168.333333,76.5632378 C168.333333,77.0130751 171.926788,72.4907251 174.851852,72.4907251 Z" id="Oval-8" fill="#EFE8E8" opacity="0.457710598"></path>
            </g>
        </g>
    </g>
</svg>