<?xml version="1.0" encoding="UTF-8"?>
<svg width="321px" height="178px" viewBox="0 0 321 178" version="1.1" xmlns="http://www.w3.org/2000/svg" xmlns:xlink="http://www.w3.org/1999/xlink">
    <!-- Generator: Sketch 41.2 (35397) - http://www.bohemiancoding.com/sketch -->
    <title>clock</title>
    <desc>Created with Sketch.</desc>
    <defs>
        <radialGradient cx="50%" cy="50%" fx="50%" fy="50%" r="60.2295256%" id="radialGradient-1">
            <stop stop-color="#E9924D" offset="0%"></stop>
            <stop stop-color="#350000" offset="100%"></stop>
        </radialGradient>
        <radialGradient cx="50%" cy="45.306168%" fx="50%" fy="45.306168%" r="63.1102435%" id="radialGradient-2">
            <stop stop-color="#FFF9F3" offset="0%"></stop>
            <stop stop-color="#FFF9F3" offset="42.8590704%"></stop>
            <stop stop-color="#FFF0E3" offset="100%"></stop>
        </radialGradient>
        <path d="M55.3937198,76.2695652 C83.4014935,76.2695652 104.545894,57.5913043 104.545894,38.9130435 C104.545894,20.2347826 83.4014935,4.66956522 55.3937198,4.66956522 C27.3859461,4.66956522 6.24154589,21.7913043 6.24154589,38.9130435 C6.24154589,56.0347826 27.3859461,76.2695652 55.3937198,76.2695652 Z" id="path-3"></path>
        <mask id="mask-4" maskContentUnits="userSpaceOnUse" maskUnits="objectBoundingBox" x="-1" y="-1" width="100.304348" height="73.6">
            <rect x="5.24154589" y="3.66956522" width="100.304348" height="73.6" fill="white"></rect>
            <use xlink:href="#path-3" fill="black"></use>
        </mask>
    </defs>
    <g id="Page-1" stroke="none" stroke-width="1" fill="none" fill-rule="evenodd">
        <g id="Desktop-HD-Copy-8" transform="translate(-163.000000, -672.000000)">
            <g id="clock" transform="translate(164.000000, 672.000000)">
                <path d="M188.806763,102.73456 C190.207152,102.73456 191.927536,102.897325 191.927536,101.178038 C191.927536,99.4587517 191.182394,98.0649946 189.782005,98.0649946 C188.381616,98.0649946 187.246377,97.9022299 187.246377,99.6215164 C187.246377,101.340803 187.406375,102.73456 188.806763,102.73456 Z" id="Oval-19" stroke="#3C0503"></path>
                <path d="M184.125604,104.291082 C185.525993,104.291082 187.246377,104.453846 187.246377,102.73456 C187.246377,101.015273 186.501234,99.6215164 185.100845,99.6215164 C183.700457,99.6215164 182.565217,99.4587517 182.565217,101.178038 C182.565217,102.897325 182.725215,104.291082 184.125604,104.291082 Z" id="Oval-19" stroke="#3C0503"></path>
                <path d="M179.444444,107.404125 C180.844833,107.404125 182.565217,107.56689 182.565217,105.847603 C182.565217,104.128317 181.820075,102.73456 180.419686,102.73456 C179.019297,102.73456 177.884058,102.571795 177.884058,104.291082 C177.884058,106.010368 178.044056,107.404125 179.444444,107.404125 Z" id="Oval-19" stroke="#3C0503"></path>
                <path d="M176.323671,112.07369 C177.72406,112.07369 179.444444,112.236455 179.444444,110.517169 C179.444444,108.797882 178.699302,107.404125 177.298913,107.404125 C175.898524,107.404125 174.763285,107.24136 174.763285,108.960647 C174.763285,110.679933 174.923283,112.07369 176.323671,112.07369 Z" id="Oval-19" stroke="#3C0503"></path>
                <path d="M174.763285,116.743256 C176.163674,116.743256 177.884058,116.90602 177.884058,115.186734 C177.884058,113.467447 177.138915,112.07369 175.738527,112.07369 C174.338138,112.07369 173.202899,111.910926 173.202899,113.630212 C173.202899,115.349498 173.362896,116.743256 174.763285,116.743256 Z" id="Oval-19" stroke="#3C0503"></path>
                <path d="M171.642512,121.412821 C173.042901,121.412821 174.763285,121.575585 174.763285,119.856299 C174.763285,118.137013 174.018142,116.743256 172.617754,116.743256 C171.217365,116.743256 170.082126,116.580491 170.082126,118.299777 C170.082126,120.019064 170.242123,121.412821 171.642512,121.412821 Z" id="Oval-19" stroke="#3C0503"></path>
                <path d="M170.082126,126.082386 C171.482514,126.082386 173.202899,126.245151 173.202899,124.525864 C173.202899,122.806578 172.457756,121.412821 171.057367,121.412821 C169.656978,121.412821 168.521739,121.250056 168.521739,122.969342 C168.521739,124.688629 168.681737,126.082386 170.082126,126.082386 Z" id="Oval-19" stroke="#3C0503"></path>
                <path d="M166.961353,130.751951 C168.361741,130.751951 170.082126,130.914716 170.082126,129.195429 C170.082126,127.476143 169.336983,126.082386 167.936594,126.082386 C166.536206,126.082386 165.400966,125.919621 165.400966,127.638908 C165.400966,129.358194 165.560964,130.751951 166.961353,130.751951 Z" id="Oval-19" stroke="#3C0503"></path>
                <path d="M165.400966,135.421516 C166.801355,135.421516 168.521739,135.584281 168.521739,133.864995 C168.521739,132.145708 167.776596,130.751951 166.376208,130.751951 C164.975819,130.751951 163.84058,130.589186 163.84058,132.308473 C163.84058,134.027759 164.000577,135.421516 165.400966,135.421516 Z" id="Oval-19" stroke="#3C0503"></path>
                <path d="M162.280193,140.091082 C163.680582,140.091082 165.400966,140.253846 165.400966,138.53456 C165.400966,136.815273 164.655823,135.421516 163.255435,135.421516 C161.855046,135.421516 160.719807,135.258752 160.719807,136.978038 C160.719807,138.697325 160.879805,140.091082 162.280193,140.091082 Z" id="Oval-19" stroke="#3C0503"></path>
                <path d="M159.15942,144.760647 C160.559809,144.760647 162.280193,144.923412 162.280193,143.204125 C162.280193,141.484839 161.535051,140.091082 160.134662,140.091082 C158.734273,140.091082 157.599034,139.928317 157.599034,141.647603 C157.599034,143.36689 157.759032,144.760647 159.15942,144.760647 Z" id="Oval-19" stroke="#3C0503"></path>
                <path d="M154.478261,147.87369 C155.87865,147.87369 157.599034,148.036455 157.599034,146.317169 C157.599034,144.597882 156.853891,143.204125 155.453502,143.204125 C154.053114,143.204125 152.917874,143.04136 152.917874,144.760647 C152.917874,146.479933 153.077872,147.87369 154.478261,147.87369 Z" id="Oval-19" stroke="#3C0503"></path>
                <path d="M149.797101,147.87369 C151.19749,147.87369 152.917874,148.036455 152.917874,146.317169 C152.917874,144.597882 152.172732,143.204125 150.772343,143.204125 C149.371954,143.204125 148.236715,143.04136 148.236715,144.760647 C148.236715,146.479933 148.396713,147.87369 149.797101,147.87369 Z" id="Oval-19" stroke="#3C0503"></path>
                <path d="M145.115942,147.87369 C146.516331,147.87369 148.236715,148.036455 148.236715,146.317169 C148.236715,144.597882 147.491572,143.204125 146.091184,143.204125 C144.690795,143.204125 143.555556,143.04136 143.555556,144.760647 C143.555556,146.479933 143.715553,147.87369 145.115942,147.87369 Z" id="Oval-19" stroke="#3C0503"></path>
                <path d="M140.434783,149.430212 C141.835171,149.430212 143.555556,149.592977 143.555556,147.87369 C143.555556,146.154404 142.810413,144.760647 141.410024,144.760647 C140.009635,144.760647 138.874396,144.597882 138.874396,146.317169 C138.874396,148.036455 139.034394,149.430212 140.434783,149.430212 Z" id="Oval-19" stroke="#3C0503"></path>
                <path d="M135.753623,152.543256 C137.154012,152.543256 138.874396,152.70602 138.874396,150.986734 C138.874396,149.267447 138.129253,147.87369 136.728865,147.87369 C135.328476,147.87369 134.193237,147.710926 134.193237,149.430212 C134.193237,151.149498 134.353235,152.543256 135.753623,152.543256 Z" id="Oval-19" stroke="#3C0503"></path>
                <path d="M132.63285,157.212821 C134.033239,157.212821 135.753623,157.375585 135.753623,155.656299 C135.753623,153.937013 135.00848,152.543256 133.608092,152.543256 C132.207703,152.543256 131.072464,152.380491 131.072464,154.099777 C131.072464,155.819064 131.232462,157.212821 132.63285,157.212821 Z" id="Oval-19" stroke="#3C0503"></path>
                <path d="M131.072464,161.882386 C132.472852,161.882386 134.193237,162.045151 134.193237,160.325864 C134.193237,158.606578 133.448094,157.212821 132.047705,157.212821 C130.647317,157.212821 129.512077,157.050056 129.512077,158.769342 C129.512077,160.488629 129.672075,161.882386 131.072464,161.882386 Z" id="Oval-19" stroke="#3C0503"></path>
                <path d="M127.951691,166.551951 C129.35208,166.551951 131.072464,166.714716 131.072464,164.995429 C131.072464,163.276143 130.327321,161.882386 128.926932,161.882386 C127.526544,161.882386 126.391304,161.719621 126.391304,163.438908 C126.391304,165.158194 126.551302,166.551951 127.951691,166.551951 Z" id="Oval-19" stroke="#3C0503"></path>
                <path d="M124.830918,171.221516 C126.231307,171.221516 127.951691,171.384281 127.951691,169.664995 C127.951691,167.945708 127.206548,166.551951 125.806159,166.551951 C124.405771,166.551951 123.270531,166.389186 123.270531,168.108473 C123.270531,169.827759 123.430529,171.221516 124.830918,171.221516 Z" id="Oval-19" stroke="#3C0503"></path>
                <path d="M123.270531,175.891082 C124.67092,175.891082 126.391304,176.053846 126.391304,174.33456 C126.391304,172.615273 125.646162,171.221516 124.245773,171.221516 C122.845384,171.221516 121.710145,171.058752 121.710145,172.778038 C121.710145,174.497325 121.870143,175.891082 123.270531,175.891082 Z" id="Oval-19" stroke="#3C0503"></path>
                <path d="M118.589372,177.447603 C119.989761,177.447603 121.710145,177.610368 121.710145,175.891082 C121.710145,174.171795 120.965002,172.778038 119.564614,172.778038 C118.164225,172.778038 117.028986,172.615273 117.028986,174.33456 C117.028986,176.053846 117.188983,177.447603 118.589372,177.447603 Z" id="Oval-19" stroke="#3C0503"></path>
                <path d="M113.908213,177.447603 C115.308601,177.447603 117.028986,177.610368 117.028986,175.891082 C117.028986,174.171795 116.283843,172.778038 114.883454,172.778038 C113.483065,172.778038 112.347826,172.615273 112.347826,174.33456 C112.347826,176.053846 112.507824,177.447603 113.908213,177.447603 Z" id="Oval-19" stroke="#3C0503"></path>
                <path d="M109.227053,175.891082 C110.627442,175.891082 112.347826,176.053846 112.347826,174.33456 C112.347826,172.615273 111.602683,171.221516 110.202295,171.221516 C108.801906,171.221516 107.666667,171.058752 107.666667,172.778038 C107.666667,174.497325 107.826664,175.891082 109.227053,175.891082 Z" id="Oval-19" stroke="#3C0503"></path>
                <path d="M104.545894,174.33456 C105.946282,174.33456 107.666667,174.497325 107.666667,172.778038 C107.666667,171.058752 106.921524,169.664995 105.521135,169.664995 C104.120747,169.664995 102.985507,169.50223 102.985507,171.221516 C102.985507,172.940803 103.145505,174.33456 104.545894,174.33456 Z" id="Oval-19" stroke="#3C0503"></path>
                <path d="M99.8647343,169.664995 C101.265123,169.664995 102.985507,169.827759 102.985507,168.108473 C102.985507,166.389186 102.240365,164.995429 100.839976,164.995429 C99.4395872,164.995429 98.3043478,164.832665 98.3043478,166.551951 C98.3043478,168.271238 98.4643456,169.664995 99.8647343,169.664995 Z" id="Oval-19" stroke="#3C0503"></path>
                <path d="M95.1835749,168.108473 C96.5839636,168.108473 98.3043478,168.271238 98.3043478,166.551951 C98.3043478,164.832665 97.5592051,163.438908 96.1588164,163.438908 C94.7584277,163.438908 93.6231884,163.276143 93.6231884,164.995429 C93.6231884,166.714716 93.7831862,168.108473 95.1835749,168.108473 Z" id="Oval-19" stroke="#3C0503"></path>
                <path d="M90.5024155,164.995429 C91.9028041,164.995429 93.6231884,165.158194 93.6231884,163.438908 C93.6231884,161.719621 92.8780457,160.325864 91.477657,160.325864 C90.0772683,160.325864 88.942029,160.1631 88.942029,161.882386 C88.942029,163.601672 89.1020268,164.995429 90.5024155,164.995429 Z" id="Oval-19" stroke="#3C0503"></path>
                <path d="M85.821256,163.438908 C87.2216447,163.438908 88.942029,163.601672 88.942029,161.882386 C88.942029,160.1631 88.1968863,158.769342 86.7964976,158.769342 C85.3961089,158.769342 84.2608696,158.606578 84.2608696,160.325864 C84.2608696,162.045151 84.4208674,163.438908 85.821256,163.438908 Z" id="Oval-19" stroke="#3C0503"></path>
                <path d="M84.2608696,158.769342 C85.6612583,158.769342 87.3816425,158.932107 87.3816425,157.212821 C87.3816425,155.493534 86.6364998,154.099777 85.2361111,154.099777 C83.8357224,154.099777 82.7004831,153.937013 82.7004831,155.656299 C82.7004831,157.375585 82.8604809,158.769342 84.2608696,158.769342 Z" id="Oval-19" stroke="#3C0503"></path>
                <path d="M79.5797101,147.87369 C80.9800988,147.87369 82.7004831,148.036455 82.7004831,146.317169 C82.7004831,144.597882 81.9553404,143.204125 80.5549517,143.204125 C79.154563,143.204125 78.0193237,143.04136 78.0193237,144.760647 C78.0193237,146.479933 78.1793215,147.87369 79.5797101,147.87369 Z" id="Oval-19" stroke="#3C0503"></path>
                <path d="M82.7004831,143.204125 C84.1008718,143.204125 85.821256,143.36689 85.821256,141.647603 C85.821256,139.928317 85.0761133,138.53456 83.6757246,138.53456 C82.275336,138.53456 81.1400966,138.371795 81.1400966,140.091082 C81.1400966,141.810368 81.3000944,143.204125 82.7004831,143.204125 Z" id="Oval-19" stroke="#3C0503"></path>
                <path d="M87.3816425,140.091082 C88.7820312,140.091082 90.5024155,140.253846 90.5024155,138.53456 C90.5024155,136.815273 89.7572727,135.421516 88.3568841,135.421516 C86.9564954,135.421516 85.821256,135.258752 85.821256,136.978038 C85.821256,138.697325 85.9812538,140.091082 87.3816425,140.091082 Z" id="Oval-19" stroke="#3C0503"></path>
                <path d="M92.0628019,136.978038 C93.4631906,136.978038 95.1835749,137.140803 95.1835749,135.421516 C95.1835749,133.70223 94.4384322,132.308473 93.0380435,132.308473 C91.6376548,132.308473 90.5024155,132.145708 90.5024155,133.864995 C90.5024155,135.584281 90.6624132,136.978038 92.0628019,136.978038 Z" id="Oval-19" stroke="#3C0503"></path>
                <path d="M95.1835749,132.308473 C96.5839636,132.308473 98.3043478,132.471238 98.3043478,130.751951 C98.3043478,129.032665 97.5592051,127.638908 96.1588164,127.638908 C94.7584277,127.638908 93.6231884,127.476143 93.6231884,129.195429 C93.6231884,130.914716 93.7831862,132.308473 95.1835749,132.308473 Z" id="Oval-19" stroke="#3C0503"></path>
                <path d="M98.3043478,127.638908 C99.7047365,127.638908 101.425121,127.801672 101.425121,126.082386 C101.425121,124.3631 100.679978,122.969342 99.2795894,122.969342 C97.8792007,122.969342 96.7439614,122.806578 96.7439614,124.525864 C96.7439614,126.245151 96.9039591,127.638908 98.3043478,127.638908 Z" id="Oval-19" stroke="#3C0503"></path>
                <path d="M102.985507,124.525864 C104.385896,124.525864 106.10628,124.688629 106.10628,122.969342 C106.10628,121.250056 105.361137,119.856299 103.960749,119.856299 C102.56036,119.856299 101.425121,119.693534 101.425121,121.412821 C101.425121,123.132107 101.585119,124.525864 102.985507,124.525864 Z" id="Oval-19" stroke="#3C0503"></path>
                <path d="M109.227053,116.743256 C110.627442,116.743256 112.347826,116.90602 112.347826,115.186734 C112.347826,113.467447 111.602683,112.07369 110.202295,112.07369 C108.801906,112.07369 107.666667,111.910926 107.666667,113.630212 C107.666667,115.349498 107.826664,116.743256 109.227053,116.743256 Z" id="Oval-19" stroke="#3C0503"></path>
                <path d="M113.908213,113.630212 C115.308601,113.630212 117.028986,113.792977 117.028986,112.07369 C117.028986,110.354404 116.283843,108.960647 114.883454,108.960647 C113.483065,108.960647 112.347826,108.797882 112.347826,110.517169 C112.347826,112.236455 112.507824,113.630212 113.908213,113.630212 Z" id="Oval-19" stroke="#3C0503"></path>
                <path d="M118.589372,110.517169 C119.989761,110.517169 121.710145,110.679933 121.710145,108.960647 C121.710145,107.24136 120.965002,105.847603 119.564614,105.847603 C118.164225,105.847603 117.028986,105.684839 117.028986,107.404125 C117.028986,109.123412 117.188983,110.517169 118.589372,110.517169 Z" id="Oval-19" stroke="#3C0503"></path>
                <path d="M123.270531,107.404125 C124.67092,107.404125 126.391304,107.56689 126.391304,105.847603 C126.391304,104.128317 125.646162,102.73456 124.245773,102.73456 C122.845384,102.73456 121.710145,102.571795 121.710145,104.291082 C121.710145,106.010368 121.870143,107.404125 123.270531,107.404125 Z" id="Oval-19" stroke="#3C0503"></path>
                <path d="M127.951691,104.291082 C129.35208,104.291082 131.072464,104.453846 131.072464,102.73456 C131.072464,101.015273 130.327321,99.6215164 128.926932,99.6215164 C127.526544,99.6215164 126.391304,99.4587517 126.391304,101.178038 C126.391304,102.897325 126.551302,104.291082 127.951691,104.291082 Z" id="Oval-19" stroke="#3C0503"></path>
                <path d="M131.072464,99.6215164 C132.472852,99.6215164 134.193237,99.7842811 134.193237,98.0649946 C134.193237,96.3457082 133.448094,94.9519512 132.047705,94.9519512 C130.647317,94.9519512 129.512077,94.7891865 129.512077,96.5084729 C129.512077,98.2277593 129.672075,99.6215164 131.072464,99.6215164 Z" id="Oval-19" stroke="#3C0503"></path>
                <path d="M134.193237,94.9519512 C135.593625,94.9519512 137.31401,95.1147159 137.31401,93.3954294 C137.31401,91.676143 136.568867,90.2823859 135.168478,90.2823859 C133.76809,90.2823859 132.63285,90.1196212 132.63285,91.8389077 C132.63285,93.5581941 132.792848,94.9519512 134.193237,94.9519512 Z" id="Oval-19" stroke="#3C0503"></path>
                <path d="M137.31401,90.2823859 C138.714398,90.2823859 140.434783,90.4451506 140.434783,88.7258642 C140.434783,87.0065778 139.68964,85.6128207 138.289251,85.6128207 C136.888863,85.6128207 135.753623,85.450056 135.753623,87.1693425 C135.753623,88.8886289 135.913621,90.2823859 137.31401,90.2823859 Z" id="Oval-19" stroke="#3C0503"></path>
                <path d="M137.31401,85.6128207 C138.714398,85.6128207 140.434783,85.7755854 140.434783,84.056299 C140.434783,82.3370126 139.68964,80.9432555 138.289251,80.9432555 C136.888863,80.9432555 135.753623,80.7804908 135.753623,82.4997773 C135.753623,84.2190637 135.913621,85.6128207 137.31401,85.6128207 Z" id="Oval-19" stroke="#3C0503"></path>
                <path d="M135.753623,80.9432555 C137.154012,80.9432555 138.874396,81.1060202 138.874396,79.3867338 C138.874396,77.6674473 138.129253,76.2736903 136.728865,76.2736903 C135.328476,76.2736903 134.193237,76.1109256 134.193237,77.830212 C134.193237,79.5494985 134.353235,80.9432555 135.753623,80.9432555 Z" id="Oval-19" stroke="#3C0503"></path>
                <path d="M134.193237,76.2736903 C135.593625,76.2736903 137.31401,76.436455 137.31401,74.7171686 C137.31401,72.9978821 136.568867,71.6041251 135.168478,71.6041251 C133.76809,71.6041251 132.63285,71.4413604 132.63285,73.1606468 C132.63285,74.8799333 132.792848,76.2736903 134.193237,76.2736903 Z" id="Oval-19" stroke="#3C0503"></path>
                <path d="M131.072464,71.6041251 C132.472852,71.6041251 134.193237,71.7668898 134.193237,70.0476033 C134.193237,68.3283169 133.448094,66.9345599 132.047705,66.9345599 C130.647317,66.9345599 129.512077,66.7717952 129.512077,68.4910816 C129.512077,70.210368 129.672075,71.6041251 131.072464,71.6041251 Z" id="Oval-19" stroke="#3C0503"></path>
                <path d="M126.391304,66.9345599 C127.791693,66.9345599 129.512077,67.0973246 129.512077,65.3780381 C129.512077,63.6587517 128.766935,62.2649946 127.366546,62.2649946 C125.966157,62.2649946 124.830918,62.1022299 124.830918,63.8215164 C124.830918,65.5408028 124.990916,66.9345599 126.391304,66.9345599 Z" id="Oval-19" stroke="#3C0503"></path>
                <path d="M121.710145,63.8215164 C123.110534,63.8215164 124.830918,63.9842811 124.830918,62.2649946 C124.830918,60.5457082 124.085775,59.1519512 122.685386,59.1519512 C121.284998,59.1519512 120.149758,58.9891865 120.149758,60.7084729 C120.149758,62.4277593 120.309756,63.8215164 121.710145,63.8215164 Z" id="Oval-19" stroke="#3C0503"></path>
                <path d="M117.028986,60.7084729 C118.429374,60.7084729 120.149758,60.8712376 120.149758,59.1519512 C120.149758,57.4326647 119.404616,56.0389077 118.004227,56.0389077 C116.603838,56.0389077 115.468599,55.876143 115.468599,57.5954294 C115.468599,59.3147159 115.628597,60.7084729 117.028986,60.7084729 Z" id="Oval-19" stroke="#3C0503"></path>
                <path d="M112.347826,60.7084729 C113.748215,60.7084729 115.468599,60.8712376 115.468599,59.1519512 C115.468599,57.4326647 114.723456,56.0389077 113.323068,56.0389077 C111.922679,56.0389077 110.78744,55.876143 110.78744,57.5954294 C110.78744,59.3147159 110.947437,60.7084729 112.347826,60.7084729 Z" id="Oval-19" stroke="#3C0503"></path>
                <path d="M107.666667,59.1519512 C109.067055,59.1519512 110.78744,59.3147159 110.78744,57.5954294 C110.78744,55.876143 110.042297,54.4823859 108.641908,54.4823859 C107.24152,54.4823859 106.10628,54.3196212 106.10628,56.0389077 C106.10628,57.7581941 106.266278,59.1519512 107.666667,59.1519512 Z" id="Oval-19" stroke="#3C0503"></path>
                <path d="M102.985507,59.1519512 C104.385896,59.1519512 106.10628,59.3147159 106.10628,57.5954294 C106.10628,55.876143 105.361137,54.4823859 103.960749,54.4823859 C102.56036,54.4823859 101.425121,54.3196212 101.425121,56.0389077 C101.425121,57.7581941 101.585119,59.1519512 102.985507,59.1519512 Z" id="Oval-19" stroke="#3C0503"></path>
                <path d="M98.3043478,57.5954294 C99.7047365,57.5954294 101.425121,57.7581941 101.425121,56.0389077 C101.425121,54.3196212 100.679978,52.9258642 99.2795894,52.9258642 C97.8792007,52.9258642 96.7439614,52.7630995 96.7439614,54.4823859 C96.7439614,56.2016724 96.9039591,57.5954294 98.3043478,57.5954294 Z" id="Oval-19" stroke="#3C0503"></path>
                <path d="M93.6231884,59.1519512 C95.0235771,59.1519512 96.7439614,59.3147159 96.7439614,57.5954294 C96.7439614,55.876143 95.9988186,54.4823859 94.59843,54.4823859 C93.1980413,54.4823859 92.0628019,54.3196212 92.0628019,56.0389077 C92.0628019,57.7581941 92.2227997,59.1519512 93.6231884,59.1519512 Z" id="Oval-19" stroke="#3C0503"></path>
                <path d="M88.942029,60.7084729 C90.3424177,60.7084729 92.0628019,60.8712376 92.0628019,59.1519512 C92.0628019,57.4326647 91.3176592,56.0389077 89.9172705,56.0389077 C88.5168818,56.0389077 87.3816425,55.876143 87.3816425,57.5954294 C87.3816425,59.3147159 87.5416403,60.7084729 88.942029,60.7084729 Z" id="Oval-19" stroke="#3C0503"></path>
                <path d="M84.2608696,60.7084729 C85.6612583,60.7084729 87.3816425,60.8712376 87.3816425,59.1519512 C87.3816425,57.4326647 86.6364998,56.0389077 85.2361111,56.0389077 C83.8357224,56.0389077 82.7004831,55.876143 82.7004831,57.5954294 C82.7004831,59.3147159 82.8604809,60.7084729 84.2608696,60.7084729 Z" id="Oval-19" stroke="#3C0503"></path>
                <path d="M79.5797101,63.8215164 C80.9800988,63.8215164 82.7004831,63.9842811 82.7004831,62.2649946 C82.7004831,60.5457082 81.9553404,59.1519512 80.5549517,59.1519512 C79.154563,59.1519512 78.0193237,58.9891865 78.0193237,60.7084729 C78.0193237,62.4277593 78.1793215,63.8215164 79.5797101,63.8215164 Z" id="Oval-19" stroke="#3C0503"></path>
                <path d="M74.8985507,65.3780381 C76.2989394,65.3780381 78.0193237,65.5408028 78.0193237,63.8215164 C78.0193237,62.1022299 77.274181,60.7084729 75.8737923,60.7084729 C74.4734036,60.7084729 73.3381643,60.5457082 73.3381643,62.2649946 C73.3381643,63.9842811 73.498162,65.3780381 74.8985507,65.3780381 Z" id="Oval-19" stroke="#3C0503"></path>
                <path d="M70.2173913,66.9345599 C71.61778,66.9345599 73.3381643,67.0973246 73.3381643,65.3780381 C73.3381643,63.6587517 72.5930215,62.2649946 71.1926329,62.2649946 C69.7922442,62.2649946 68.6570048,62.1022299 68.6570048,63.8215164 C68.6570048,65.5408028 68.8170026,66.9345599 70.2173913,66.9345599 Z" id="Oval-19" stroke="#3C0503"></path>
                <path d="M65.5362319,68.4910816 C66.9366206,68.4910816 68.6570048,68.6538463 68.6570048,66.9345599 C68.6570048,65.2152734 67.9118621,63.8215164 66.5114734,63.8215164 C65.1110847,63.8215164 63.9758454,63.6587517 63.9758454,65.3780381 C63.9758454,67.0973246 64.1358432,68.4910816 65.5362319,68.4910816 Z" id="Oval-19" stroke="#3C0503"></path>
                <path d="M60.8550725,71.6041251 C62.2554612,71.6041251 63.9758454,71.7668898 63.9758454,70.0476033 C63.9758454,68.3283169 63.2307027,66.9345599 61.830314,66.9345599 C60.4299253,66.9345599 59.294686,66.7717952 59.294686,68.4910816 C59.294686,70.210368 59.4546838,71.6041251 60.8550725,71.6041251 Z" id="Oval-19" stroke="#3C0503"></path>
                <path d="M56.173913,74.7171686 C57.5743017,74.7171686 59.294686,74.8799333 59.294686,73.1606468 C59.294686,71.4413604 58.5495433,70.0476033 57.1491546,70.0476033 C55.7487659,70.0476033 54.6135266,69.8848386 54.6135266,71.6041251 C54.6135266,73.3234115 54.7735244,74.7171686 56.173913,74.7171686 Z" id="Oval-19" stroke="#3C0503"></path>
                <path d="M51.4927536,77.830212 C52.8931423,77.830212 54.6135266,77.9929767 54.6135266,76.2736903 C54.6135266,74.5544039 53.8683839,73.1606468 52.4679952,73.1606468 C51.0676065,73.1606468 49.9323671,72.9978821 49.9323671,74.7171686 C49.9323671,76.436455 50.0923649,77.830212 51.4927536,77.830212 Z" id="Oval-19" stroke="#3C0503"></path>
                <path d="M46.8115942,80.9432555 C48.2119829,80.9432555 49.9323671,81.1060202 49.9323671,79.3867338 C49.9323671,77.6674473 49.1872244,76.2736903 47.7868357,76.2736903 C46.3864471,76.2736903 45.2512077,76.1109256 45.2512077,77.830212 C45.2512077,79.5494985 45.4112055,80.9432555 46.8115942,80.9432555 Z" id="Oval-19" stroke="#3C0503"></path>
                <path d="M42.1304348,84.056299 C43.5308235,84.056299 45.2512077,84.2190637 45.2512077,82.4997773 C45.2512077,80.7804908 44.506065,79.3867338 43.1056763,79.3867338 C41.7052876,79.3867338 40.5700483,79.2239691 40.5700483,80.9432555 C40.5700483,82.662542 40.7300461,84.056299 42.1304348,84.056299 Z" id="Oval-19" stroke="#3C0503"></path>
                <path d="M39.0096618,88.7258642 C40.4100505,88.7258642 42.1304348,88.8886289 42.1304348,87.1693425 C42.1304348,85.450056 41.3852921,84.056299 39.9849034,84.056299 C38.5845147,84.056299 37.4492754,83.8935343 37.4492754,85.6128207 C37.4492754,87.3321072 37.6092731,88.7258642 39.0096618,88.7258642 Z" id="Oval-19" stroke="#3C0503"></path>
                <path d="M34.3285024,91.8389077 C35.7288911,91.8389077 37.4492754,92.0016724 37.4492754,90.2823859 C37.4492754,88.5630995 36.7041326,87.1693425 35.303744,87.1693425 C33.9033553,87.1693425 32.7681159,87.0065778 32.7681159,88.7258642 C32.7681159,90.4451506 32.9281137,91.8389077 34.3285024,91.8389077 Z" id="Oval-19" stroke="#3C0503"></path>
                <path d="M31.2077295,96.5084729 C32.6081182,96.5084729 34.3285024,96.6712376 34.3285024,94.9519512 C34.3285024,93.2326647 33.5833597,91.8389077 32.182971,91.8389077 C30.7825823,91.8389077 29.647343,91.676143 29.647343,93.3954294 C29.647343,95.1147159 29.8073408,96.5084729 31.2077295,96.5084729 Z" id="Oval-19" stroke="#3C0503"></path>
                <path d="M105.586151,119.856299 C106.519744,119.856299 107.666667,120.019064 107.666667,118.299777 C107.666667,116.580491 107.169905,115.186734 106.236312,115.186734 C105.30272,115.186734 104.545894,115.023969 104.545894,116.743256 C104.545894,118.462542 104.652559,119.856299 105.586151,119.856299 Z" id="Oval-19" stroke="#3C0503" transform="translate(106.106280, 117.521516) scale(-1, 1) translate(-106.106280, -117.521516) "></path>
                <path d="M81.1400966,154.098405 C82.5404853,154.098405 84.2608696,154.315329 84.2608696,152.023957 C84.2608696,149.732586 83.5157269,147.875063 82.1153382,147.875063 C80.7149495,147.875063 79.5797101,147.658139 79.5797101,149.94951 C79.5797101,152.240881 79.7397079,154.098405 81.1400966,154.098405 Z" id="Oval-19" stroke="#3C0503"></path>
                <path d="M202.850242,93.3913043 C204.25063,93.3913043 205.971014,93.554069 205.971014,91.8347826 C205.971014,90.1154962 205.225872,88.7217391 203.825483,88.7217391 C202.425094,88.7217391 201.289855,88.5589744 201.289855,90.2782609 C201.289855,91.9975473 201.449853,93.3913043 202.850242,93.3913043 Z" id="Oval-19" stroke="#3C0503"></path>
                <path d="M198.169082,96.5084729 C199.569471,96.5084729 201.289855,96.6712376 201.289855,94.9519512 C201.289855,93.2326647 200.544712,91.8389077 199.144324,91.8389077 C197.743935,91.8389077 196.608696,91.676143 196.608696,93.3954294 C196.608696,95.1147159 196.768693,96.5084729 198.169082,96.5084729 Z" id="Oval-19" stroke="#3C0503"></path>
                <path d="M193.487923,99.6215164 C194.888311,99.6215164 196.608696,99.7842811 196.608696,98.0649946 C196.608696,96.3457082 195.863553,94.9519512 194.463164,94.9519512 C193.062776,94.9519512 191.927536,94.7891865 191.927536,96.5084729 C191.927536,98.2277593 192.087534,99.6215164 193.487923,99.6215164 Z" id="Oval-19" stroke="#3C0503"></path>
                <path d="M12.8002193,106.470077 C19.1090306,106.470077 23.5049874,101.360519 23.2667919,95.7759668 C23.0285964,90.1914142 19.104416,85.0818562 12.7956047,85.0818562 C6.48679345,85.0818562 1.37249142,89.3561905 1.37249142,95.7759668 C1.37249142,102.195743 6.49140804,106.470077 12.8002193,106.470077 Z" id="Oval" stroke="#994E27" stroke-width="2"></path>
                <ellipse id="Oval" stroke="#3C0503" stroke-width="2" cx="11.8436786" cy="95.7759668" rx="11.4231133" ry="11.6240332"></ellipse>
                <path d="M213.862143,94.9622549 C223.148859,94.9622549 229.626602,90.9047496 229.275972,83.5909973 C228.925343,76.277245 223.148859,69.5855644 213.862143,69.5855644 C204.575428,69.5855644 197.047057,75.1834028 197.047057,83.5909973 C197.047057,91.9985918 204.575428,94.9622549 213.862143,94.9622549 Z" id="Oval" stroke="#994E27" stroke-width="3"></path>
                <path d="M214.094799,96.2860198 C223.381515,96.2860198 229.407045,92.1178476 229.407045,83.7102531 C229.407045,75.3026586 221.878675,68.4869565 212.591959,68.4869565 C203.305243,68.4869565 195.776873,75.3026586 195.776873,83.7102531 C195.776873,92.1178476 204.808083,96.2860198 214.094799,96.2860198 Z" id="Oval" stroke="#4C120A" stroke-width="3"></path>
                <path d="M208.311594,90.2782609 C211.112372,90.2782609 213.772947,88.1876253 213.772947,85.6086957 C213.772947,83.029766 212.282661,80.9391304 209.481884,80.9391304 C206.681107,80.9391304 204.410628,83.029766 204.410628,85.6086957 C204.410628,88.1876253 205.510817,90.2782609 208.311594,90.2782609 Z" id="Oval-19" stroke="#3C0503"></path>
                <g id="Group" transform="translate(209.091787, 0.000000)">
                    <path d="M56.3041987,87.1652174 C86.4664165,87.1652174 110.917725,67.6526188 110.917725,43.5826087 C110.917725,19.5125986 86.4664165,0 56.3041987,0 C26.1419808,0 -2.16133256,19.5802141 0.130285618,43.5826087 C3.25105856,76.2695652 36.3633895,87.1652174 56.3041987,87.1652174 Z" id="Oval-18" fill="url(#radialGradient-1)"></path>
                    <g id="Oval-18">
                        <use fill="url(#radialGradient-2)" fill-rule="evenodd" xlink:href="#path-3"></use>
                        <use stroke="#421919" mask="url(#mask-4)" stroke-width="2" xlink:href="#path-3"></use>
                    </g>
                    <path d="M27.6365219,26.4009454 C27.6730936,25.9814121 27.814807,25.6029257 28.0616662,25.265475 C28.3085255,24.9280242 28.4959528,24.5768983 28.6239539,24.2120867 C28.6970974,23.9749592 28.7473828,23.724155 28.7748116,23.4596666 C28.8022404,23.1951781 28.820526,22.9306937 28.8296689,22.6662053 C28.8388119,22.4017169 28.8616689,22.1372324 28.8982406,21.872744 C28.9348124,21.6082556 28.9988119,21.3483312 29.0902413,21.0929631 C28.9988119,20.9287979 28.9622408,20.7463948 28.9805266,20.5457484 C28.9988125,20.345102 29.0079553,20.1353385 29.0079553,19.9164515 C29.0993846,19.7887675 29.172527,19.642845 29.2273846,19.4786798 C29.2822423,19.3145146 29.4102414,19.2050727 29.611386,19.150351 C29.7942447,18.7490582 29.8856727,18.3340913 29.8856727,17.9054376 C29.8856727,17.476784 29.9313867,17.0344565 30.022816,16.578442 C30.0411019,16.4872391 30.0776731,16.4051577 30.1325307,16.3321954 C30.1873883,16.2592331 30.2331023,16.1771517 30.269674,16.0859488 C30.3976751,15.7028966 30.4616747,15.2970498 30.4616747,14.8683962 C30.4616747,14.4397425 30.5348171,14.0338957 30.6811041,13.6508435 C30.7908193,13.6143624 30.9279613,13.5550814 31.0925341,13.4729988 C31.2571069,13.3909161 31.4262487,13.3088348 31.5999645,13.2267522 C31.7736802,13.1446695 31.942822,13.0762684 32.1073948,13.0215467 C32.2719677,12.9668249 32.4182524,12.9485846 32.5462535,12.9668252 C32.6376829,13.0033063 32.7291109,13.0534672 32.8205402,13.1173092 C32.9119696,13.1811513 33.0216831,13.2586726 33.1496842,13.3498755 C33.2411136,13.4045972 33.3279702,13.4684383 33.4102566,13.5414006 C33.492543,13.6143629 33.5793996,13.678204 33.6708289,13.7329257 C33.7439724,13.7694069 33.8399718,13.8013274 33.95883,13.8286883 C34.0776881,13.8560492 34.1554019,13.8879697 34.1919736,13.9244509 C34.2102595,13.9426914 34.2696877,14.0065325 34.37026,14.115976 C34.4708323,14.2254195 34.571403,14.3439815 34.6719753,14.4716655 C34.7725476,14.5993496 34.868547,14.7224717 34.9599764,14.8410354 C35.0514057,14.9595992 35.1062625,15.0371205 35.1245484,15.0736017 C35.1428342,15.1830452 35.1336914,15.3061672 35.0971197,15.4429716 C35.060548,15.5797759 35.0102626,15.7165782 34.946262,15.8533826 L34.7542613,16.2637936 C34.6902608,16.4005979 34.6399754,16.52372 34.6034037,16.6331635 C34.5485461,16.8338099 34.4936893,17.0298932 34.4388317,17.2214193 C34.383974,17.4129454 34.3108317,17.6090287 34.2194023,17.809675 C34.127973,18.0468026 34.0274022,18.3204072 33.917687,18.6304971 C33.8079717,18.9405869 33.7348293,19.2689124 33.6982576,19.6154835 C33.6616859,19.8708516 33.5656865,20.0623748 33.4102566,20.1900589 C33.2548267,20.3177429 33.1496845,20.500146 33.0948269,20.7372736 C33.0582552,20.9014388 33.0399696,21.0747217 33.0399696,21.2571275 C33.0399696,21.4395333 33.044541,21.6173763 33.0536839,21.7906618 C33.0628268,21.9639473 33.0628268,22.1326702 33.0536839,22.2968354 C33.044541,22.4610006 33.0033984,22.6160432 32.9302549,22.7619678 C32.8753973,22.8531707 32.7931121,22.9215719 32.6833969,22.9671733 C32.5736816,23.0127748 32.4822537,23.081176 32.4091102,23.1723789 C32.299395,23.3547847 32.2033956,23.5827885 32.1211092,23.8563972 C32.0388227,24.1300059 31.9702518,24.4172907 31.9153942,24.7182603 C31.8605365,25.0192299 31.8376795,25.3201949 31.8468225,25.6211645 C31.8559654,25.9221341 31.9062508,26.1911786 31.9976802,26.4283062 C31.9062508,26.7201554 31.7462518,26.9755197 31.5176785,27.1944067 C31.2891051,27.4132937 31.0193925,27.5820165 30.7085327,27.7005803 C30.3976729,27.8191441 30.0639608,27.8829851 29.7073863,27.8921054 C29.3508119,27.9012257 28.9896713,27.8419447 28.6239539,27.7142606 C28.477667,27.4953737 28.3039538,27.2901702 28.1028092,27.0986441 C27.9016647,26.907118 27.7462371,26.6745541 27.6365219,26.4009454 Z" id="i" fill="#020202" transform="translate(31.385107, 20.426501) rotate(-81.000000) translate(-31.385107, -20.426501) "></path>
                    <path d="M50.8054051,71.8763874 C50.8419769,71.4568541 50.9836902,71.0783677 51.2305495,70.740917 C51.4774087,70.4034662 51.6648361,70.0523403 51.7928372,69.6875287 C51.8659807,69.4504012 51.9162661,69.199597 51.9436949,68.9351085 C51.9711237,68.6706201 51.9894093,68.4061357 51.9985522,68.1416473 C52.0076951,67.8771588 52.0305521,67.6126744 52.0671239,67.348186 C52.1036956,67.0836976 52.1676952,66.8237732 52.2591246,66.5684051 C52.1676952,66.4042399 52.131124,66.2218368 52.1494099,66.0211904 C52.1676958,65.820544 52.1768386,65.6107805 52.1768386,65.3918935 C52.2682679,65.2642095 52.3414103,65.118287 52.3962679,64.9541218 C52.4511255,64.7899566 52.5791247,64.6805147 52.7802693,64.625793 C52.963128,64.2245002 53.0545559,63.8095332 53.0545559,63.3808796 C53.0545559,62.952226 53.1002699,62.5098985 53.1916993,62.053884 C53.2099852,61.9626811 53.2465563,61.8805997 53.301414,61.8076374 C53.3562716,61.7346751 53.4019856,61.6525937 53.4385573,61.5613908 C53.5665584,61.1783386 53.630558,60.7724918 53.630558,60.3438382 C53.630558,59.9151845 53.7037004,59.5093377 53.8499873,59.1262855 C53.9597025,59.0898043 54.0968445,59.0305234 54.2614174,58.9484407 C54.4259902,58.8663581 54.595132,58.7842767 54.7688477,58.7021941 C54.9425635,58.6201115 55.1117053,58.5517104 55.2762781,58.4969886 C55.4408509,58.4422669 55.5871357,58.4240266 55.7151368,58.4422672 C55.8065661,58.4787483 55.8979941,58.5289092 55.9894235,58.5927512 C56.0808528,58.6565932 56.1905664,58.7341145 56.3185675,58.8253174 C56.4099968,58.8800392 56.4968534,58.9438803 56.5791398,59.0168426 C56.6614263,59.0898049 56.7482828,59.153646 56.8397122,59.2083677 C56.9128557,59.2448489 57.0088551,59.2767694 57.1277132,59.3041303 C57.2465714,59.3314911 57.3242852,59.3634117 57.3608569,59.3998928 C57.3791428,59.4181334 57.438571,59.4819745 57.5391432,59.591418 C57.6397155,59.7008615 57.7402863,59.8194235 57.8408586,59.9471075 C57.9414309,60.0747916 58.0374303,60.1979137 58.1288596,60.3164774 C58.220289,60.4350412 58.2751458,60.5125625 58.2934316,60.5490437 C58.3117175,60.6584871 58.3025747,60.7816092 58.266003,60.9184136 C58.2294312,61.0552179 58.1791458,61.1920202 58.1151453,61.3288246 L57.9231446,61.7392356 C57.859144,61.8760399 57.8088587,61.999162 57.7722869,62.1086055 C57.7174293,62.3092519 57.6625725,62.5053352 57.6077149,62.6968613 C57.5528573,62.8883874 57.4797149,63.0844706 57.3882856,63.285117 C57.2968562,63.5222446 57.1962854,63.7958492 57.0865702,64.105939 C56.976855,64.4160289 56.9037126,64.7443544 56.8671409,65.0909255 C56.8305691,65.3462936 56.7345697,65.5378168 56.5791398,65.6655009 C56.4237099,65.7931849 56.3185678,65.975588 56.2637102,66.2127155 C56.2271384,66.3768808 56.2088528,66.5501637 56.2088528,66.7325695 C56.2088528,66.9149753 56.2134242,67.0928183 56.2225672,67.2661038 C56.2317101,67.4393893 56.2317101,67.6081121 56.2225672,67.7722774 C56.2134242,67.9364426 56.1722816,68.0914852 56.0991381,68.2374098 C56.0442805,68.3286127 55.9619953,68.3970139 55.8522801,68.4426153 C55.7425649,68.4882168 55.6511369,68.5566179 55.5779934,68.6478208 C55.4682782,68.8302266 55.3722788,69.0582305 55.2899924,69.3318392 C55.207706,69.6054479 55.139135,69.8927327 55.0842774,70.1937023 C55.0294198,70.4946719 55.0065628,70.7956369 55.0157057,71.0966065 C55.0248487,71.3975761 55.0751341,71.6666206 55.1665634,71.9037481 C55.0751341,72.1955974 54.9151351,72.4509617 54.6865617,72.6698487 C54.4579883,72.8887357 54.1882758,73.0574585 53.877416,73.1760223 C53.5665562,73.294586 53.2328441,73.3584271 52.8762696,73.3675474 C52.5196951,73.3766677 52.1585546,73.3173867 51.7928372,73.1897026 C51.6465502,72.9708157 51.4728371,72.7656122 51.2716925,72.5740861 C51.0705479,72.38256 50.9151203,72.1499961 50.8054051,71.8763874 Z" id="i" fill="#020202" transform="translate(54.553990, 65.901943) rotate(159.000000) translate(-54.553990, -65.901943) "></path>
                    <path d="M50.4134825,19.4869974 C50.4500542,19.067464 49.7116196,19.5273806 49.9584789,19.1899299 C50.2053381,18.8524792 50.3927655,18.5013533 50.5207666,18.1365417 C50.59391,17.8994141 50.6441954,17.6486099 50.6716242,17.3841215 C50.699053,17.1196331 50.7173386,16.8551486 50.7264816,16.5906602 C50.7356245,16.3261718 50.7584815,16.0616873 50.7950532,15.7971989 C50.831625,15.5327105 50.8956246,15.2727861 50.9870539,15.017418 C50.8956246,14.8532528 50.8590534,14.6708497 50.8773393,14.4702033 C50.8956251,14.269557 50.9047679,14.0597934 50.9047679,13.8409065 C50.9961973,13.7132224 51.0693397,13.5673 51.1241973,13.4031347 C51.1790549,13.2389695 51.3070541,13.1295277 51.5081986,13.0748059 C51.6910573,12.6735132 51.7824853,12.2585462 51.7824853,11.8298925 C51.7824853,11.4012389 51.8281993,10.9589115 51.9196287,10.502897 C51.9379145,10.4116941 51.9744857,10.3296127 52.0293433,10.2566504 C52.0842009,10.183688 52.1299149,10.1016067 52.1664867,10.0104038 C52.2944878,9.62735157 52.3584874,9.22150474 52.3584874,8.79285111 C52.3584874,8.36419747 52.4316297,7.95835064 52.5779167,7.57529846 C52.6876319,7.5388173 52.8247739,7.4795363 52.9893467,7.39745369 C53.1539196,7.31537108 53.3230613,7.2332897 53.4967771,7.15120709 C53.6704929,7.06912447 53.8396346,7.00072332 54.0042075,6.94600158 C54.1687803,6.89127984 54.3150651,6.87303953 54.4430662,6.89128012 C54.5344955,6.92776128 54.6259235,6.97792212 54.7173528,7.04176415 C54.8087822,7.10560618 54.9184958,7.18312749 55.0464969,7.27433039 C55.1379262,7.32905213 55.2247828,7.3928932 55.3070692,7.46585552 C55.3893556,7.53881784 55.4762122,7.60265892 55.5676416,7.65738066 C55.640785,7.69386182 55.7367844,7.72578236 55.8556426,7.75314323 C55.9745007,7.7805041 56.0522145,7.81242463 56.0887863,7.84890579 C56.1070721,7.86714637 56.1665003,7.93098745 56.2670726,8.04043093 C56.3676449,8.14987441 56.4682157,8.26843641 56.568788,8.39612047 C56.6693603,8.52380453 56.7653596,8.6469266 56.856789,8.76549037 C56.9482183,8.88405415 57.0030751,8.96157545 57.021361,8.99805661 C57.0396469,9.10750009 57.0305041,9.23062216 56.9939323,9.36742651 C56.9573606,9.50423087 56.9070752,9.64103317 56.8430746,9.77783752 L56.651074,10.1882485 C56.5870734,10.3250529 56.536788,10.4481749 56.5002163,10.5576184 C56.4453587,10.7582648 56.3905019,10.9543481 56.3356443,11.1458742 C56.2807867,11.3374003 56.2076443,11.5334836 56.1162149,11.73413 C56.0247856,11.9712575 55.9242148,12.2448621 55.8144996,12.554952 C55.7047844,12.8650419 55.631642,13.1933674 55.5950702,13.5399384 C55.5584985,13.7953065 55.4624991,13.9868297 55.3070692,14.1145138 C55.1516393,14.2421979 55.0464971,14.4246009 54.9916395,14.6617285 C54.9550678,14.8258937 54.9367822,14.9991766 54.9367822,15.1815824 C54.9367822,15.3639882 54.9413536,15.5418312 54.9504965,15.7151167 C54.9596395,15.8884022 54.9596395,16.0571251 54.9504965,16.2212903 C54.9413536,16.3854555 54.900211,16.5404981 54.8270675,16.6864228 C54.7722099,16.7776257 54.6899247,16.8460268 54.5802095,16.8916283 C54.4704943,16.9372297 54.3790663,17.0056309 54.3059228,17.0968338 C54.1962076,17.2792396 54.1002082,17.5072434 54.0179218,17.7808521 C53.9356354,18.0544608 53.8670644,18.3417457 53.8122068,18.6427152 C53.7573492,18.9436848 53.7344922,19.2446499 53.7436351,19.5456194 C53.752778,19.846589 53.8030634,20.1156335 53.8944928,20.3527611 C53.8030634,20.6446104 53.2465461,19.9158744 53.0179727,20.1347614 C52.7893993,20.3536483 53.0867991,19.9560014 52.7759393,20.0745651 C52.4650795,20.1931289 52.2580507,19.8479567 51.9014763,19.857077 C51.5449018,19.8661973 51.6522165,19.6479065 51.2864991,19.5202224 C50.9207817,19.3925384 51.0873467,19.6121905 50.8862021,19.4206644 C50.6850575,19.2291383 50.5231977,19.7606061 50.4134825,19.4869974 Z" id="i" fill="#020202" transform="translate(53.469188, 13.653616) rotate(-14.000000) translate(-53.469188, -13.653616) "></path>
                    <path d="M79.1292755,62.2009454 C79.1658472,61.7814121 79.3075606,61.4029257 79.5544199,61.065475 C79.8012791,60.7280242 79.9887065,60.3768983 80.1167076,60.0120867 C80.189851,59.7749592 80.2401364,59.524155 80.2675652,59.2596666 C80.294994,58.9951781 80.3132796,58.7306937 80.3224226,58.4662053 C80.3315655,58.2017169 80.3544225,57.9372324 80.3909942,57.672744 C80.427566,57.4082556 80.4915656,57.1483312 80.5829949,56.8929631 C80.4915656,56.7287979 80.4549944,56.5463948 80.4732802,56.3457484 C80.4915661,56.145102 80.5007089,55.9353385 80.5007089,55.7164515 C80.5921383,55.5887675 80.6652807,55.442845 80.7201383,55.2786798 C80.7749959,55.1145146 80.902995,55.0050727 81.1041396,54.950351 C81.2869983,54.5490582 81.3784263,54.1340913 81.3784263,53.7054376 C81.3784263,53.276784 81.4241403,52.8344565 81.5155696,52.378442 C81.5338555,52.2872391 81.5704267,52.2051577 81.6252843,52.1321954 C81.6801419,52.0592331 81.7258559,51.9771517 81.7624277,51.8859488 C81.8904288,51.5028966 81.9544283,51.0970498 81.9544283,50.6683962 C81.9544283,50.2397425 82.0275707,49.8338957 82.1738577,49.4508435 C82.2835729,49.4143624 82.4207149,49.3550814 82.5852877,49.2729988 C82.7498606,49.1909161 82.9190023,49.1088348 83.0927181,49.0267522 C83.2664339,48.9446695 83.4355756,48.8762684 83.6001485,48.8215467 C83.7647213,48.7668249 83.9110061,48.7485846 84.0390071,48.7668252 C84.1304365,48.8033063 84.2218645,48.8534672 84.3132938,48.9173092 C84.4047232,48.9811513 84.5144368,49.0586726 84.6424379,49.1498755 C84.7338672,49.2045972 84.8207238,49.2684383 84.9030102,49.3414006 C84.9852966,49.4143629 85.0721532,49.478204 85.1635826,49.5329257 C85.236726,49.5694069 85.3327254,49.6013274 85.4515836,49.6286883 C85.5704417,49.6560492 85.6481555,49.6879697 85.6847273,49.7244509 C85.7030131,49.7426914 85.7624413,49.8065325 85.8630136,49.915976 C85.9635859,50.0254195 86.0641567,50.1439815 86.164729,50.2716655 C86.2653012,50.3993496 86.3613006,50.5224717 86.45273,50.6410354 C86.5441593,50.7595992 86.5990161,50.8371205 86.617302,50.8736017 C86.6355879,50.9830452 86.6264451,51.1061672 86.5898733,51.2429716 C86.5533016,51.3797759 86.5030162,51.5165782 86.4390156,51.6533826 L86.247015,52.0637936 C86.1830144,52.2005979 86.132729,52.32372 86.0961573,52.4331635 C86.0412997,52.6338099 85.9864429,52.8298932 85.9315853,53.0214193 C85.8767277,53.2129454 85.8035853,53.4090287 85.7121559,53.609675 C85.6207266,53.8468026 85.5201558,54.1204072 85.4104406,54.4304971 C85.3007254,54.7405869 85.227583,55.0689124 85.1910112,55.4154835 C85.1544395,55.6708516 85.0584401,55.8623748 84.9030102,55.9900589 C84.7475803,56.1177429 84.6424381,56.300146 84.5875805,56.5372736 C84.5510088,56.7014388 84.5327232,56.8747217 84.5327232,57.0571275 C84.5327232,57.2395333 84.5372946,57.4173763 84.5464375,57.5906618 C84.5555805,57.7639473 84.5555805,57.9326702 84.5464375,58.0968354 C84.5372946,58.2610006 84.496152,58.4160432 84.4230085,58.5619678 C84.3681509,58.6531707 84.2858657,58.7215719 84.1761505,58.7671733 C84.0664353,58.8127748 83.9750073,58.881176 83.9018638,58.9723789 C83.7921486,59.1547847 83.6961492,59.3827885 83.6138628,59.6563972 C83.5315764,59.9300059 83.4630054,60.2172907 83.4081478,60.5182603 C83.3532902,60.8192299 83.3304332,61.1201949 83.3395761,61.4211645 C83.348719,61.7221341 83.3990044,61.9911786 83.4904338,62.2283062 C83.3990044,62.5201554 83.2390055,62.7755197 83.0104321,62.9944067 C82.7818587,63.2132937 82.5121462,63.3820165 82.2012864,63.5005803 C81.8904266,63.6191441 81.5567144,63.6829851 81.20014,63.6921054 C80.8435655,63.7012257 80.482425,63.6419447 80.1167076,63.5142606 C79.9704206,63.2953737 79.7967074,63.0901702 79.5955629,62.8986441 C79.3944183,62.707118 79.2389907,62.4745541 79.1292755,62.2009454 Z" id="i" fill="#020202" transform="translate(82.877860, 56.226501) rotate(-81.000000) translate(-82.877860, -56.226501) "></path>
                    <path d="M87.2289852,42.9684454 C87.2655569,42.548912 87.4072703,42.1704257 87.6541295,41.8329749 C87.9009888,41.4955242 88.0884161,41.1443983 88.2164172,40.7795867 C88.2895607,40.5424591 88.3398461,40.2916549 88.3672749,40.0271665 C88.3947037,39.7626781 88.4129893,39.4981936 88.4221323,39.2337052 C88.4312752,38.9692168 88.4541322,38.7047324 88.4907039,38.4402439 C88.5272757,38.1757555 88.5912753,37.9158312 88.6827046,37.660463 C88.5912753,37.4962978 88.5547041,37.3138947 88.5729899,37.1132484 C88.5912758,36.912602 88.6004186,36.7028384 88.6004186,36.4839515 C88.691848,36.3562674 88.7649903,36.210345 88.8198479,36.0461797 C88.8747056,35.8820145 89.0027047,35.7725727 89.2038493,35.7178509 C89.386708,35.3165582 89.478136,34.9015912 89.478136,34.4729376 C89.478136,34.0442839 89.52385,33.6019565 89.6152793,33.145942 C89.6335652,33.0547391 89.6701364,32.9726577 89.724994,32.8996954 C89.7798516,32.826733 89.8255656,32.7446517 89.8621373,32.6534488 C89.9901384,32.2703966 90.054138,31.8645498 90.054138,31.4358961 C90.054138,31.0072425 90.1272804,30.6013956 90.2735674,30.2183435 C90.3832826,30.1818623 90.5204246,30.1225813 90.6849974,30.0404987 C90.8495702,29.9584161 91.018712,29.8763347 91.1924278,29.7942521 C91.3661435,29.7121695 91.5352853,29.6437683 91.6998581,29.5890466 C91.864431,29.5343248 92.0107157,29.5160845 92.1387168,29.5343251 C92.2301462,29.5708063 92.3215742,29.6209671 92.4130035,29.6848092 C92.5044329,29.7486512 92.6141464,29.8261725 92.7421475,29.9173754 C92.8335769,29.9720971 92.9204335,30.0359382 93.0027199,30.1089005 C93.0850063,30.1818628 93.1718629,30.2457039 93.2632922,30.3004257 C93.3364357,30.3369068 93.4324351,30.3688274 93.5512933,30.3961882 C93.6701514,30.4235491 93.7478652,30.4554696 93.7844369,30.4919508 C93.8027228,30.5101914 93.862151,30.5740325 93.9627233,30.6834759 C94.0632956,30.7929194 94.1638664,30.9114814 94.2644386,31.0391655 C94.3650109,31.1668495 94.4610103,31.2899716 94.5524397,31.4085354 C94.643869,31.5270992 94.6987258,31.6046205 94.7170117,31.6411016 C94.7352975,31.7505451 94.7261547,31.8736672 94.689583,32.0104715 C94.6530113,32.1472759 94.6027259,32.2840782 94.5387253,32.4208825 L94.3467246,32.8312935 C94.2827241,32.9680979 94.2324387,33.09122 94.195867,33.2006634 C94.1410094,33.4013098 94.0861526,33.5973931 94.031295,33.7889192 C93.9764373,33.9804453 93.903295,34.1765286 93.8118656,34.377175 C93.7204363,34.6143025 93.6198655,34.8879071 93.5101503,35.197997 C93.400435,35.5080869 93.3272927,35.8364124 93.2907209,36.1829834 C93.2541492,36.4383515 93.1581498,36.6298748 93.0027199,36.7575588 C92.84729,36.8852429 92.7421478,37.0676459 92.6872902,37.3047735 C92.6507185,37.4689387 92.6324329,37.6422216 92.6324329,37.8246274 C92.6324329,38.0070332 92.6370043,38.1848762 92.6461472,38.3581617 C92.6552901,38.5314473 92.6552901,38.7001701 92.6461472,38.8643353 C92.6370043,39.0285005 92.5958617,39.1835431 92.5227182,39.3294678 C92.4678606,39.4206707 92.3855754,39.4890718 92.2758602,39.5346733 C92.166145,39.5802747 92.074717,39.6486759 92.0015735,39.7398788 C91.8918583,39.9222846 91.7958589,40.1502884 91.7135725,40.4238971 C91.6312861,40.6975058 91.5627151,40.9847907 91.5078575,41.2857602 C91.4529998,41.5867298 91.4301429,41.8876949 91.4392858,42.1886645 C91.4484287,42.489634 91.4987141,42.7586786 91.5901435,42.9958061 C91.4987141,43.2876554 91.3387151,43.5430197 91.1101418,43.7619066 C90.8815684,43.9807936 90.6118558,44.1495164 90.300996,44.2680802 C89.9901362,44.386644 89.6564241,44.4504851 89.2998496,44.4596054 C88.9432752,44.4687256 88.5821346,44.4094446 88.2164172,44.2817606 C88.0701303,44.0628736 87.8964171,43.8576702 87.6952725,43.6661441 C87.494128,43.474618 87.3387004,43.2420541 87.2289852,42.9684454 Z" id="i" fill="#020202" transform="translate(90.977570, 36.994001) rotate(-108.000000) translate(-90.977570, -36.994001) "></path>
                    <path d="M15.471799,44.6278386 C15.5083708,44.2083052 15.6500841,43.8298189 15.8969434,43.4923681 C16.1438026,43.1549174 16.33123,42.8037915 16.4592311,42.4389799 C16.5323746,42.2018523 16.58266,41.9510481 16.6100888,41.6865597 C16.6375176,41.4220713 16.6558032,41.1575869 16.6649461,40.8930984 C16.674089,40.62861 16.696946,40.3641256 16.7335178,40.0996372 C16.7700895,39.8351487 16.8340891,39.5752244 16.9255185,39.3198562 C16.8340891,39.155691 16.7975179,38.973288 16.8158038,38.7726416 C16.8340897,38.5719952 16.8432325,38.3622317 16.8432325,38.1433447 C16.9346618,38.0156606 17.0078042,37.8697382 17.0626618,37.705573 C17.1175194,37.5414077 17.2455186,37.4319659 17.4466632,37.3772442 C17.6295219,36.9759514 17.7209498,36.5609844 17.7209498,36.1323308 C17.7209498,35.7036771 17.7666638,35.2613497 17.8580932,34.8053352 C17.8763791,34.7141323 17.9129503,34.6320509 17.9678079,34.5590886 C18.0226655,34.4861263 18.0683795,34.4040449 18.1049512,34.312842 C18.2329523,33.9297898 18.2969519,33.523943 18.2969519,33.0952893 C18.2969519,32.6666357 18.3700943,32.2607889 18.5163812,31.8777367 C18.6260965,31.8412555 18.7632384,31.7819745 18.9278113,31.6998919 C19.0923841,31.6178093 19.2615259,31.5357279 19.4352416,31.4536453 C19.6089574,31.3715627 19.7780992,31.3031616 19.942672,31.2484398 C20.1072448,31.1937181 20.2535296,31.1754778 20.3815307,31.1937183 C20.47296,31.2301995 20.564388,31.2803603 20.6558174,31.3442024 C20.7472467,31.4080444 20.8569603,31.4855657 20.9849614,31.5767686 C21.0763907,31.6314904 21.1632473,31.6953314 21.2455337,31.7682937 C21.3278202,31.8412561 21.4146767,31.9050971 21.5061061,31.9598189 C21.5792496,31.9963 21.675249,32.0282206 21.7941071,32.0555815 C21.9129653,32.0829423 21.9906791,32.1148629 22.0272508,32.151344 C22.0455367,32.1695846 22.1049649,32.2334257 22.2055371,32.3428692 C22.3061094,32.4523126 22.4066802,32.5708746 22.5072525,32.6985587 C22.6078248,32.8262428 22.7038242,32.9493648 22.7952535,33.0679286 C22.8866829,33.1864924 22.9415397,33.2640137 22.9598255,33.3004948 C22.9781114,33.4099383 22.9689686,33.5330604 22.9323969,33.6698647 C22.8958251,33.8066691 22.8455397,33.9434714 22.7815392,34.0802757 L22.5895385,34.4906868 C22.525538,34.6274911 22.4752526,34.7506132 22.4386808,34.8600567 C22.3838232,35.060703 22.3289664,35.2567863 22.2741088,35.4483124 C22.2192512,35.6398385 22.1461088,35.8359218 22.0546795,36.0365682 C21.9632501,36.2736958 21.8626793,36.5473004 21.7529641,36.8573902 C21.6432489,37.1674801 21.5701065,37.4958056 21.5335348,37.8423766 C21.496963,38.0977448 21.4009636,38.289268 21.2455337,38.416952 C21.0901038,38.5446361 20.9849617,38.7270392 20.9301041,38.9641667 C20.8935323,39.1283319 20.8752467,39.3016148 20.8752467,39.4840207 C20.8752467,39.6664265 20.8798181,39.8442694 20.8889611,40.017555 C20.898104,40.1908405 20.898104,40.3595633 20.8889611,40.5237285 C20.8798181,40.6878938 20.8386755,40.8429364 20.765532,40.988861 C20.7106744,41.0800639 20.6283893,41.1484651 20.518674,41.1940665 C20.4089588,41.239668 20.3175308,41.3080691 20.2443873,41.399272 C20.1346721,41.5816778 20.0386727,41.8096816 19.9563863,42.0832904 C19.8740999,42.3568991 19.8055289,42.6441839 19.7506713,42.9451535 C19.6958137,43.246123 19.6729567,43.5470881 19.6820996,43.8480577 C19.6912426,44.1490273 19.741528,44.4180718 19.8329573,44.6551993 C19.741528,44.9470486 19.581529,45.2024129 19.3529556,45.4212999 C19.1243822,45.6401868 18.8546697,45.8089097 18.5438099,45.9274734 C18.2329501,46.0460372 17.899238,46.1098783 17.5426635,46.1189986 C17.186089,46.1281189 16.8249485,46.0688379 16.4592311,45.9411538 C16.3129441,45.7222668 16.139231,45.5170634 15.9380864,45.3255373 C15.7369418,45.1340112 15.5815143,44.9014473 15.471799,44.6278386 Z" id="i" fill="#020202" transform="translate(19.220384, 38.653394) rotate(-109.000000) translate(-19.220384, -38.653394) "></path>
                    <path d="M72.4067916,23.5269668 C72.4433633,23.1074335 72.5850767,22.7289471 72.8319359,22.3914964 C73.0787952,22.0540456 73.2662226,21.7029197 73.3942237,21.3381081 C73.4673671,21.1009806 73.5176525,20.8501763 73.5450813,20.5856879 C73.5725101,20.3211995 73.5907957,20.0567151 73.5999387,19.7922267 C73.6090816,19.5277382 73.6319386,19.2632538 73.6685103,18.9987654 C73.7050821,18.734277 73.7690817,18.4743526 73.860511,18.2189845 C73.7690817,18.0548192 73.7325105,17.8724162 73.7507963,17.6717698 C73.7690822,17.4711234 73.778225,17.2613599 73.778225,17.0424729 C73.8696544,16.9147889 73.9427967,16.7688664 73.9976544,16.6047012 C74.052512,16.440536 74.1805111,16.3310941 74.3816557,16.2763724 C74.5645144,15.8750796 74.6559424,15.4601126 74.6559424,15.031459 C74.6559424,14.6028054 74.7016564,14.1604779 74.7930857,13.7044634 C74.8113716,13.6132605 74.8479428,13.5311791 74.9028004,13.4582168 C74.957658,13.3852545 75.003372,13.3031731 75.0399438,13.2119702 C75.1679449,12.828918 75.2319444,12.4230712 75.2319444,11.9944176 C75.2319444,11.5657639 75.3050868,11.1599171 75.4513738,10.7768649 C75.561089,10.7403837 75.698231,10.6811027 75.8628038,10.5990201 C76.0273766,10.5169375 76.1965184,10.4348561 76.3702342,10.3527735 C76.54395,10.2706909 76.7130917,10.2022898 76.8776645,10.147568 C77.0422374,10.0928463 77.1885222,10.074606 77.3165232,10.0928466 C77.4079526,10.1293277 77.4993806,10.1794886 77.5908099,10.2433306 C77.6822393,10.3071726 77.7919529,10.3846939 77.919954,10.4758968 C78.0113833,10.5306186 78.0982399,10.5944596 78.1805263,10.667422 C78.2628127,10.7403843 78.3496693,10.8042254 78.4410987,10.8589471 C78.5142421,10.8954283 78.6102415,10.9273488 78.7290997,10.9547097 C78.8479578,10.9820705 78.9256716,11.0139911 78.9622434,11.0504722 C78.9805292,11.0687128 79.0399574,11.1325539 79.1405297,11.2419974 C79.241102,11.3514409 79.3416728,11.4700029 79.4422451,11.5976869 C79.5428173,11.725371 79.6388167,11.848493 79.7302461,11.9670568 C79.8216754,12.0856206 79.8765322,12.1631419 79.8948181,12.1996231 C79.913104,12.3090665 79.9039612,12.4321886 79.8673894,12.568993 C79.8308177,12.7057973 79.7805323,12.8425996 79.7165317,12.979404 L79.5245311,13.389815 C79.4605305,13.5266193 79.4102451,13.6497414 79.3736734,13.7591849 C79.3188158,13.9598313 79.263959,14.1559146 79.2091014,14.3474406 C79.1542438,14.5389667 79.0811014,14.73505 78.989672,14.9356964 C78.8982427,15.172824 78.7976719,15.4464286 78.6879567,15.7565184 C78.5782414,16.0666083 78.5050991,16.3949338 78.4685273,16.7415048 C78.4319556,16.996873 78.3359562,17.1883962 78.1805263,17.3160803 C78.0250964,17.4437643 77.9199542,17.6261674 77.8650966,17.8632949 C77.8285249,18.0274602 77.8102393,18.2007431 77.8102393,18.3831489 C77.8102393,18.5655547 77.8148107,18.7433977 77.8239536,18.9166832 C77.8330965,19.0899687 77.8330965,19.2586915 77.8239536,19.4228567 C77.8148107,19.587022 77.7736681,19.7420646 77.7005246,19.8879892 C77.645667,19.9791921 77.5633818,20.0475933 77.4536666,20.0931947 C77.3439514,20.1387962 77.2525234,20.2071973 77.1793799,20.2984002 C77.0696647,20.480806 76.9736653,20.7088099 76.8913789,20.9824186 C76.8090925,21.2560273 76.7405215,21.5433121 76.6856639,21.8442817 C76.6308063,22.1452513 76.6079493,22.4462163 76.6170922,22.7471859 C76.6262351,23.0481555 76.6765205,23.3172 76.7679499,23.5543275 C76.6765205,23.8461768 76.5165216,24.1015411 76.2879482,24.3204281 C76.0593748,24.539315 75.7896623,24.7080379 75.4788025,24.8266017 C75.1679427,24.9451654 74.8342305,25.0090065 74.4776561,25.0181268 C74.1210816,25.0272471 73.7599411,24.9679661 73.3942237,24.840282 C73.2479367,24.6213951 73.0742235,24.4161916 72.873079,24.2246655 C72.6719344,24.0331394 72.5165068,23.8005755 72.4067916,23.5269668 Z" id="i" fill="#020202" transform="translate(76.155376, 17.552523) rotate(217.000000) translate(-76.155376, -17.552523) "></path>
                    <path d="M25.5951974,63.996532 C25.6317691,63.5769987 25.7734825,63.1985123 26.0203417,62.8610616 C26.267201,62.5236108 26.4546284,62.1724849 26.5826295,61.8076733 C26.6557729,61.5705458 26.7060583,61.3197416 26.7334871,61.0552531 C26.7609159,60.7907647 26.7792015,60.5262803 26.7883445,60.2617919 C26.7974874,59.9973035 26.8203444,59.732819 26.8569161,59.4683306 C26.8934879,59.2038422 26.9574875,58.9439178 27.0489168,58.6885497 C26.9574875,58.5243845 26.9209163,58.3419814 26.9392021,58.141335 C26.957488,57.9406886 26.9666308,57.7309251 26.9666308,57.5120381 C27.0580602,57.3843541 27.1312025,57.2384316 27.1860602,57.0742664 C27.2409178,56.9101012 27.3689169,56.8006593 27.5700615,56.7459376 C27.7529202,56.3446448 27.8443482,55.9296778 27.8443482,55.5010242 C27.8443482,55.0723706 27.8900622,54.6300431 27.9814915,54.1740286 C27.9997774,54.0828257 28.0363486,54.0007443 28.0912062,53.927782 C28.1460638,53.8548197 28.1917778,53.7727383 28.2283496,53.6815354 C28.3563507,53.2984832 28.4203502,52.8926364 28.4203502,52.4639828 C28.4203502,52.0353291 28.4934926,51.6294823 28.6397796,51.2464301 C28.7494948,51.209949 28.8866368,51.150668 29.0512096,51.0685854 C29.2157824,50.9865027 29.3849242,50.9044214 29.55864,50.8223387 C29.7323557,50.7402561 29.9014975,50.671855 30.0660703,50.6171332 C30.2306432,50.5624115 30.3769279,50.5441712 30.504929,50.5624118 C30.5963584,50.5988929 30.6877864,50.6490538 30.7792157,50.7128958 C30.8706451,50.7767378 30.9803587,50.8542591 31.1083597,50.945462 C31.1997891,51.0001838 31.2866457,51.0640249 31.3689321,51.1369872 C31.4512185,51.2099495 31.5380751,51.2737906 31.6295045,51.3285123 C31.7026479,51.3649935 31.7986473,51.396914 31.9175055,51.4242749 C32.0363636,51.4516358 32.1140774,51.4835563 32.1506492,51.5200375 C32.168935,51.538278 32.2283632,51.6021191 32.3289355,51.7115626 C32.4295078,51.8210061 32.5300786,51.9395681 32.6306508,52.0672521 C32.7312231,52.1949362 32.8272225,52.3180583 32.9186519,52.436622 C33.0100812,52.5551858 33.064938,52.6327071 33.0832239,52.6691883 C33.1015097,52.7786318 33.092367,52.9017538 33.0557952,53.0385582 C33.0192235,53.1753625 32.9689381,53.3121648 32.9049375,53.4489692 L32.7129369,53.8593802 C32.6489363,53.9961845 32.5986509,54.1193066 32.5620792,54.2287501 C32.5072216,54.4293965 32.4523648,54.6254798 32.3975072,54.8170059 C32.3426496,55.008532 32.2695072,55.2046153 32.1780778,55.4052616 C32.0866485,55.6423892 31.9860777,55.9159938 31.8763625,56.2260837 C31.7666472,56.5361735 31.6935049,56.864499 31.6569331,57.2110701 C31.6203614,57.4664382 31.524362,57.6579614 31.3689321,57.7856455 C31.2135022,57.9133295 31.10836,58.0957326 31.0535024,58.3328601 C31.0169307,58.4970254 30.9986451,58.6703083 30.9986451,58.8527141 C30.9986451,59.0351199 31.0032165,59.2129629 31.0123594,59.3862484 C31.0215023,59.5595339 31.0215023,59.7282567 31.0123594,59.892422 C31.0032165,60.0565872 30.9620739,60.2116298 30.8889304,60.3575544 C30.8340728,60.4487573 30.7517876,60.5171585 30.6420724,60.5627599 C30.5323572,60.6083614 30.4409292,60.6767625 30.3677857,60.7679654 C30.2580705,60.9503712 30.1620711,61.1783751 30.0797847,61.4519838 C29.9974983,61.7255925 29.9289273,62.0128773 29.8740697,62.3138469 C29.8192121,62.6148165 29.7963551,62.9157815 29.805498,63.2167511 C29.8146409,63.5177207 29.8649263,63.7867652 29.9563557,64.0238928 C29.8649263,64.315742 29.7049274,64.5711063 29.476354,64.7899933 C29.2477806,65.0088803 28.9780681,65.1776031 28.6672083,65.2961669 C28.3563485,65.4147306 28.0226363,65.4785717 27.6660619,65.487692 C27.3094874,65.4968123 26.9483469,65.4375313 26.5826295,65.3098472 C26.4363425,65.0909603 26.2626293,64.8857568 26.0614847,64.6942307 C25.8603402,64.5027046 25.7049126,64.2701407 25.5951974,63.996532 Z" id="i" fill="#020202" transform="translate(29.343782, 58.022088) rotate(217.000000) translate(-29.343782, -58.022088) "></path>
                    <path d="M61.2314291,47.9387297 C61.3594302,48.6683529 61.5377148,49.4207655 61.7662881,50.1959902 C61.9948615,50.9712148 62.1914317,51.7236275 62.3560045,52.4532507 C62.3925763,52.6356565 62.4291474,52.8317398 62.4657192,53.0415065 C62.5022909,53.2512732 62.5297193,53.4291162 62.5480052,53.5750408 C62.5662911,53.7209654 62.5297199,53.8486476 62.4382905,53.9580911 C62.3468612,54.0675345 62.31029,54.1952167 62.3285758,54.3411413 C62.3651476,54.5965095 62.4520042,54.8792342 62.5891482,55.1893241 C62.7262922,55.4994139 62.8405772,55.8094992 62.9320066,56.119589 C63.0234359,56.4114383 63.1240067,56.7215235 63.2337219,57.049854 C63.3434371,57.3781844 63.3982939,57.6882696 63.3982939,57.9801189 C63.4165798,58.0895624 63.4028656,58.1990042 63.3571509,58.3084477 C63.3114362,58.4178912 63.297722,58.5182129 63.3160079,58.6094158 C63.3525796,58.8100622 63.4348648,59.0107056 63.5628659,59.2113519 C63.690867,59.4119983 63.7914378,59.630882 63.8645813,59.8680095 C63.9742965,60.2328212 64.0702959,60.6432281 64.1525823,61.0992426 C64.2348687,61.5552571 64.3308681,62.0021446 64.4405833,62.4399185 C64.5502985,62.9506548 64.6737263,63.4522632 64.8108703,63.9447589 C64.9480144,64.4372545 65.0622993,64.9115025 65.1537287,65.367517 C65.245158,65.8235315 65.290872,66.2521787 65.290872,66.6534715 C65.290872,67.0547643 65.2085869,67.4195704 65.044014,67.7479008 C64.7331542,67.8391038 64.4360133,67.8938247 64.1525823,67.9120653 C63.8691513,67.9303058 63.5811532,67.8117438 63.2885792,67.5563757 C63.0874347,67.1368424 62.9320071,66.6671545 62.8222919,66.1472979 C62.7125767,65.6274414 62.6028631,65.0756721 62.4931479,64.4919735 C62.4565761,64.3095677 62.4291477,64.1226046 62.4108618,63.9310785 C62.392576,63.7395524 62.392576,63.5799497 62.4108618,63.4522657 C62.4474336,63.306341 62.497719,63.1558585 62.5617195,63.0008136 C62.6257201,62.8457686 62.6211487,62.6496853 62.5480052,62.4125578 C62.5114335,62.3031143 62.4565767,62.2027926 62.3834332,62.1115897 C62.3102897,62.0203868 62.2462901,61.9291853 62.1914325,61.8379824 C62.0451455,61.6190954 61.9537176,61.4002117 61.9171458,61.1813248 C61.8805741,60.9624378 61.8257173,60.7253138 61.7525738,60.4699457 C61.7160021,60.3787428 61.6657167,60.273861 61.6017161,60.1552972 C61.5377156,60.0367335 61.4874302,59.9227316 61.4508585,59.8132881 C61.377715,59.55792 61.3365724,59.2751952 61.3274294,58.9651053 C61.3182865,58.6550155 61.2680011,58.3449303 61.1765718,58.0348404 C61.0851424,57.615307 60.9845716,57.2413808 60.8748564,56.9130503 C60.7651412,56.5847199 60.6737132,56.2290339 60.6005697,55.8459817 C60.563998,55.6818165 60.5228554,55.5176537 60.4771407,55.3534885 C60.431426,55.1893233 60.4085691,55.0616411 60.4085691,54.9704382 C60.4085691,54.8427542 60.4588544,54.715072 60.5594267,54.5873879 C60.659999,54.4597039 60.6919988,54.3137814 60.6554271,54.1496162 C60.6371412,54.0584133 60.577713,53.9626517 60.4771407,53.8623285 C60.3765684,53.7620053 60.2897119,53.6480034 60.2165684,53.5203193 C60.1068531,53.3014324 60.0428536,53.0734285 60.0245677,52.836301 C60.0062818,52.5991734 59.9605678,52.3620495 59.8874243,52.1249219 C59.8508526,52.0154784 59.7914244,51.9151567 59.709138,51.8239538 C59.6268516,51.7327509 59.5674234,51.6415494 59.5308517,51.5503465 C59.4942799,51.4773842 59.4851371,51.3998629 59.503423,51.3177803 C59.5217089,51.2356977 59.5125661,51.1490562 59.4759943,51.0578533 C59.4211367,50.8754475 59.3479943,50.6976045 59.256565,50.524319 C59.1651356,50.3510335 59.101136,50.1823106 59.0645643,50.0181454 C59.0279926,49.8357396 58.98685,49.6624567 58.9411353,49.4982915 C58.8954206,49.3341263 58.854278,49.1699635 58.8177063,49.0057983 C58.7811345,48.8233925 58.7537061,48.618189 58.7354203,48.3901818 C58.7171344,48.1621745 58.7171344,48.0025718 58.7354203,47.9113689 C58.771992,47.7107225 55.5406096,38.0550435 55.7326112,37.9456 C55.9246129,37.8361566 58.1792777,36.3890783 58.4352799,36.3890783 C58.6912821,36.3890783 59.392977,43.2554796 59.6581221,43.3558028 C59.9232672,43.456126 61.0302845,47.7016021 61.2314291,47.9387297 Z" id="\" fill="#020202" transform="translate(60.507626, 52.151484) rotate(-10.000000) translate(-60.507626, -52.151484) "></path>
                    <path d="M40.2878999,37.7142719 C40.415901,38.4438951 40.5941855,39.1963078 40.8227589,39.9715324 C41.0513323,40.7467571 41.2479025,41.4991698 41.4124753,42.228793 C41.449047,42.4111988 41.4856182,42.6072821 41.52219,42.8170487 C41.5587617,43.0268154 41.5861901,43.2046584 41.604476,43.350583 C41.6227618,43.4965077 41.5861906,43.6241898 41.4947613,43.7336333 C41.4033319,43.8430768 41.3667607,43.9707589 41.3850466,44.1166836 C41.4216184,44.3720517 41.5084749,44.6547765 41.645619,44.9648663 C41.782763,45.2749562 41.897048,45.5850414 41.9884773,45.8951313 C42.0799067,46.1869806 42.1804775,46.4970658 42.2901927,46.8253962 C42.3999079,47.1537267 42.4547647,47.4638119 42.4547647,47.7556612 C42.4730506,47.8651047 42.4593364,47.9745465 42.4136217,48.08399 C42.367907,48.1934335 42.3541928,48.2937551 42.3724787,48.384958 C42.4090504,48.5856044 42.4913356,48.7862478 42.6193367,48.9868942 C42.7473378,49.1875406 42.8479086,49.4064243 42.9210521,49.6435518 C43.0307673,50.0083634 43.1267667,50.4187703 43.2090531,50.8747848 C43.2913395,51.3307993 43.3873389,51.7776868 43.4970541,52.2154608 C43.6067693,52.726197 43.7301971,53.2278054 43.8673411,53.7203011 C44.0044851,54.2127968 44.1187701,54.6870448 44.2101995,55.1430593 C44.3016288,55.5990738 44.3473428,56.027721 44.3473428,56.4290138 C44.3473428,56.8303065 44.2650576,57.1951127 44.1004848,57.5234431 C43.789625,57.614646 43.4924841,57.6693669 43.2090531,57.6876075 C42.9256221,57.7058481 42.6376239,57.5872861 42.34505,57.331918 C42.1439054,56.9123846 41.9884779,56.4426967 41.8787627,55.9228402 C41.7690474,55.4029836 41.6593339,54.8512144 41.5496186,54.2675158 C41.5130469,54.08511 41.4856185,53.8981468 41.4673326,53.7066208 C41.4490468,53.5150947 41.4490468,53.355492 41.4673326,53.2278079 C41.5039044,53.0818833 41.5541898,52.9314007 41.6181903,52.7763558 C41.6821908,52.6213109 41.6776194,52.4252276 41.604476,52.1881 C41.5679042,52.0786566 41.5130474,51.9783349 41.439904,51.887132 C41.3667605,51.7959291 41.3027609,51.7047275 41.2479033,51.6135246 C41.1016163,51.3946377 41.0101883,51.175754 40.9736166,50.956867 C40.9370449,50.7379801 40.8821881,50.5008561 40.8090446,50.2454879 C40.7724728,50.154285 40.7221875,50.0494033 40.6581869,49.9308395 C40.5941864,49.8122757 40.543901,49.6982738 40.5073292,49.5888303 C40.4341857,49.3334622 40.3930432,49.0507375 40.3839002,48.7406476 C40.3747573,48.4305577 40.3244719,48.1204725 40.2330425,47.8103826 C40.1416132,47.3908493 40.0410424,47.016923 39.9313272,46.6885926 C39.821612,46.3602621 39.730184,46.0045761 39.6570405,45.6215239 C39.6204688,45.4573587 39.5793262,45.293196 39.5336115,45.1290307 C39.4878968,44.9648655 39.4650398,44.8371834 39.4650398,44.7459805 C39.4650398,44.6182964 39.5153252,44.4906143 39.6158975,44.3629302 C39.7164698,44.2352461 39.7484696,44.0893237 39.7118978,43.9251585 C39.693612,43.8339556 39.6341838,43.7381939 39.5336115,43.6378708 C39.4330392,43.5375476 39.3461826,43.4235456 39.2730391,43.2958616 C39.1633239,43.0769746 39.0993243,42.8489708 39.0810385,42.6118432 C39.0627526,42.3747157 39.0170386,42.1375917 38.9438951,41.9004642 C38.9073234,41.7910207 38.8478952,41.690699 38.7656088,41.5994961 C38.6833224,41.5082932 38.6238942,41.4170917 38.5873224,41.3258888 C38.5507507,41.2529264 38.5416079,41.1754051 38.5598938,41.0933225 C38.5781796,41.0112399 38.5690368,40.9245984 38.5324651,40.8333955 C38.4776075,40.6509897 38.4044651,40.4731468 38.3130357,40.2998612 C38.2216064,40.1265757 38.1576068,39.9578529 38.1210351,39.7936877 C38.0844633,39.6112819 38.0433207,39.437999 37.9976061,39.2738337 C37.9518914,39.1096685 37.9107488,38.9455057 37.8741771,38.7813405 C37.8376053,38.5989347 37.8101769,38.3937313 37.791891,38.165724 C37.7736052,37.9377168 37.7736052,37.7781141 37.791891,37.6869112 C37.8284628,37.4862648 34.5970804,27.8305858 34.789082,27.7211423 C34.9810837,27.6116988 37.2357485,26.1646206 37.4917507,26.1646206 C37.7477529,26.1646206 38.4494478,33.0310218 38.7145929,33.131345 C38.979738,33.2316682 40.0867553,37.4771444 40.2878999,37.7142719 Z" id="\" fill="#020202" transform="translate(39.564097, 41.927026) rotate(95.000000) translate(-39.564097, -41.927026) "></path>
                </g>
                <path d="M212.070875,70.2773159 C211.71377,69.2324898 212.317352,68.3854909 213.422701,68.3854909 L222.126339,68.3854909 C223.230037,68.3854909 223.869432,69.2445677 223.563069,70.304792 C223.563069,70.304792 222.008014,75.3535812 222.008014,77.1752607 C222.008014,78.9969403 223.633816,85.137194 223.633816,85.137194 C223.904957,86.2012025 223.231687,87.0637518 222.126339,87.0637518 L213.422701,87.0637518 C212.319003,87.0637518 211.683834,86.1987603 211.985971,85.1425118 C211.985971,85.1425118 213.541026,80.274013 213.541026,77.1752607 C213.541026,74.0765085 212.070875,70.2773159 212.070875,70.2773159 Z" id="Rectangle-9" fill="#3C0503" transform="translate(217.802323, 77.724621) rotate(43.000000) translate(-217.802323, -77.724621) "></path>
                <path d="M23.5335208,92.3033755 C23.1953191,91.2621691 23.8236943,90.4181045 24.9179966,90.4181045 L27.8280363,90.4181045 C28.9308629,90.4181045 29.5695203,91.2867303 29.2765287,92.3357494 C29.2765287,92.3357494 28.6742591,94.2058192 28.6742591,95.1960479 C28.6742591,96.1862765 29.3402483,98.6357266 29.3402483,98.6357266 C29.6079033,99.7046779 28.9223386,100.571234 27.8280363,100.571234 L24.9179966,100.571234 C23.81517,100.571234 23.1765126,99.7044888 23.4627706,98.6470942 C23.4627706,98.6470942 24.0717737,96.8804677 24.0717737,95.1960479 C24.0717737,93.511628 23.5335208,92.3033755 23.5335208,92.3033755 Z" id="Rectangle-9" fill="#3C0503" transform="translate(26.396365, 95.494669) rotate(87.000000) translate(-26.396365, -95.494669) "></path>
                <path d="M4.71634532,104.585368 C4.29874263,103.577098 4.84579405,102.759733 5.96686716,102.759733 L7.78443119,102.759733 C8.89267802,102.759733 9.46207788,103.583375 9.08482842,104.621823 C9.08482842,104.621823 8.81927612,105.085507 8.81927612,105.693538 C8.81927612,106.30157 9.15916931,107.110912 9.15916931,107.110912 C9.50816925,108.150951 8.9055043,108.99407 7.78443119,108.99407 L5.96686716,108.99407 C4.85862032,108.99407 4.28922046,108.165174 4.64570234,107.123589 C4.64570234,107.123589 4.93202223,106.727825 4.93202223,105.693538 C4.93202223,104.659252 4.71634532,104.585368 4.71634532,104.585368 Z" id="Rectangle-9" fill="#3C0503" transform="translate(6.898917, 105.876901) rotate(31.000000) translate(-6.898917, -105.876901) "></path>
                <path d="M226.600216,84.5348004 C226.23924,83.4988348 226.832196,82.6590187 227.953269,82.6590187 L229.770833,82.6590187 C230.87908,82.6590187 231.501609,83.5060253 231.178628,84.5718084 C231.178628,84.5718084 230.805678,85.5278481 230.805678,86.2778509 C230.805678,87.0278538 231.246091,88.4205176 231.246091,88.4205176 C231.539575,89.4856095 230.891907,90.3490371 229.770833,90.3490371 L227.953269,90.3490371 C226.845023,90.3490371 226.222494,89.5000297 226.52875,88.4427002 C226.52875,88.4427002 226.918425,87.5536368 226.918425,86.2778509 C226.918425,85.002065 226.600216,84.5348004 226.600216,84.5348004 Z" id="Rectangle-9" fill="#3C0503" transform="translate(228.883757, 86.504028) rotate(107.000000) translate(-228.883757, -86.504028) "></path>
            </g>
        </g>
    </g>
</svg>