<?xml version="1.0" encoding="UTF-8"?>
<svg width="1440px" height="785px" viewBox="0 0 1440 785" version="1.1" xmlns="http://www.w3.org/2000/svg" xmlns:xlink="http://www.w3.org/1999/xlink">
    <!-- Generator: Sketch 41.2 (35397) - http://www.bohemiancoding.com/sketch -->
    <title>Desktop HD Copy 3</title>
    <desc>Created with Sketch.</desc>
    <defs></defs>
    <g id="Page-1" stroke="none" stroke-width="1" fill="none" fill-rule="evenodd">
        <g id="Desktop-HD-Copy-3">
            <polygon id="Triangle" fill="#D5AD77" points="530.5 726 551 798 510 798"></polygon>
            <polygon id="Triangle" fill="#D5AD77" points="588.5 726 609 798 568 798"></polygon>
            <polygon id="Triangle" fill="#D5AD77" points="629.5 737 650 809 609 809"></polygon>
            <polygon id="Triangle" fill="#D5AD77" points="446.5 713 467 785 426 785"></polygon>
            <polygon id="Triangle" fill="#A9875A" points="571.5 762 592 834 551 834"></polygon>
            <polygon id="Triangle" fill="#775B35" points="542.5 713 563 785 522 785"></polygon>
            <polygon id="Triangle" fill="#775B35" points="405.5 713 426 785 385 785"></polygon>
            <polygon id="Triangle" fill="#775B35" points="509.5 737 530 809 489 809"></polygon>
            <polygon id="Triangle" fill="#D5AD77" points="480.5 713 501 785 460 785"></polygon>
            <polygon id="Triangle" fill="#775B35" transform="translate(865.500000, 762.000000) scale(-1, 1) translate(-865.500000, -762.000000) " points="865.5 726 886 798 845 798"></polygon>
            <polygon id="Triangle" fill="#D5AD77" transform="translate(923.500000, 762.000000) scale(-1, 1) translate(-923.500000, -762.000000) " points="923.5 726 944 798 903 798"></polygon>
            <polygon id="Triangle" fill="#A9875A" transform="translate(964.500000, 773.000000) scale(-1, 1) translate(-964.500000, -773.000000) " points="964.5 737 985 809 944 809"></polygon>
            <polygon id="Triangle" fill="#A9875A" transform="translate(906.500000, 798.000000) scale(-1, 1) translate(-906.500000, -798.000000) " points="906.5 762 927 834 886 834"></polygon>
            <polygon id="Triangle" fill="#D5AD77" transform="translate(877.500000, 749.000000) scale(-1, 1) translate(-877.500000, -749.000000) " points="877.5 713 898 785 857 785"></polygon>
            <polygon id="Triangle" fill="#D5AD77" transform="translate(844.500000, 773.000000) scale(-1, 1) translate(-844.500000, -773.000000) " points="844.5 737 865 809 824 809"></polygon>
            <polygon id="Path-19" fill="#775B34" transform="translate(347.000000, 785.000000) scale(-1, 1) translate(-347.000000, -785.000000) " points="172 991 522 791 425 579 408 652 400 610 385 707 369 639 251 791 281 839 270 799 251 898 237 847 219 948 208 893 197 979 185 939"></polygon>
            <polygon id="Path-19" fill="#775B34" points="899 991 1249 791 1152 579 1135 652 1127 610 1112 707 1096 639 978 791 1008 839 997 799 978 898 964 847 946 948 935 893 924 979 912 939"></polygon>
            <polygon id="Triangle" fill="#D5AD77" transform="translate(1032.500000, 749.000000) scale(-1, 1) translate(-1032.500000, -749.000000) " points="1032.5 713 1053 785 1012 785"></polygon>
            <polygon id="Path-19" fill="#A9875A" points="1189 782 1441 783 1442 370 1425 443 1417 401 1402 498 1386 430 1369 538 1355 481 1335 582 1324 519 1298 630 1287 590 1268 689 1254 638 1236 739 1225 684 1214 770 1202 730"></polygon>
            <polygon id="Path-20" fill="#D5AD77" points="1298 783 1441 785 1395 524 1358 714 1333 604"></polygon>
            <polygon id="Path-19" fill="#A9875A" points="1189 786 1441 787 1442 374 1425 447 1417 405 1402 502 1386 434 1369 542 1355 485 1335 586 1324 523 1298 634 1287 594 1268 693 1254 642 1236 743 1225 688 1214 774 1202 734"></polygon>
            <polygon id="Path-19" fill="#A9875A" transform="translate(107.500000, 580.500000) scale(-1, 1) translate(-107.500000, -580.500000) " points="-19 786 233 787 234 374 217 447 209 405 194 502 178 434 161 542 147 485 127 586 116 523 90 634 79 594 60 693 46 642 28 743 17 688 6 774 -6 734"></polygon>
            <polygon id="Path-20" fill="#D5AD77" points="1298 786 1441 788 1395 527 1358 717 1333 607"></polygon>
            <polygon id="Path-20" fill="#D5AD77" transform="translate(65.500000, 656.500000) scale(-1, 1) translate(-65.500000, -656.500000) " points="-6 785 137 787 91 526 54 716 29 606"></polygon>
            <polygon id="Triangle" fill="#A9875A" points="468.5 726 489 798 448 798"></polygon>
            <polygon id="Triangle" fill="#775B35" points="984.5 713 1005 785 964 785"></polygon>
        </g>
    </g>
</svg>