<?xml version="1.0" encoding="UTF-8"?>
<svg width="1440px" height="1024px" viewBox="0 0 1440 1024" version="1.1" xmlns="http://www.w3.org/2000/svg" xmlns:xlink="http://www.w3.org/1999/xlink">
    <!-- Generator: Sketch 41.2 (35397) - http://www.bohemiancoding.com/sketch -->
    <title>Desktop HD Copy 6</title>
    <desc>Created with Sketch.</desc>
    <defs></defs>
    <g id="Page-1" stroke="none" stroke-width="1" fill="none" fill-rule="evenodd">
        <g id="Desktop-HD-Copy-6">
            <polygon id="Path-32" fill="#FFCDB4" points="911 1023 1024 799 1038 1023"></polygon>
            <polygon id="Path-33" fill="#B68F7C" points="1024 799 1054 1024 1038 1023"></polygon>
            <polygon id="Path-37" fill="#B84C29" points="1002 1023 1147 640 1235 1023"></polygon>
            <path d="M882.5,788 L924,949 L932,959 L944,936 C947.464611,942.929222 957,954 957,954 L988,1024 L777,1024 L882.5,788 Z" id="Triangle" fill="#CB4C4A"></path>
            <polygon id="Path-29" fill="#CF1B47" points="821 1023 839 1023 834 999 811.511668 969.952571 810 968 777 1022 810 971"></polygon>
            <polygon id="Path-30" fill="#C91D47" points="884 790 913 966 924 949 927 968 933 959 926 950"></polygon>
            <polygon id="Path-37" fill="#B84C29" points="1236 1064 1381 681 1469 1064"></polygon>
            <polygon id="Path-31" fill="#CE1F47" points="946 953 950 944 944 937"></polygon>
            <polygon id="Path-32" fill="#FFCDB4" points="1166 1024 1314.5 601 1378 1024"></polygon>
            <path d="M510,815 L413,1023 L425,1024 L510,815 Z M61,790 L90,966 L101,949 L104,968 L110,959 L103,950 L61,790 Z" id="Combined-Shape" fill="#672814"></path>
            <polygon id="Path-34" fill="#F6AF42" points="848 1024 898 923 913 1024 918 1024 1008 872 1035 975 1038 1023"></polygon>
            <polygon id="Path-34" fill="#F6AF42" transform="translate(685.000000, 956.000000) scale(-1, 1) translate(-685.000000, -956.000000) " points="590 1032 640 931 655 1032 660 1032 750 880 777 983 780 1031"></polygon>
            <polygon id="Path-35" fill="#A57429" points="898 924 907 1024 913 1024"></polygon>
            <polygon id="Path-35" fill="#A57429" points="731 931 712 1031 731 1031"></polygon>
            <polygon id="Path-36" fill="#A57429" points="1008 873 1037 1024 1049 1024"></polygon>
            <polygon id="Path-36" fill="#A57429" points="620 878 577 1025 603 1025"></polygon>
            <polygon id="Path-38" fill="#6B2D19" points="1148 641 1236 1025 1208 1022"></polygon>
            <polygon id="Path-38" fill="#6B2E1A" points="1381 680 1469 1064 1441 1061"></polygon>
            <polygon id="Path-37" fill="#B84C29" points="1126 1262 1271 879 1359 1262"></polygon>
            <polygon id="Path-38" fill="#6D2E1A" points="1271 878 1359 1262 1331 1259"></polygon>
            <polygon id="Path-39" fill="#CB4C4A" points="1145 1024 1206 837 1278 1024"></polygon>
            <polygon id="Path-40" fill="#C91D47" points="1207 838 1277 1023 1258 1024"></polygon>
            <polygon id="Path-32" fill="#FFCDB4" points="88 1023 201 799 215 1023"></polygon>
            <polygon id="Path-33" fill="#B68F7C" points="201 799 231 1024 215 1023"></polygon>
            <polygon id="Path-37" fill="#B84C29" points="179 1023 273 646 412 1023"></polygon>
            <path d="M59.5,788 L101,949 L109,959 L121,936 C124.464611,942.929222 134,954 134,954 L165,1024 L-46,1024 L59.5,788 Z" id="Triangle" fill="#F23661"></path>
            <polygon id="Path-29" fill="#CF1B47" points="-2 1024 16 1024 11 1000 -11.4883324 970.952571 -13 969 -46 1023 -13 972"></polygon>
            <polygon id="Path-37" fill="#B84C29" points="1 1071 146 688 234 1071"></polygon>
            <polygon id="Path-32" fill="#FFCDB4" points="-81 1071 67.5 648 131 1071"></polygon>
            <polygon id="Path-33" fill="#B18F7E" points="67 648 130 1071 84 841"></polygon>
            <polygon id="Path-38" fill="#722D16" points="146 686 234 1070 206 1067"></polygon>
            <polygon id="Path-34" fill="#FEA694" points="25 1024 75 923 90 1024 95 1024 185 872 212 975 215 1023"></polygon>
            <polygon id="Path-39" fill="#CB4C4A" points="447 1478 592 912 685 1478"></polygon>
            <polygon id="Path-37" fill="#B84C29" points="399 1054 510 814 587 1054"></polygon>
            <polygon id="Path-35" fill="#B36352" points="75 924 84 1024 90 1024"></polygon>
            <polygon id="Path-36" fill="#B36252" points="185 873 214 1024 226 1024"></polygon>
            <polygon id="Path-38" fill="#672813" points="273 646 413 1025 385 1022"></polygon>
            <polygon id="Path-38" fill="#672813" points="508 822 413 1025 385 1022"></polygon>
            <polygon id="Path-37" fill="#F6AF42" points="303 1262 448 879 536 1262"></polygon>
            <polygon id="Path-37" fill="#F6AF42" points="-150 1263 -5 880 83 1263"></polygon>
            <polygon id="Path-38" fill="#A57429" points="448 878 536 1262 508 1259"></polygon>
            <polygon id="Path-32" fill="#FFCDB4" points="409 1109 484 922 536 1109"></polygon>
            <polygon id="Path-39" fill="#CB4C4A" points="322 1024 383 837 455 1024"></polygon>
            <polygon id="Path-33" fill="#B18F7E" points="1314 601 1377 1024 1331 794"></polygon>
            <polygon id="Path-40" fill="#C91D47" points="384 838 454 1023 435 1024"></polygon>
            <polygon id="Path-40" fill="#C91D47" points="592 913 615 1036 602 1032"></polygon>
            <polygon id="Path-47" fill="#B68F7C" points="485 924 452 1017 450 1009"></polygon>
        </g>
    </g>
</svg>