<?xml version="1.0" encoding="UTF-8"?>
<svg width="112px" height="84px" viewBox="0 0 112 84" version="1.1" xmlns="http://www.w3.org/2000/svg" xmlns:xlink="http://www.w3.org/1999/xlink">
    <!-- Generator: Sketch 41.2 (35397) - http://www.bohemiancoding.com/sketch -->
    <title>“</title>
    <desc>Created with Sketch.</desc>
    <defs></defs>
    <g id="Page-1" stroke="none" stroke-width="1" fill="none" fill-rule="evenodd" opacity="0.422327899">
        <g id="Desktop-HD-Copy-3" transform="translate(-484.000000, -162.000000)" fill="#FAFAFA">
            <path d="M512.085283,163.09375 C514.106127,164.356777 516.063789,165.493485 517.95833,166.503906 C519.852871,167.514328 520.926428,169.156239 521.179033,171.429688 C521.179033,172.440109 520.73698,174.208321 519.852861,176.734375 C518.968742,179.260429 517.958336,182.039047 516.821611,185.070312 C515.684887,188.101578 514.67448,191.069647 513.790361,193.974609 C512.906242,196.879572 512.46419,199.216137 512.46419,200.984375 C514.232428,199.973953 516.316391,199.089848 518.716143,198.332031 C521.115894,197.574215 523.705061,197.826817 526.483721,199.089844 C529.767591,200.605476 532.167307,203.005192 533.68294,206.289062 C535.198572,209.572933 535.956377,213.109356 535.956377,216.898438 C535.956377,220.687519 535.261723,224.539694 533.872393,228.455078 C532.483063,232.370462 530.651701,235.717434 528.378252,238.496094 C526.104803,241.274753 523.831388,243.106115 521.55794,243.990234 C519.284491,244.874353 516.884775,245.316406 514.358721,245.316406 C511.832666,245.316406 509.117199,245.000654 506.212236,244.369141 C503.307274,243.737627 500.212904,243.169273 496.929033,242.664062 C493.139952,239.380192 489.919281,235.464866 487.266924,230.917969 C484.614567,226.371071 483.919912,220.434932 485.18294,213.109375 C485.68815,209.572899 486.509106,205.215521 487.64583,200.037109 C488.782555,194.858698 490.108713,190.753921 491.624346,187.722656 C493.897795,183.428364 496.929014,179.007835 500.718096,174.460938 C504.507177,169.91404 508.296202,166.125015 512.085283,163.09375 Z M568.542315,162.335938 C570.057947,163.598965 571.573557,164.735672 573.08919,165.746094 C574.604822,166.756515 575.994131,168.019524 577.257158,169.535156 C575.994131,173.324238 574.28907,178.060518 572.141924,183.744141 C569.994778,189.427763 568.416017,194.416645 567.405596,198.710938 C569.93165,197.195305 572.836569,196.563801 576.12044,196.816406 C579.40431,197.069012 582.43553,197.953117 585.21419,199.46875 C587.992849,200.984383 590.329414,203.068346 592.223955,205.720703 C594.118496,208.37306 595.065752,211.593731 595.065752,215.382812 C595.318357,220.434921 593.929048,225.676405 590.897783,231.107422 C587.866518,236.538439 584.203794,240.390614 579.909502,242.664062 C576.120421,244.684906 572.015644,245.505861 567.595049,245.126953 C563.174454,244.748045 559.322279,243.295586 556.038408,240.769531 C555.280592,240.26432 554.712238,239.380215 554.33333,238.117188 C553.954422,236.85416 553.259767,235.591152 552.249346,234.328125 C550.481108,232.054676 548.586595,230.033863 546.565752,228.265625 C544.544909,226.497387 543.2819,223.592468 542.77669,219.550781 C542.271479,213.488251 542.713532,207.615263 544.102861,201.931641 C545.492191,196.248018 547.449854,190.943384 549.975908,186.017578 C552.501963,181.091772 555.406881,176.608093 558.690752,172.566406 C561.974623,168.524719 565.258444,165.114597 568.542315,162.335938 Z" id="“"></path>
        </g>
    </g>
</svg>