<?xml version="1.0" encoding="UTF-8"?>
<svg width="1277px" height="905px" viewBox="0 0 1277 905" version="1.1" xmlns="http://www.w3.org/2000/svg" xmlns:xlink="http://www.w3.org/1999/xlink">
    <!-- Generator: Sketch 41.2 (35397) - http://www.bohemiancoding.com/sketch -->
    <title>Group 4</title>
    <desc>Created with Sketch.</desc>
    <defs>
        <path d="M50.3988163,115.568304 C50.3165085,121.400328 49.647214,130.500424 50.1263209,140.799719 C50.636113,151.758652 52.4097546,163.248181 52.4097546,167.082667 C52.4097546,170.762561 50.5932589,172.744042 48.6836096,172.744042 C44.9108877,172.744042 42.6752007,171.102243 42.4888934,166.120233 C42.3748498,162.294345 43.4916561,153.095998 43.3537985,141.625343 C43.2552738,133.427444 42.5227432,124.525804 42.1127589,118.299683 C39.4392074,124.76939 36.5102487,132.313334 35.2028702,135.260409 C33.2181966,139.805001 27.3138952,153.071201 25.2397636,155.298297 C24.4053105,155.967985 23.4870324,156.478305 22.7510997,156.465459 C20.673172,156.429189 19.3292177,154.03716 19.3843257,150.880029 C19.4330043,148.09123 21.3993086,144.599015 23.6805841,140.428045 C25.2904639,137.508592 27.2125596,134.06824 28.3499216,130.93 C31.1454545,123.36401 37.2911235,110.049838 42.1544059,101.548959 C42.9575952,80.4006092 45.0906323,37.1411976 46.2839012,29.9344778 C46.4236317,29.0286579 45.0948788,20.1779237 50.1585317,21.0646937 C55.2221847,21.9514637 52.418753,28.1473164 52.418753,31.3176862 C52.418753,34.5690822 51.2069903,71.4121213 50.6643567,96.6398373 C51.2857543,96.9259272 51.7720529,97.296121 51.9257336,97.6025594 C57.1293083,107.115032 60.5322694,118.069851 63.1191466,128.641981 C63.8865518,131.813469 64.6512015,135.142813 65.5917673,138.317324 C66.7782971,142.285651 68.9263951,145.744413 68.847407,150.269634 C68.8134238,152.216531 68.2922272,154.786543 65.5216569,154.738182 C61.8852833,154.674709 61.2616479,153.190047 60.0391757,148.800014 C57.2755685,138.190197 54.6007508,126.583938 50.3988163,115.568304 Z" id="path-1"></path>
        <filter x="-50%" y="-50%" width="200%" height="200%" filterUnits="objectBoundingBox" id="filter-2">
            <feGaussianBlur stdDeviation="1.5" in="SourceAlpha" result="shadowBlurInner1"></feGaussianBlur>
            <feOffset dx="0" dy="1" in="shadowBlurInner1" result="shadowOffsetInner1"></feOffset>
            <feComposite in="shadowOffsetInner1" in2="SourceAlpha" operator="arithmetic" k2="-1" k3="1" result="shadowInnerInner1"></feComposite>
            <feColorMatrix values="0 0 0 0 0   0 0 0 0 0   0 0 0 0 0  0 0 0 0.5 0" type="matrix" in="shadowInnerInner1"></feColorMatrix>
        </filter>
        <path d="M29.0139073,26.1444701 C29.0139073,27.5813429 30.0176048,28.557332 31.0659111,28.557332 C33.3632632,28.557332 34.9245704,23.0538379 36.1959206,21.0747489 C36.731226,20.207203 36.8873567,20.1529814 37.3557489,19.4209896 C38.2925332,18.1196708 39.4300571,16.8996844 39.4300571,15.0832602 C39.4300571,14.5681549 39.251622,13.2126144 38.0248805,13.2126144 C36.9765742,13.2126144 36.5304865,13.6463874 36.1959206,13.9446063 C34.0100905,16.1948034 29.0139073,24.2738243 29.0139073,26.1444701 Z" id="path-3"></path>
        <filter x="-50%" y="-50%" width="200%" height="200%" filterUnits="objectBoundingBox" id="filter-4">
            <feGaussianBlur stdDeviation="1.5" in="SourceAlpha" result="shadowBlurInner1"></feGaussianBlur>
            <feOffset dx="0" dy="1" in="shadowBlurInner1" result="shadowOffsetInner1"></feOffset>
            <feComposite in="shadowOffsetInner1" in2="SourceAlpha" operator="arithmetic" k2="-1" k3="1" result="shadowInnerInner1"></feComposite>
            <feColorMatrix values="0 0 0 0 0   0 0 0 0 0   0 0 0 0 0  0 0 0 0.5 0" type="matrix" in="shadowInnerInner1"></feColorMatrix>
        </filter>
        <path d="M78.5690156,41.8368992 C78.5690156,43.273772 79.5727132,44.2497612 80.6210195,44.2497612 C82.9183716,44.2497612 84.4796788,38.746267 85.751029,36.767178 C86.2863343,35.8996321 86.4424651,35.8454105 86.9108572,35.1134187 C87.8476416,33.8120999 88.9851655,32.5921135 88.9851655,30.7756893 C88.9851655,30.260584 88.8067303,28.9050435 87.5799889,28.9050435 C86.5316826,28.9050435 86.0855948,29.3388165 85.751029,29.6370354 C83.5651988,31.8872325 78.5690156,39.9662534 78.5690156,41.8368992 Z" id="path-5"></path>
        <filter x="-50%" y="-50%" width="200%" height="200%" filterUnits="objectBoundingBox" id="filter-6">
            <feGaussianBlur stdDeviation="1.5" in="SourceAlpha" result="shadowBlurInner1"></feGaussianBlur>
            <feOffset dx="0" dy="1" in="shadowBlurInner1" result="shadowOffsetInner1"></feOffset>
            <feComposite in="shadowOffsetInner1" in2="SourceAlpha" operator="arithmetic" k2="-1" k3="1" result="shadowInnerInner1"></feComposite>
            <feColorMatrix values="0 0 0 0 0   0 0 0 0 0   0 0 0 0 0  0 0 0 0.5 0" type="matrix" in="shadowInnerInner1"></feColorMatrix>
        </filter>
        <path d="M52.8641862,15.183161 C52.8641862,16.6200339 53.8678837,17.596023 54.91619,17.596023 C57.2135421,17.596023 58.7748494,12.0925289 60.0461996,10.1134399 C60.5815049,9.24589398 60.7376356,9.19167236 61.2060278,8.45968053 C62.1428122,7.15836173 63.280336,5.93837535 63.280336,4.12195118 C63.280336,3.60684582 63.1019009,2.25130539 61.8751595,2.25130539 C60.8268532,2.25130539 60.3807654,2.68507833 60.0461996,2.98329722 C57.8603694,5.23349432 52.8641862,13.3125153 52.8641862,15.183161 Z" id="path-7"></path>
        <filter x="-50%" y="-50%" width="200%" height="200%" filterUnits="objectBoundingBox" id="filter-8">
            <feGaussianBlur stdDeviation="1.5" in="SourceAlpha" result="shadowBlurInner1"></feGaussianBlur>
            <feOffset dx="0" dy="1" in="shadowBlurInner1" result="shadowOffsetInner1"></feOffset>
            <feComposite in="shadowOffsetInner1" in2="SourceAlpha" operator="arithmetic" k2="-1" k3="1" result="shadowInnerInner1"></feComposite>
            <feColorMatrix values="0 0 0 0 0   0 0 0 0 0   0 0 0 0 0  0 0 0 0.5 0" type="matrix" in="shadowInnerInner1"></feColorMatrix>
        </filter>
        <path d="M50.3988163,115.568304 C50.3165085,121.400328 49.647214,130.500424 50.1263209,140.799719 C50.636113,151.758652 52.4097546,163.248181 52.4097546,167.082667 C52.4097546,170.762561 50.5932589,172.744042 48.6836096,172.744042 C44.9108877,172.744042 42.6752007,171.102243 42.4888934,166.120233 C42.3748498,162.294345 43.4916561,153.095998 43.3537985,141.625343 C43.2552738,133.427444 42.5227432,124.525804 42.1127589,118.299683 C39.4392074,124.76939 36.5102487,132.313334 35.2028702,135.260409 C33.2181966,139.805001 27.3138952,153.071201 25.2397636,155.298297 C24.4053105,155.967985 23.4870324,156.478305 22.7510997,156.465459 C20.673172,156.429189 19.3292177,154.03716 19.3843257,150.880029 C19.4330043,148.09123 21.3993086,144.599015 23.6805841,140.428045 C25.2904639,137.508592 27.2125596,134.06824 28.3499216,130.93 C31.1454545,123.36401 37.2911235,110.049838 42.1544059,101.548959 C42.9575952,80.4006092 45.0906323,37.1411976 46.2839012,29.9344778 C46.4236317,29.0286579 45.0948788,20.1779237 50.1585317,21.0646937 C55.2221847,21.9514637 52.418753,28.1473164 52.418753,31.3176862 C52.418753,34.5690822 51.2069903,71.4121213 50.6643567,96.6398373 C51.2857543,96.9259272 51.7720529,97.296121 51.9257336,97.6025594 C57.1293083,107.115032 60.5322694,118.069851 63.1191466,128.641981 C63.8865518,131.813469 64.6512015,135.142813 65.5917673,138.317324 C66.7782971,142.285651 68.9263951,145.744413 68.847407,150.269634 C68.8134238,152.216531 68.2922272,154.786543 65.5216569,154.738182 C61.8852833,154.674709 61.2616479,153.190047 60.0391757,148.800014 C57.2755685,138.190197 54.6007508,126.583938 50.3988163,115.568304 Z" id="path-9"></path>
        <filter x="-50%" y="-50%" width="200%" height="200%" filterUnits="objectBoundingBox" id="filter-10">
            <feGaussianBlur stdDeviation="1.5" in="SourceAlpha" result="shadowBlurInner1"></feGaussianBlur>
            <feOffset dx="0" dy="1" in="shadowBlurInner1" result="shadowOffsetInner1"></feOffset>
            <feComposite in="shadowOffsetInner1" in2="SourceAlpha" operator="arithmetic" k2="-1" k3="1" result="shadowInnerInner1"></feComposite>
            <feColorMatrix values="0 0 0 0 0   0 0 0 0 0   0 0 0 0 0  0 0 0 0.5 0" type="matrix" in="shadowInnerInner1"></feColorMatrix>
        </filter>
        <path d="M29.0139073,26.1444701 C29.0139073,27.5813429 30.0176048,28.557332 31.0659111,28.557332 C33.3632632,28.557332 34.9245704,23.0538379 36.1959206,21.0747489 C36.731226,20.207203 36.8873567,20.1529814 37.3557489,19.4209896 C38.2925332,18.1196708 39.4300571,16.8996844 39.4300571,15.0832602 C39.4300571,14.5681549 39.251622,13.2126144 38.0248805,13.2126144 C36.9765742,13.2126144 36.5304865,13.6463874 36.1959206,13.9446063 C34.0100905,16.1948034 29.0139073,24.2738243 29.0139073,26.1444701 Z" id="path-11"></path>
        <filter x="-50%" y="-50%" width="200%" height="200%" filterUnits="objectBoundingBox" id="filter-12">
            <feGaussianBlur stdDeviation="1.5" in="SourceAlpha" result="shadowBlurInner1"></feGaussianBlur>
            <feOffset dx="0" dy="1" in="shadowBlurInner1" result="shadowOffsetInner1"></feOffset>
            <feComposite in="shadowOffsetInner1" in2="SourceAlpha" operator="arithmetic" k2="-1" k3="1" result="shadowInnerInner1"></feComposite>
            <feColorMatrix values="0 0 0 0 0   0 0 0 0 0   0 0 0 0 0  0 0 0 0.5 0" type="matrix" in="shadowInnerInner1"></feColorMatrix>
        </filter>
        <path d="M78.5690156,41.8368992 C78.5690156,43.273772 79.5727132,44.2497612 80.6210195,44.2497612 C82.9183716,44.2497612 84.4796788,38.746267 85.751029,36.767178 C86.2863343,35.8996321 86.4424651,35.8454105 86.9108572,35.1134187 C87.8476416,33.8120999 88.9851655,32.5921135 88.9851655,30.7756893 C88.9851655,30.260584 88.8067303,28.9050435 87.5799889,28.9050435 C86.5316826,28.9050435 86.0855948,29.3388165 85.751029,29.6370354 C83.5651988,31.8872325 78.5690156,39.9662534 78.5690156,41.8368992 Z" id="path-13"></path>
        <filter x="-50%" y="-50%" width="200%" height="200%" filterUnits="objectBoundingBox" id="filter-14">
            <feGaussianBlur stdDeviation="1.5" in="SourceAlpha" result="shadowBlurInner1"></feGaussianBlur>
            <feOffset dx="0" dy="1" in="shadowBlurInner1" result="shadowOffsetInner1"></feOffset>
            <feComposite in="shadowOffsetInner1" in2="SourceAlpha" operator="arithmetic" k2="-1" k3="1" result="shadowInnerInner1"></feComposite>
            <feColorMatrix values="0 0 0 0 0   0 0 0 0 0   0 0 0 0 0  0 0 0 0.5 0" type="matrix" in="shadowInnerInner1"></feColorMatrix>
        </filter>
        <path d="M52.8641862,15.183161 C52.8641862,16.6200339 53.8678837,17.596023 54.91619,17.596023 C57.2135421,17.596023 58.7748494,12.0925289 60.0461996,10.1134399 C60.5815049,9.24589398 60.7376356,9.19167236 61.2060278,8.45968053 C62.1428122,7.15836173 63.280336,5.93837535 63.280336,4.12195118 C63.280336,3.60684582 63.1019009,2.25130539 61.8751595,2.25130539 C60.8268532,2.25130539 60.3807654,2.68507833 60.0461996,2.98329722 C57.8603694,5.23349432 52.8641862,13.3125153 52.8641862,15.183161 Z" id="path-15"></path>
        <filter x="-50%" y="-50%" width="200%" height="200%" filterUnits="objectBoundingBox" id="filter-16">
            <feGaussianBlur stdDeviation="1.5" in="SourceAlpha" result="shadowBlurInner1"></feGaussianBlur>
            <feOffset dx="0" dy="1" in="shadowBlurInner1" result="shadowOffsetInner1"></feOffset>
            <feComposite in="shadowOffsetInner1" in2="SourceAlpha" operator="arithmetic" k2="-1" k3="1" result="shadowInnerInner1"></feComposite>
            <feColorMatrix values="0 0 0 0 0   0 0 0 0 0   0 0 0 0 0  0 0 0 0.5 0" type="matrix" in="shadowInnerInner1"></feColorMatrix>
        </filter>
        <path d="M50.3988163,115.568304 C50.3165085,121.400328 49.647214,130.500424 50.1263209,140.799719 C50.636113,151.758652 52.4097546,163.248181 52.4097546,167.082667 C52.4097546,170.762561 50.5932589,172.744042 48.6836096,172.744042 C44.9108877,172.744042 42.6752007,171.102243 42.4888934,166.120233 C42.3748498,162.294345 43.4916561,153.095998 43.3537985,141.625343 C43.2552738,133.427444 42.5227432,124.525804 42.1127589,118.299683 C39.4392074,124.76939 36.5102487,132.313334 35.2028702,135.260409 C33.2181966,139.805001 27.3138952,153.071201 25.2397636,155.298297 C24.4053105,155.967985 23.4870324,156.478305 22.7510997,156.465459 C20.673172,156.429189 19.3292177,154.03716 19.3843257,150.880029 C19.4330043,148.09123 21.3993086,144.599015 23.6805841,140.428045 C25.2904639,137.508592 27.2125596,134.06824 28.3499216,130.93 C31.1454545,123.36401 37.2911235,110.049838 42.1544059,101.548959 C42.9575952,80.4006092 45.0906323,37.1411976 46.2839012,29.9344778 C46.4236317,29.0286579 45.0948788,20.1779237 50.1585317,21.0646937 C55.2221847,21.9514637 52.418753,28.1473164 52.418753,31.3176862 C52.418753,34.5690822 51.2069903,71.4121213 50.6643567,96.6398373 C51.2857543,96.9259272 51.7720529,97.296121 51.9257336,97.6025594 C57.1293083,107.115032 60.5322694,118.069851 63.1191466,128.641981 C63.8865518,131.813469 64.6512015,135.142813 65.5917673,138.317324 C66.7782971,142.285651 68.9263951,145.744413 68.847407,150.269634 C68.8134238,152.216531 68.2922272,154.786543 65.5216569,154.738182 C61.8852833,154.674709 61.2616479,153.190047 60.0391757,148.800014 C57.2755685,138.190197 54.6007508,126.583938 50.3988163,115.568304 Z" id="path-17"></path>
        <filter x="-50%" y="-50%" width="200%" height="200%" filterUnits="objectBoundingBox" id="filter-18">
            <feGaussianBlur stdDeviation="1.5" in="SourceAlpha" result="shadowBlurInner1"></feGaussianBlur>
            <feOffset dx="0" dy="1" in="shadowBlurInner1" result="shadowOffsetInner1"></feOffset>
            <feComposite in="shadowOffsetInner1" in2="SourceAlpha" operator="arithmetic" k2="-1" k3="1" result="shadowInnerInner1"></feComposite>
            <feColorMatrix values="0 0 0 0 0   0 0 0 0 0   0 0 0 0 0  0 0 0 0.5 0" type="matrix" in="shadowInnerInner1"></feColorMatrix>
        </filter>
        <path d="M29.0139073,26.1444701 C29.0139073,27.5813429 30.0176048,28.557332 31.0659111,28.557332 C33.3632632,28.557332 34.9245704,23.0538379 36.1959206,21.0747489 C36.731226,20.207203 36.8873567,20.1529814 37.3557489,19.4209896 C38.2925332,18.1196708 39.4300571,16.8996844 39.4300571,15.0832602 C39.4300571,14.5681549 39.251622,13.2126144 38.0248805,13.2126144 C36.9765742,13.2126144 36.5304865,13.6463874 36.1959206,13.9446063 C34.0100905,16.1948034 29.0139073,24.2738243 29.0139073,26.1444701 Z" id="path-19"></path>
        <filter x="-50%" y="-50%" width="200%" height="200%" filterUnits="objectBoundingBox" id="filter-20">
            <feGaussianBlur stdDeviation="1.5" in="SourceAlpha" result="shadowBlurInner1"></feGaussianBlur>
            <feOffset dx="0" dy="1" in="shadowBlurInner1" result="shadowOffsetInner1"></feOffset>
            <feComposite in="shadowOffsetInner1" in2="SourceAlpha" operator="arithmetic" k2="-1" k3="1" result="shadowInnerInner1"></feComposite>
            <feColorMatrix values="0 0 0 0 0   0 0 0 0 0   0 0 0 0 0  0 0 0 0.5 0" type="matrix" in="shadowInnerInner1"></feColorMatrix>
        </filter>
        <path d="M78.5690156,41.8368992 C78.5690156,43.273772 79.5727132,44.2497612 80.6210195,44.2497612 C82.9183716,44.2497612 84.4796788,38.746267 85.751029,36.767178 C86.2863343,35.8996321 86.4424651,35.8454105 86.9108572,35.1134187 C87.8476416,33.8120999 88.9851655,32.5921135 88.9851655,30.7756893 C88.9851655,30.260584 88.8067303,28.9050435 87.5799889,28.9050435 C86.5316826,28.9050435 86.0855948,29.3388165 85.751029,29.6370354 C83.5651988,31.8872325 78.5690156,39.9662534 78.5690156,41.8368992 Z" id="path-21"></path>
        <filter x="-50%" y="-50%" width="200%" height="200%" filterUnits="objectBoundingBox" id="filter-22">
            <feGaussianBlur stdDeviation="1.5" in="SourceAlpha" result="shadowBlurInner1"></feGaussianBlur>
            <feOffset dx="0" dy="1" in="shadowBlurInner1" result="shadowOffsetInner1"></feOffset>
            <feComposite in="shadowOffsetInner1" in2="SourceAlpha" operator="arithmetic" k2="-1" k3="1" result="shadowInnerInner1"></feComposite>
            <feColorMatrix values="0 0 0 0 0   0 0 0 0 0   0 0 0 0 0  0 0 0 0.5 0" type="matrix" in="shadowInnerInner1"></feColorMatrix>
        </filter>
        <path d="M52.8641862,15.183161 C52.8641862,16.6200339 53.8678837,17.596023 54.91619,17.596023 C57.2135421,17.596023 58.7748494,12.0925289 60.0461996,10.1134399 C60.5815049,9.24589398 60.7376356,9.19167236 61.2060278,8.45968053 C62.1428122,7.15836173 63.280336,5.93837535 63.280336,4.12195118 C63.280336,3.60684582 63.1019009,2.25130539 61.8751595,2.25130539 C60.8268532,2.25130539 60.3807654,2.68507833 60.0461996,2.98329722 C57.8603694,5.23349432 52.8641862,13.3125153 52.8641862,15.183161 Z" id="path-23"></path>
        <filter x="-50%" y="-50%" width="200%" height="200%" filterUnits="objectBoundingBox" id="filter-24">
            <feGaussianBlur stdDeviation="1.5" in="SourceAlpha" result="shadowBlurInner1"></feGaussianBlur>
            <feOffset dx="0" dy="1" in="shadowBlurInner1" result="shadowOffsetInner1"></feOffset>
            <feComposite in="shadowOffsetInner1" in2="SourceAlpha" operator="arithmetic" k2="-1" k3="1" result="shadowInnerInner1"></feComposite>
            <feColorMatrix values="0 0 0 0 0   0 0 0 0 0   0 0 0 0 0  0 0 0 0.5 0" type="matrix" in="shadowInnerInner1"></feColorMatrix>
        </filter>
        <path d="M50.3988163,115.568304 C50.3165085,121.400328 49.647214,130.500424 50.1263209,140.799719 C50.636113,151.758652 52.4097546,163.248181 52.4097546,167.082667 C52.4097546,170.762561 50.5932589,172.744042 48.6836096,172.744042 C44.9108877,172.744042 42.6752007,171.102243 42.4888934,166.120233 C42.3748498,162.294345 43.4916561,153.095998 43.3537985,141.625343 C43.2552738,133.427444 42.5227432,124.525804 42.1127589,118.299683 C39.4392074,124.76939 36.5102487,132.313334 35.2028702,135.260409 C33.2181966,139.805001 27.3138952,153.071201 25.2397636,155.298297 C24.4053105,155.967985 23.4870324,156.478305 22.7510997,156.465459 C20.673172,156.429189 19.3292177,154.03716 19.3843257,150.880029 C19.4330043,148.09123 21.3993086,144.599015 23.6805841,140.428045 C25.2904639,137.508592 27.2125596,134.06824 28.3499216,130.93 C31.1454545,123.36401 37.2911235,110.049838 42.1544059,101.548959 C42.9575952,80.4006092 45.0906323,37.1411976 46.2839012,29.9344778 C46.4236317,29.0286579 45.0948788,20.1779237 50.1585317,21.0646937 C55.2221847,21.9514637 52.418753,28.1473164 52.418753,31.3176862 C52.418753,34.5690822 51.2069903,71.4121213 50.6643567,96.6398373 C51.2857543,96.9259272 51.7720529,97.296121 51.9257336,97.6025594 C57.1293083,107.115032 60.5322694,118.069851 63.1191466,128.641981 C63.8865518,131.813469 64.6512015,135.142813 65.5917673,138.317324 C66.7782971,142.285651 68.9263951,145.744413 68.847407,150.269634 C68.8134238,152.216531 68.2922272,154.786543 65.5216569,154.738182 C61.8852833,154.674709 61.2616479,153.190047 60.0391757,148.800014 C57.2755685,138.190197 54.6007508,126.583938 50.3988163,115.568304 Z" id="path-25"></path>
        <filter x="-50%" y="-50%" width="200%" height="200%" filterUnits="objectBoundingBox" id="filter-26">
            <feGaussianBlur stdDeviation="1.5" in="SourceAlpha" result="shadowBlurInner1"></feGaussianBlur>
            <feOffset dx="0" dy="1" in="shadowBlurInner1" result="shadowOffsetInner1"></feOffset>
            <feComposite in="shadowOffsetInner1" in2="SourceAlpha" operator="arithmetic" k2="-1" k3="1" result="shadowInnerInner1"></feComposite>
            <feColorMatrix values="0 0 0 0 0   0 0 0 0 0   0 0 0 0 0  0 0 0 0.5 0" type="matrix" in="shadowInnerInner1"></feColorMatrix>
        </filter>
        <path d="M29.0139073,26.1444701 C29.0139073,27.5813429 30.0176048,28.557332 31.0659111,28.557332 C33.3632632,28.557332 34.9245704,23.0538379 36.1959206,21.0747489 C36.731226,20.207203 36.8873567,20.1529814 37.3557489,19.4209896 C38.2925332,18.1196708 39.4300571,16.8996844 39.4300571,15.0832602 C39.4300571,14.5681549 39.251622,13.2126144 38.0248805,13.2126144 C36.9765742,13.2126144 36.5304865,13.6463874 36.1959206,13.9446063 C34.0100905,16.1948034 29.0139073,24.2738243 29.0139073,26.1444701 Z" id="path-27"></path>
        <filter x="-50%" y="-50%" width="200%" height="200%" filterUnits="objectBoundingBox" id="filter-28">
            <feGaussianBlur stdDeviation="1.5" in="SourceAlpha" result="shadowBlurInner1"></feGaussianBlur>
            <feOffset dx="0" dy="1" in="shadowBlurInner1" result="shadowOffsetInner1"></feOffset>
            <feComposite in="shadowOffsetInner1" in2="SourceAlpha" operator="arithmetic" k2="-1" k3="1" result="shadowInnerInner1"></feComposite>
            <feColorMatrix values="0 0 0 0 0   0 0 0 0 0   0 0 0 0 0  0 0 0 0.5 0" type="matrix" in="shadowInnerInner1"></feColorMatrix>
        </filter>
        <path d="M78.5690156,41.8368992 C78.5690156,43.273772 79.5727132,44.2497612 80.6210195,44.2497612 C82.9183716,44.2497612 84.4796788,38.746267 85.751029,36.767178 C86.2863343,35.8996321 86.4424651,35.8454105 86.9108572,35.1134187 C87.8476416,33.8120999 88.9851655,32.5921135 88.9851655,30.7756893 C88.9851655,30.260584 88.8067303,28.9050435 87.5799889,28.9050435 C86.5316826,28.9050435 86.0855948,29.3388165 85.751029,29.6370354 C83.5651988,31.8872325 78.5690156,39.9662534 78.5690156,41.8368992 Z" id="path-29"></path>
        <filter x="-50%" y="-50%" width="200%" height="200%" filterUnits="objectBoundingBox" id="filter-30">
            <feGaussianBlur stdDeviation="1.5" in="SourceAlpha" result="shadowBlurInner1"></feGaussianBlur>
            <feOffset dx="0" dy="1" in="shadowBlurInner1" result="shadowOffsetInner1"></feOffset>
            <feComposite in="shadowOffsetInner1" in2="SourceAlpha" operator="arithmetic" k2="-1" k3="1" result="shadowInnerInner1"></feComposite>
            <feColorMatrix values="0 0 0 0 0   0 0 0 0 0   0 0 0 0 0  0 0 0 0.5 0" type="matrix" in="shadowInnerInner1"></feColorMatrix>
        </filter>
        <path d="M52.8641862,15.183161 C52.8641862,16.6200339 53.8678837,17.596023 54.91619,17.596023 C57.2135421,17.596023 58.7748494,12.0925289 60.0461996,10.1134399 C60.5815049,9.24589398 60.7376356,9.19167236 61.2060278,8.45968053 C62.1428122,7.15836173 63.280336,5.93837535 63.280336,4.12195118 C63.280336,3.60684582 63.1019009,2.25130539 61.8751595,2.25130539 C60.8268532,2.25130539 60.3807654,2.68507833 60.0461996,2.98329722 C57.8603694,5.23349432 52.8641862,13.3125153 52.8641862,15.183161 Z" id="path-31"></path>
        <filter x="-50%" y="-50%" width="200%" height="200%" filterUnits="objectBoundingBox" id="filter-32">
            <feGaussianBlur stdDeviation="1.5" in="SourceAlpha" result="shadowBlurInner1"></feGaussianBlur>
            <feOffset dx="0" dy="1" in="shadowBlurInner1" result="shadowOffsetInner1"></feOffset>
            <feComposite in="shadowOffsetInner1" in2="SourceAlpha" operator="arithmetic" k2="-1" k3="1" result="shadowInnerInner1"></feComposite>
            <feColorMatrix values="0 0 0 0 0   0 0 0 0 0   0 0 0 0 0  0 0 0 0.5 0" type="matrix" in="shadowInnerInner1"></feColorMatrix>
        </filter>
        <path d="M50.3988163,115.568304 C50.3165085,121.400328 49.647214,130.500424 50.1263209,140.799719 C50.636113,151.758652 52.4097546,163.248181 52.4097546,167.082667 C52.4097546,170.762561 50.5932589,172.744042 48.6836096,172.744042 C44.9108877,172.744042 42.6752007,171.102243 42.4888934,166.120233 C42.3748498,162.294345 43.4916561,153.095998 43.3537985,141.625343 C43.2552738,133.427444 42.5227432,124.525804 42.1127589,118.299683 C39.4392074,124.76939 36.5102487,132.313334 35.2028702,135.260409 C33.2181966,139.805001 27.3138952,153.071201 25.2397636,155.298297 C24.4053105,155.967985 23.4870324,156.478305 22.7510997,156.465459 C20.673172,156.429189 19.3292177,154.03716 19.3843257,150.880029 C19.4330043,148.09123 21.3993086,144.599015 23.6805841,140.428045 C25.2904639,137.508592 27.2125596,134.06824 28.3499216,130.93 C31.1454545,123.36401 37.2911235,110.049838 42.1544059,101.548959 C42.9575952,80.4006092 45.0906323,37.1411976 46.2839012,29.9344778 C46.4236317,29.0286579 45.0948788,20.1779237 50.1585317,21.0646937 C55.2221847,21.9514637 52.418753,28.1473164 52.418753,31.3176862 C52.418753,34.5690822 51.2069903,71.4121213 50.6643567,96.6398373 C51.2857543,96.9259272 51.7720529,97.296121 51.9257336,97.6025594 C57.1293083,107.115032 60.5322694,118.069851 63.1191466,128.641981 C63.8865518,131.813469 64.6512015,135.142813 65.5917673,138.317324 C66.7782971,142.285651 68.9263951,145.744413 68.847407,150.269634 C68.8134238,152.216531 68.2922272,154.786543 65.5216569,154.738182 C61.8852833,154.674709 61.2616479,153.190047 60.0391757,148.800014 C57.2755685,138.190197 54.6007508,126.583938 50.3988163,115.568304 Z" id="path-33"></path>
        <filter x="-50%" y="-50%" width="200%" height="200%" filterUnits="objectBoundingBox" id="filter-34">
            <feGaussianBlur stdDeviation="1.5" in="SourceAlpha" result="shadowBlurInner1"></feGaussianBlur>
            <feOffset dx="0" dy="1" in="shadowBlurInner1" result="shadowOffsetInner1"></feOffset>
            <feComposite in="shadowOffsetInner1" in2="SourceAlpha" operator="arithmetic" k2="-1" k3="1" result="shadowInnerInner1"></feComposite>
            <feColorMatrix values="0 0 0 0 0   0 0 0 0 0   0 0 0 0 0  0 0 0 0.5 0" type="matrix" in="shadowInnerInner1"></feColorMatrix>
        </filter>
        <path d="M29.0139073,26.1444701 C29.0139073,27.5813429 30.0176048,28.557332 31.0659111,28.557332 C33.3632632,28.557332 34.9245704,23.0538379 36.1959206,21.0747489 C36.731226,20.207203 36.8873567,20.1529814 37.3557489,19.4209896 C38.2925332,18.1196708 39.4300571,16.8996844 39.4300571,15.0832602 C39.4300571,14.5681549 39.251622,13.2126144 38.0248805,13.2126144 C36.9765742,13.2126144 36.5304865,13.6463874 36.1959206,13.9446063 C34.0100905,16.1948034 29.0139073,24.2738243 29.0139073,26.1444701 Z" id="path-35"></path>
        <filter x="-50%" y="-50%" width="200%" height="200%" filterUnits="objectBoundingBox" id="filter-36">
            <feGaussianBlur stdDeviation="1.5" in="SourceAlpha" result="shadowBlurInner1"></feGaussianBlur>
            <feOffset dx="0" dy="1" in="shadowBlurInner1" result="shadowOffsetInner1"></feOffset>
            <feComposite in="shadowOffsetInner1" in2="SourceAlpha" operator="arithmetic" k2="-1" k3="1" result="shadowInnerInner1"></feComposite>
            <feColorMatrix values="0 0 0 0 0   0 0 0 0 0   0 0 0 0 0  0 0 0 0.5 0" type="matrix" in="shadowInnerInner1"></feColorMatrix>
        </filter>
        <path d="M78.5690156,41.8368992 C78.5690156,43.273772 79.5727132,44.2497612 80.6210195,44.2497612 C82.9183716,44.2497612 84.4796788,38.746267 85.751029,36.767178 C86.2863343,35.8996321 86.4424651,35.8454105 86.9108572,35.1134187 C87.8476416,33.8120999 88.9851655,32.5921135 88.9851655,30.7756893 C88.9851655,30.260584 88.8067303,28.9050435 87.5799889,28.9050435 C86.5316826,28.9050435 86.0855948,29.3388165 85.751029,29.6370354 C83.5651988,31.8872325 78.5690156,39.9662534 78.5690156,41.8368992 Z" id="path-37"></path>
        <filter x="-50%" y="-50%" width="200%" height="200%" filterUnits="objectBoundingBox" id="filter-38">
            <feGaussianBlur stdDeviation="1.5" in="SourceAlpha" result="shadowBlurInner1"></feGaussianBlur>
            <feOffset dx="0" dy="1" in="shadowBlurInner1" result="shadowOffsetInner1"></feOffset>
            <feComposite in="shadowOffsetInner1" in2="SourceAlpha" operator="arithmetic" k2="-1" k3="1" result="shadowInnerInner1"></feComposite>
            <feColorMatrix values="0 0 0 0 0   0 0 0 0 0   0 0 0 0 0  0 0 0 0.5 0" type="matrix" in="shadowInnerInner1"></feColorMatrix>
        </filter>
        <path d="M52.8641862,15.183161 C52.8641862,16.6200339 53.8678837,17.596023 54.91619,17.596023 C57.2135421,17.596023 58.7748494,12.0925289 60.0461996,10.1134399 C60.5815049,9.24589398 60.7376356,9.19167236 61.2060278,8.45968053 C62.1428122,7.15836173 63.280336,5.93837535 63.280336,4.12195118 C63.280336,3.60684582 63.1019009,2.25130539 61.8751595,2.25130539 C60.8268532,2.25130539 60.3807654,2.68507833 60.0461996,2.98329722 C57.8603694,5.23349432 52.8641862,13.3125153 52.8641862,15.183161 Z" id="path-39"></path>
        <filter x="-50%" y="-50%" width="200%" height="200%" filterUnits="objectBoundingBox" id="filter-40">
            <feGaussianBlur stdDeviation="1.5" in="SourceAlpha" result="shadowBlurInner1"></feGaussianBlur>
            <feOffset dx="0" dy="1" in="shadowBlurInner1" result="shadowOffsetInner1"></feOffset>
            <feComposite in="shadowOffsetInner1" in2="SourceAlpha" operator="arithmetic" k2="-1" k3="1" result="shadowInnerInner1"></feComposite>
            <feColorMatrix values="0 0 0 0 0   0 0 0 0 0   0 0 0 0 0  0 0 0 0.5 0" type="matrix" in="shadowInnerInner1"></feColorMatrix>
        </filter>
        <path d="M50.3988163,115.568304 C50.3165085,121.400328 49.647214,130.500424 50.1263209,140.799719 C50.636113,151.758652 52.4097546,163.248181 52.4097546,167.082667 C52.4097546,170.762561 50.5932589,172.744042 48.6836096,172.744042 C44.9108877,172.744042 42.6752007,171.102243 42.4888934,166.120233 C42.3748498,162.294345 43.4916561,153.095998 43.3537985,141.625343 C43.2552738,133.427444 42.5227432,124.525804 42.1127589,118.299683 C39.4392074,124.76939 36.5102487,132.313334 35.2028702,135.260409 C33.2181966,139.805001 27.3138952,153.071201 25.2397636,155.298297 C24.4053105,155.967985 23.4870324,156.478305 22.7510997,156.465459 C20.673172,156.429189 19.3292177,154.03716 19.3843257,150.880029 C19.4330043,148.09123 21.3993086,144.599015 23.6805841,140.428045 C25.2904639,137.508592 27.2125596,134.06824 28.3499216,130.93 C31.1454545,123.36401 37.2911235,110.049838 42.1544059,101.548959 C42.9575952,80.4006092 45.0906323,37.1411976 46.2839012,29.9344778 C46.4236317,29.0286579 45.0948788,20.1779237 50.1585317,21.0646937 C55.2221847,21.9514637 52.418753,28.1473164 52.418753,31.3176862 C52.418753,34.5690822 51.2069903,71.4121213 50.6643567,96.6398373 C51.2857543,96.9259272 51.7720529,97.296121 51.9257336,97.6025594 C57.1293083,107.115032 60.5322694,118.069851 63.1191466,128.641981 C63.8865518,131.813469 64.6512015,135.142813 65.5917673,138.317324 C66.7782971,142.285651 68.9263951,145.744413 68.847407,150.269634 C68.8134238,152.216531 68.2922272,154.786543 65.5216569,154.738182 C61.8852833,154.674709 61.2616479,153.190047 60.0391757,148.800014 C57.2755685,138.190197 54.6007508,126.583938 50.3988163,115.568304 Z" id="path-41"></path>
        <filter x="-50%" y="-50%" width="200%" height="200%" filterUnits="objectBoundingBox" id="filter-42">
            <feGaussianBlur stdDeviation="1.5" in="SourceAlpha" result="shadowBlurInner1"></feGaussianBlur>
            <feOffset dx="0" dy="1" in="shadowBlurInner1" result="shadowOffsetInner1"></feOffset>
            <feComposite in="shadowOffsetInner1" in2="SourceAlpha" operator="arithmetic" k2="-1" k3="1" result="shadowInnerInner1"></feComposite>
            <feColorMatrix values="0 0 0 0 0   0 0 0 0 0   0 0 0 0 0  0 0 0 0.5 0" type="matrix" in="shadowInnerInner1"></feColorMatrix>
        </filter>
        <path d="M29.0139073,26.1444701 C29.0139073,27.5813429 30.0176048,28.557332 31.0659111,28.557332 C33.3632632,28.557332 34.9245704,23.0538379 36.1959206,21.0747489 C36.731226,20.207203 36.8873567,20.1529814 37.3557489,19.4209896 C38.2925332,18.1196708 39.4300571,16.8996844 39.4300571,15.0832602 C39.4300571,14.5681549 39.251622,13.2126144 38.0248805,13.2126144 C36.9765742,13.2126144 36.5304865,13.6463874 36.1959206,13.9446063 C34.0100905,16.1948034 29.0139073,24.2738243 29.0139073,26.1444701 Z" id="path-43"></path>
        <filter x="-50%" y="-50%" width="200%" height="200%" filterUnits="objectBoundingBox" id="filter-44">
            <feGaussianBlur stdDeviation="1.5" in="SourceAlpha" result="shadowBlurInner1"></feGaussianBlur>
            <feOffset dx="0" dy="1" in="shadowBlurInner1" result="shadowOffsetInner1"></feOffset>
            <feComposite in="shadowOffsetInner1" in2="SourceAlpha" operator="arithmetic" k2="-1" k3="1" result="shadowInnerInner1"></feComposite>
            <feColorMatrix values="0 0 0 0 0   0 0 0 0 0   0 0 0 0 0  0 0 0 0.5 0" type="matrix" in="shadowInnerInner1"></feColorMatrix>
        </filter>
        <path d="M78.5690156,41.8368992 C78.5690156,43.273772 79.5727132,44.2497612 80.6210195,44.2497612 C82.9183716,44.2497612 84.4796788,38.746267 85.751029,36.767178 C86.2863343,35.8996321 86.4424651,35.8454105 86.9108572,35.1134187 C87.8476416,33.8120999 88.9851655,32.5921135 88.9851655,30.7756893 C88.9851655,30.260584 88.8067303,28.9050435 87.5799889,28.9050435 C86.5316826,28.9050435 86.0855948,29.3388165 85.751029,29.6370354 C83.5651988,31.8872325 78.5690156,39.9662534 78.5690156,41.8368992 Z" id="path-45"></path>
        <filter x="-50%" y="-50%" width="200%" height="200%" filterUnits="objectBoundingBox" id="filter-46">
            <feGaussianBlur stdDeviation="1.5" in="SourceAlpha" result="shadowBlurInner1"></feGaussianBlur>
            <feOffset dx="0" dy="1" in="shadowBlurInner1" result="shadowOffsetInner1"></feOffset>
            <feComposite in="shadowOffsetInner1" in2="SourceAlpha" operator="arithmetic" k2="-1" k3="1" result="shadowInnerInner1"></feComposite>
            <feColorMatrix values="0 0 0 0 0   0 0 0 0 0   0 0 0 0 0  0 0 0 0.5 0" type="matrix" in="shadowInnerInner1"></feColorMatrix>
        </filter>
        <path d="M52.8641862,15.183161 C52.8641862,16.6200339 53.8678837,17.596023 54.91619,17.596023 C57.2135421,17.596023 58.7748494,12.0925289 60.0461996,10.1134399 C60.5815049,9.24589398 60.7376356,9.19167236 61.2060278,8.45968053 C62.1428122,7.15836173 63.280336,5.93837535 63.280336,4.12195118 C63.280336,3.60684582 63.1019009,2.25130539 61.8751595,2.25130539 C60.8268532,2.25130539 60.3807654,2.68507833 60.0461996,2.98329722 C57.8603694,5.23349432 52.8641862,13.3125153 52.8641862,15.183161 Z" id="path-47"></path>
        <filter x="-50%" y="-50%" width="200%" height="200%" filterUnits="objectBoundingBox" id="filter-48">
            <feGaussianBlur stdDeviation="1.5" in="SourceAlpha" result="shadowBlurInner1"></feGaussianBlur>
            <feOffset dx="0" dy="1" in="shadowBlurInner1" result="shadowOffsetInner1"></feOffset>
            <feComposite in="shadowOffsetInner1" in2="SourceAlpha" operator="arithmetic" k2="-1" k3="1" result="shadowInnerInner1"></feComposite>
            <feColorMatrix values="0 0 0 0 0   0 0 0 0 0   0 0 0 0 0  0 0 0 0.5 0" type="matrix" in="shadowInnerInner1"></feColorMatrix>
        </filter>
        <path d="M50.3988163,115.568304 C50.3165085,121.400328 49.647214,130.500424 50.1263209,140.799719 C50.636113,151.758652 52.4097546,163.248181 52.4097546,167.082667 C52.4097546,170.762561 50.5932589,172.744042 48.6836096,172.744042 C44.9108877,172.744042 42.6752007,171.102243 42.4888934,166.120233 C42.3748498,162.294345 43.4916561,153.095998 43.3537985,141.625343 C43.2552738,133.427444 42.5227432,124.525804 42.1127589,118.299683 C39.4392074,124.76939 36.5102487,132.313334 35.2028702,135.260409 C33.2181966,139.805001 27.3138952,153.071201 25.2397636,155.298297 C24.4053105,155.967985 23.4870324,156.478305 22.7510997,156.465459 C20.673172,156.429189 19.3292177,154.03716 19.3843257,150.880029 C19.4330043,148.09123 21.3993086,144.599015 23.6805841,140.428045 C25.2904639,137.508592 27.2125596,134.06824 28.3499216,130.93 C31.1454545,123.36401 37.2911235,110.049838 42.1544059,101.548959 C42.9575952,80.4006092 45.0906323,37.1411976 46.2839012,29.9344778 C46.4236317,29.0286579 45.0948788,20.1779237 50.1585317,21.0646937 C55.2221847,21.9514637 52.418753,28.1473164 52.418753,31.3176862 C52.418753,34.5690822 51.2069903,71.4121213 50.6643567,96.6398373 C51.2857543,96.9259272 51.7720529,97.296121 51.9257336,97.6025594 C57.1293083,107.115032 60.5322694,118.069851 63.1191466,128.641981 C63.8865518,131.813469 64.6512015,135.142813 65.5917673,138.317324 C66.7782971,142.285651 68.9263951,145.744413 68.847407,150.269634 C68.8134238,152.216531 68.2922272,154.786543 65.5216569,154.738182 C61.8852833,154.674709 61.2616479,153.190047 60.0391757,148.800014 C57.2755685,138.190197 54.6007508,126.583938 50.3988163,115.568304 Z" id="path-49"></path>
        <filter x="-50%" y="-50%" width="200%" height="200%" filterUnits="objectBoundingBox" id="filter-50">
            <feGaussianBlur stdDeviation="1.5" in="SourceAlpha" result="shadowBlurInner1"></feGaussianBlur>
            <feOffset dx="0" dy="1" in="shadowBlurInner1" result="shadowOffsetInner1"></feOffset>
            <feComposite in="shadowOffsetInner1" in2="SourceAlpha" operator="arithmetic" k2="-1" k3="1" result="shadowInnerInner1"></feComposite>
            <feColorMatrix values="0 0 0 0 0   0 0 0 0 0   0 0 0 0 0  0 0 0 0.5 0" type="matrix" in="shadowInnerInner1"></feColorMatrix>
        </filter>
        <path d="M29.0139073,26.1444701 C29.0139073,27.5813429 30.0176048,28.557332 31.0659111,28.557332 C33.3632632,28.557332 34.9245704,23.0538379 36.1959206,21.0747489 C36.731226,20.207203 36.8873567,20.1529814 37.3557489,19.4209896 C38.2925332,18.1196708 39.4300571,16.8996844 39.4300571,15.0832602 C39.4300571,14.5681549 39.251622,13.2126144 38.0248805,13.2126144 C36.9765742,13.2126144 36.5304865,13.6463874 36.1959206,13.9446063 C34.0100905,16.1948034 29.0139073,24.2738243 29.0139073,26.1444701 Z" id="path-51"></path>
        <filter x="-50%" y="-50%" width="200%" height="200%" filterUnits="objectBoundingBox" id="filter-52">
            <feGaussianBlur stdDeviation="1.5" in="SourceAlpha" result="shadowBlurInner1"></feGaussianBlur>
            <feOffset dx="0" dy="1" in="shadowBlurInner1" result="shadowOffsetInner1"></feOffset>
            <feComposite in="shadowOffsetInner1" in2="SourceAlpha" operator="arithmetic" k2="-1" k3="1" result="shadowInnerInner1"></feComposite>
            <feColorMatrix values="0 0 0 0 0   0 0 0 0 0   0 0 0 0 0  0 0 0 0.5 0" type="matrix" in="shadowInnerInner1"></feColorMatrix>
        </filter>
        <path d="M78.5690156,41.8368992 C78.5690156,43.273772 79.5727132,44.2497612 80.6210195,44.2497612 C82.9183716,44.2497612 84.4796788,38.746267 85.751029,36.767178 C86.2863343,35.8996321 86.4424651,35.8454105 86.9108572,35.1134187 C87.8476416,33.8120999 88.9851655,32.5921135 88.9851655,30.7756893 C88.9851655,30.260584 88.8067303,28.9050435 87.5799889,28.9050435 C86.5316826,28.9050435 86.0855948,29.3388165 85.751029,29.6370354 C83.5651988,31.8872325 78.5690156,39.9662534 78.5690156,41.8368992 Z" id="path-53"></path>
        <filter x="-50%" y="-50%" width="200%" height="200%" filterUnits="objectBoundingBox" id="filter-54">
            <feGaussianBlur stdDeviation="1.5" in="SourceAlpha" result="shadowBlurInner1"></feGaussianBlur>
            <feOffset dx="0" dy="1" in="shadowBlurInner1" result="shadowOffsetInner1"></feOffset>
            <feComposite in="shadowOffsetInner1" in2="SourceAlpha" operator="arithmetic" k2="-1" k3="1" result="shadowInnerInner1"></feComposite>
            <feColorMatrix values="0 0 0 0 0   0 0 0 0 0   0 0 0 0 0  0 0 0 0.5 0" type="matrix" in="shadowInnerInner1"></feColorMatrix>
        </filter>
        <path d="M52.8641862,15.183161 C52.8641862,16.6200339 53.8678837,17.596023 54.91619,17.596023 C57.2135421,17.596023 58.7748494,12.0925289 60.0461996,10.1134399 C60.5815049,9.24589398 60.7376356,9.19167236 61.2060278,8.45968053 C62.1428122,7.15836173 63.280336,5.93837535 63.280336,4.12195118 C63.280336,3.60684582 63.1019009,2.25130539 61.8751595,2.25130539 C60.8268532,2.25130539 60.3807654,2.68507833 60.0461996,2.98329722 C57.8603694,5.23349432 52.8641862,13.3125153 52.8641862,15.183161 Z" id="path-55"></path>
        <filter x="-50%" y="-50%" width="200%" height="200%" filterUnits="objectBoundingBox" id="filter-56">
            <feGaussianBlur stdDeviation="1.5" in="SourceAlpha" result="shadowBlurInner1"></feGaussianBlur>
            <feOffset dx="0" dy="1" in="shadowBlurInner1" result="shadowOffsetInner1"></feOffset>
            <feComposite in="shadowOffsetInner1" in2="SourceAlpha" operator="arithmetic" k2="-1" k3="1" result="shadowInnerInner1"></feComposite>
            <feColorMatrix values="0 0 0 0 0   0 0 0 0 0   0 0 0 0 0  0 0 0 0.5 0" type="matrix" in="shadowInnerInner1"></feColorMatrix>
        </filter>
        <path d="M50.3988163,115.568304 C50.3165085,121.400328 49.647214,130.500424 50.1263209,140.799719 C50.636113,151.758652 52.4097546,163.248181 52.4097546,167.082667 C52.4097546,170.762561 50.5932589,172.744042 48.6836096,172.744042 C44.9108877,172.744042 42.6752007,171.102243 42.4888934,166.120233 C42.3748498,162.294345 43.4916561,153.095998 43.3537985,141.625343 C43.2552738,133.427444 42.5227432,124.525804 42.1127589,118.299683 C39.4392074,124.76939 36.5102487,132.313334 35.2028702,135.260409 C33.2181966,139.805001 27.3138952,153.071201 25.2397636,155.298297 C24.4053105,155.967985 23.4870324,156.478305 22.7510997,156.465459 C20.673172,156.429189 19.3292177,154.03716 19.3843257,150.880029 C19.4330043,148.09123 21.3993086,144.599015 23.6805841,140.428045 C25.2904639,137.508592 27.2125596,134.06824 28.3499216,130.93 C31.1454545,123.36401 37.2911235,110.049838 42.1544059,101.548959 C42.9575952,80.4006092 45.0906323,37.1411976 46.2839012,29.9344778 C46.4236317,29.0286579 45.0948788,20.1779237 50.1585317,21.0646937 C55.2221847,21.9514637 52.418753,28.1473164 52.418753,31.3176862 C52.418753,34.5690822 51.2069903,71.4121213 50.6643567,96.6398373 C51.2857543,96.9259272 51.7720529,97.296121 51.9257336,97.6025594 C57.1293083,107.115032 60.5322694,118.069851 63.1191466,128.641981 C63.8865518,131.813469 64.6512015,135.142813 65.5917673,138.317324 C66.7782971,142.285651 68.9263951,145.744413 68.847407,150.269634 C68.8134238,152.216531 68.2922272,154.786543 65.5216569,154.738182 C61.8852833,154.674709 61.2616479,153.190047 60.0391757,148.800014 C57.2755685,138.190197 54.6007508,126.583938 50.3988163,115.568304 Z" id="path-57"></path>
        <filter x="-50%" y="-50%" width="200%" height="200%" filterUnits="objectBoundingBox" id="filter-58">
            <feGaussianBlur stdDeviation="1.5" in="SourceAlpha" result="shadowBlurInner1"></feGaussianBlur>
            <feOffset dx="0" dy="1" in="shadowBlurInner1" result="shadowOffsetInner1"></feOffset>
            <feComposite in="shadowOffsetInner1" in2="SourceAlpha" operator="arithmetic" k2="-1" k3="1" result="shadowInnerInner1"></feComposite>
            <feColorMatrix values="0 0 0 0 0   0 0 0 0 0   0 0 0 0 0  0 0 0 0.5 0" type="matrix" in="shadowInnerInner1"></feColorMatrix>
        </filter>
        <path d="M29.0139073,26.1444701 C29.0139073,27.5813429 30.0176048,28.557332 31.0659111,28.557332 C33.3632632,28.557332 34.9245704,23.0538379 36.1959206,21.0747489 C36.731226,20.207203 36.8873567,20.1529814 37.3557489,19.4209896 C38.2925332,18.1196708 39.4300571,16.8996844 39.4300571,15.0832602 C39.4300571,14.5681549 39.251622,13.2126144 38.0248805,13.2126144 C36.9765742,13.2126144 36.5304865,13.6463874 36.1959206,13.9446063 C34.0100905,16.1948034 29.0139073,24.2738243 29.0139073,26.1444701 Z" id="path-59"></path>
        <filter x="-50%" y="-50%" width="200%" height="200%" filterUnits="objectBoundingBox" id="filter-60">
            <feGaussianBlur stdDeviation="1.5" in="SourceAlpha" result="shadowBlurInner1"></feGaussianBlur>
            <feOffset dx="0" dy="1" in="shadowBlurInner1" result="shadowOffsetInner1"></feOffset>
            <feComposite in="shadowOffsetInner1" in2="SourceAlpha" operator="arithmetic" k2="-1" k3="1" result="shadowInnerInner1"></feComposite>
            <feColorMatrix values="0 0 0 0 0   0 0 0 0 0   0 0 0 0 0  0 0 0 0.5 0" type="matrix" in="shadowInnerInner1"></feColorMatrix>
        </filter>
        <path d="M78.5690156,41.8368992 C78.5690156,43.273772 79.5727132,44.2497612 80.6210195,44.2497612 C82.9183716,44.2497612 84.4796788,38.746267 85.751029,36.767178 C86.2863343,35.8996321 86.4424651,35.8454105 86.9108572,35.1134187 C87.8476416,33.8120999 88.9851655,32.5921135 88.9851655,30.7756893 C88.9851655,30.260584 88.8067303,28.9050435 87.5799889,28.9050435 C86.5316826,28.9050435 86.0855948,29.3388165 85.751029,29.6370354 C83.5651988,31.8872325 78.5690156,39.9662534 78.5690156,41.8368992 Z" id="path-61"></path>
        <filter x="-50%" y="-50%" width="200%" height="200%" filterUnits="objectBoundingBox" id="filter-62">
            <feGaussianBlur stdDeviation="1.5" in="SourceAlpha" result="shadowBlurInner1"></feGaussianBlur>
            <feOffset dx="0" dy="1" in="shadowBlurInner1" result="shadowOffsetInner1"></feOffset>
            <feComposite in="shadowOffsetInner1" in2="SourceAlpha" operator="arithmetic" k2="-1" k3="1" result="shadowInnerInner1"></feComposite>
            <feColorMatrix values="0 0 0 0 0   0 0 0 0 0   0 0 0 0 0  0 0 0 0.5 0" type="matrix" in="shadowInnerInner1"></feColorMatrix>
        </filter>
        <path d="M52.8641862,15.183161 C52.8641862,16.6200339 53.8678837,17.596023 54.91619,17.596023 C57.2135421,17.596023 58.7748494,12.0925289 60.0461996,10.1134399 C60.5815049,9.24589398 60.7376356,9.19167236 61.2060278,8.45968053 C62.1428122,7.15836173 63.280336,5.93837535 63.280336,4.12195118 C63.280336,3.60684582 63.1019009,2.25130539 61.8751595,2.25130539 C60.8268532,2.25130539 60.3807654,2.68507833 60.0461996,2.98329722 C57.8603694,5.23349432 52.8641862,13.3125153 52.8641862,15.183161 Z" id="path-63"></path>
        <filter x="-50%" y="-50%" width="200%" height="200%" filterUnits="objectBoundingBox" id="filter-64">
            <feGaussianBlur stdDeviation="1.5" in="SourceAlpha" result="shadowBlurInner1"></feGaussianBlur>
            <feOffset dx="0" dy="1" in="shadowBlurInner1" result="shadowOffsetInner1"></feOffset>
            <feComposite in="shadowOffsetInner1" in2="SourceAlpha" operator="arithmetic" k2="-1" k3="1" result="shadowInnerInner1"></feComposite>
            <feColorMatrix values="0 0 0 0 0   0 0 0 0 0   0 0 0 0 0  0 0 0 0.5 0" type="matrix" in="shadowInnerInner1"></feColorMatrix>
        </filter>
        <path d="M50.3988163,115.568304 C50.3165085,121.400328 49.647214,130.500424 50.1263209,140.799719 C50.636113,151.758652 52.4097546,163.248181 52.4097546,167.082667 C52.4097546,170.762561 50.5932589,172.744042 48.6836096,172.744042 C44.9108877,172.744042 42.6752007,171.102243 42.4888934,166.120233 C42.3748498,162.294345 43.4916561,153.095998 43.3537985,141.625343 C43.2552738,133.427444 42.5227432,124.525804 42.1127589,118.299683 C39.4392074,124.76939 36.5102487,132.313334 35.2028702,135.260409 C33.2181966,139.805001 27.3138952,153.071201 25.2397636,155.298297 C24.4053105,155.967985 23.4870324,156.478305 22.7510997,156.465459 C20.673172,156.429189 19.3292177,154.03716 19.3843257,150.880029 C19.4330043,148.09123 21.3993086,144.599015 23.6805841,140.428045 C25.2904639,137.508592 27.2125596,134.06824 28.3499216,130.93 C31.1454545,123.36401 37.2911235,110.049838 42.1544059,101.548959 C42.9575952,80.4006092 45.0906323,37.1411976 46.2839012,29.9344778 C46.4236317,29.0286579 45.0948788,20.1779237 50.1585317,21.0646937 C55.2221847,21.9514637 52.418753,28.1473164 52.418753,31.3176862 C52.418753,34.5690822 51.2069903,71.4121213 50.6643567,96.6398373 C51.2857543,96.9259272 51.7720529,97.296121 51.9257336,97.6025594 C57.1293083,107.115032 60.5322694,118.069851 63.1191466,128.641981 C63.8865518,131.813469 64.6512015,135.142813 65.5917673,138.317324 C66.7782971,142.285651 68.9263951,145.744413 68.847407,150.269634 C68.8134238,152.216531 68.2922272,154.786543 65.5216569,154.738182 C61.8852833,154.674709 61.2616479,153.190047 60.0391757,148.800014 C57.2755685,138.190197 54.6007508,126.583938 50.3988163,115.568304 Z" id="path-65"></path>
        <filter x="-50%" y="-50%" width="200%" height="200%" filterUnits="objectBoundingBox" id="filter-66">
            <feGaussianBlur stdDeviation="1.5" in="SourceAlpha" result="shadowBlurInner1"></feGaussianBlur>
            <feOffset dx="0" dy="1" in="shadowBlurInner1" result="shadowOffsetInner1"></feOffset>
            <feComposite in="shadowOffsetInner1" in2="SourceAlpha" operator="arithmetic" k2="-1" k3="1" result="shadowInnerInner1"></feComposite>
            <feColorMatrix values="0 0 0 0 0   0 0 0 0 0   0 0 0 0 0  0 0 0 0.5 0" type="matrix" in="shadowInnerInner1"></feColorMatrix>
        </filter>
        <path d="M29.0139073,26.1444701 C29.0139073,27.5813429 30.0176048,28.557332 31.0659111,28.557332 C33.3632632,28.557332 34.9245704,23.0538379 36.1959206,21.0747489 C36.731226,20.207203 36.8873567,20.1529814 37.3557489,19.4209896 C38.2925332,18.1196708 39.4300571,16.8996844 39.4300571,15.0832602 C39.4300571,14.5681549 39.251622,13.2126144 38.0248805,13.2126144 C36.9765742,13.2126144 36.5304865,13.6463874 36.1959206,13.9446063 C34.0100905,16.1948034 29.0139073,24.2738243 29.0139073,26.1444701 Z" id="path-67"></path>
        <filter x="-50%" y="-50%" width="200%" height="200%" filterUnits="objectBoundingBox" id="filter-68">
            <feGaussianBlur stdDeviation="1.5" in="SourceAlpha" result="shadowBlurInner1"></feGaussianBlur>
            <feOffset dx="0" dy="1" in="shadowBlurInner1" result="shadowOffsetInner1"></feOffset>
            <feComposite in="shadowOffsetInner1" in2="SourceAlpha" operator="arithmetic" k2="-1" k3="1" result="shadowInnerInner1"></feComposite>
            <feColorMatrix values="0 0 0 0 0   0 0 0 0 0   0 0 0 0 0  0 0 0 0.5 0" type="matrix" in="shadowInnerInner1"></feColorMatrix>
        </filter>
        <path d="M78.5690156,41.8368992 C78.5690156,43.273772 79.5727132,44.2497612 80.6210195,44.2497612 C82.9183716,44.2497612 84.4796788,38.746267 85.751029,36.767178 C86.2863343,35.8996321 86.4424651,35.8454105 86.9108572,35.1134187 C87.8476416,33.8120999 88.9851655,32.5921135 88.9851655,30.7756893 C88.9851655,30.260584 88.8067303,28.9050435 87.5799889,28.9050435 C86.5316826,28.9050435 86.0855948,29.3388165 85.751029,29.6370354 C83.5651988,31.8872325 78.5690156,39.9662534 78.5690156,41.8368992 Z" id="path-69"></path>
        <filter x="-50%" y="-50%" width="200%" height="200%" filterUnits="objectBoundingBox" id="filter-70">
            <feGaussianBlur stdDeviation="1.5" in="SourceAlpha" result="shadowBlurInner1"></feGaussianBlur>
            <feOffset dx="0" dy="1" in="shadowBlurInner1" result="shadowOffsetInner1"></feOffset>
            <feComposite in="shadowOffsetInner1" in2="SourceAlpha" operator="arithmetic" k2="-1" k3="1" result="shadowInnerInner1"></feComposite>
            <feColorMatrix values="0 0 0 0 0   0 0 0 0 0   0 0 0 0 0  0 0 0 0.5 0" type="matrix" in="shadowInnerInner1"></feColorMatrix>
        </filter>
        <path d="M52.8641862,15.183161 C52.8641862,16.6200339 53.8678837,17.596023 54.91619,17.596023 C57.2135421,17.596023 58.7748494,12.0925289 60.0461996,10.1134399 C60.5815049,9.24589398 60.7376356,9.19167236 61.2060278,8.45968053 C62.1428122,7.15836173 63.280336,5.93837535 63.280336,4.12195118 C63.280336,3.60684582 63.1019009,2.25130539 61.8751595,2.25130539 C60.8268532,2.25130539 60.3807654,2.68507833 60.0461996,2.98329722 C57.8603694,5.23349432 52.8641862,13.3125153 52.8641862,15.183161 Z" id="path-71"></path>
        <filter x="-50%" y="-50%" width="200%" height="200%" filterUnits="objectBoundingBox" id="filter-72">
            <feGaussianBlur stdDeviation="1.5" in="SourceAlpha" result="shadowBlurInner1"></feGaussianBlur>
            <feOffset dx="0" dy="1" in="shadowBlurInner1" result="shadowOffsetInner1"></feOffset>
            <feComposite in="shadowOffsetInner1" in2="SourceAlpha" operator="arithmetic" k2="-1" k3="1" result="shadowInnerInner1"></feComposite>
            <feColorMatrix values="0 0 0 0 0   0 0 0 0 0   0 0 0 0 0  0 0 0 0.5 0" type="matrix" in="shadowInnerInner1"></feColorMatrix>
        </filter>
        <path d="M50.3988163,115.568304 C50.3165085,121.400328 49.647214,130.500424 50.1263209,140.799719 C50.636113,151.758652 52.4097546,163.248181 52.4097546,167.082667 C52.4097546,170.762561 50.5932589,172.744042 48.6836096,172.744042 C44.9108877,172.744042 42.6752007,171.102243 42.4888934,166.120233 C42.3748498,162.294345 43.4916561,153.095998 43.3537985,141.625343 C43.2552738,133.427444 42.5227432,124.525804 42.1127589,118.299683 C39.4392074,124.76939 36.5102487,132.313334 35.2028702,135.260409 C33.2181966,139.805001 27.3138952,153.071201 25.2397636,155.298297 C24.4053105,155.967985 23.4870324,156.478305 22.7510997,156.465459 C20.673172,156.429189 19.3292177,154.03716 19.3843257,150.880029 C19.4330043,148.09123 21.3993086,144.599015 23.6805841,140.428045 C25.2904639,137.508592 27.2125596,134.06824 28.3499216,130.93 C31.1454545,123.36401 37.2911235,110.049838 42.1544059,101.548959 C42.9575952,80.4006092 45.0906323,37.1411976 46.2839012,29.9344778 C46.4236317,29.0286579 45.0948788,20.1779237 50.1585317,21.0646937 C55.2221847,21.9514637 52.418753,28.1473164 52.418753,31.3176862 C52.418753,34.5690822 51.2069903,71.4121213 50.6643567,96.6398373 C51.2857543,96.9259272 51.7720529,97.296121 51.9257336,97.6025594 C57.1293083,107.115032 60.5322694,118.069851 63.1191466,128.641981 C63.8865518,131.813469 64.6512015,135.142813 65.5917673,138.317324 C66.7782971,142.285651 68.9263951,145.744413 68.847407,150.269634 C68.8134238,152.216531 68.2922272,154.786543 65.5216569,154.738182 C61.8852833,154.674709 61.2616479,153.190047 60.0391757,148.800014 C57.2755685,138.190197 54.6007508,126.583938 50.3988163,115.568304 Z" id="path-73"></path>
        <filter x="-50%" y="-50%" width="200%" height="200%" filterUnits="objectBoundingBox" id="filter-74">
            <feGaussianBlur stdDeviation="1.5" in="SourceAlpha" result="shadowBlurInner1"></feGaussianBlur>
            <feOffset dx="0" dy="1" in="shadowBlurInner1" result="shadowOffsetInner1"></feOffset>
            <feComposite in="shadowOffsetInner1" in2="SourceAlpha" operator="arithmetic" k2="-1" k3="1" result="shadowInnerInner1"></feComposite>
            <feColorMatrix values="0 0 0 0 0   0 0 0 0 0   0 0 0 0 0  0 0 0 0.5 0" type="matrix" in="shadowInnerInner1"></feColorMatrix>
        </filter>
        <path d="M29.0139073,26.1444701 C29.0139073,27.5813429 30.0176048,28.557332 31.0659111,28.557332 C33.3632632,28.557332 34.9245704,23.0538379 36.1959206,21.0747489 C36.731226,20.207203 36.8873567,20.1529814 37.3557489,19.4209896 C38.2925332,18.1196708 39.4300571,16.8996844 39.4300571,15.0832602 C39.4300571,14.5681549 39.251622,13.2126144 38.0248805,13.2126144 C36.9765742,13.2126144 36.5304865,13.6463874 36.1959206,13.9446063 C34.0100905,16.1948034 29.0139073,24.2738243 29.0139073,26.1444701 Z" id="path-75"></path>
        <filter x="-50%" y="-50%" width="200%" height="200%" filterUnits="objectBoundingBox" id="filter-76">
            <feGaussianBlur stdDeviation="1.5" in="SourceAlpha" result="shadowBlurInner1"></feGaussianBlur>
            <feOffset dx="0" dy="1" in="shadowBlurInner1" result="shadowOffsetInner1"></feOffset>
            <feComposite in="shadowOffsetInner1" in2="SourceAlpha" operator="arithmetic" k2="-1" k3="1" result="shadowInnerInner1"></feComposite>
            <feColorMatrix values="0 0 0 0 0   0 0 0 0 0   0 0 0 0 0  0 0 0 0.5 0" type="matrix" in="shadowInnerInner1"></feColorMatrix>
        </filter>
        <path d="M78.5690156,41.8368992 C78.5690156,43.273772 79.5727132,44.2497612 80.6210195,44.2497612 C82.9183716,44.2497612 84.4796788,38.746267 85.751029,36.767178 C86.2863343,35.8996321 86.4424651,35.8454105 86.9108572,35.1134187 C87.8476416,33.8120999 88.9851655,32.5921135 88.9851655,30.7756893 C88.9851655,30.260584 88.8067303,28.9050435 87.5799889,28.9050435 C86.5316826,28.9050435 86.0855948,29.3388165 85.751029,29.6370354 C83.5651988,31.8872325 78.5690156,39.9662534 78.5690156,41.8368992 Z" id="path-77"></path>
        <filter x="-50%" y="-50%" width="200%" height="200%" filterUnits="objectBoundingBox" id="filter-78">
            <feGaussianBlur stdDeviation="1.5" in="SourceAlpha" result="shadowBlurInner1"></feGaussianBlur>
            <feOffset dx="0" dy="1" in="shadowBlurInner1" result="shadowOffsetInner1"></feOffset>
            <feComposite in="shadowOffsetInner1" in2="SourceAlpha" operator="arithmetic" k2="-1" k3="1" result="shadowInnerInner1"></feComposite>
            <feColorMatrix values="0 0 0 0 0   0 0 0 0 0   0 0 0 0 0  0 0 0 0.5 0" type="matrix" in="shadowInnerInner1"></feColorMatrix>
        </filter>
        <path d="M52.8641862,15.183161 C52.8641862,16.6200339 53.8678837,17.596023 54.91619,17.596023 C57.2135421,17.596023 58.7748494,12.0925289 60.0461996,10.1134399 C60.5815049,9.24589398 60.7376356,9.19167236 61.2060278,8.45968053 C62.1428122,7.15836173 63.280336,5.93837535 63.280336,4.12195118 C63.280336,3.60684582 63.1019009,2.25130539 61.8751595,2.25130539 C60.8268532,2.25130539 60.3807654,2.68507833 60.0461996,2.98329722 C57.8603694,5.23349432 52.8641862,13.3125153 52.8641862,15.183161 Z" id="path-79"></path>
        <filter x="-50%" y="-50%" width="200%" height="200%" filterUnits="objectBoundingBox" id="filter-80">
            <feGaussianBlur stdDeviation="1.5" in="SourceAlpha" result="shadowBlurInner1"></feGaussianBlur>
            <feOffset dx="0" dy="1" in="shadowBlurInner1" result="shadowOffsetInner1"></feOffset>
            <feComposite in="shadowOffsetInner1" in2="SourceAlpha" operator="arithmetic" k2="-1" k3="1" result="shadowInnerInner1"></feComposite>
            <feColorMatrix values="0 0 0 0 0   0 0 0 0 0   0 0 0 0 0  0 0 0 0.5 0" type="matrix" in="shadowInnerInner1"></feColorMatrix>
        </filter>
        <path d="M50.3988163,115.568304 C50.3165085,121.400328 49.647214,130.500424 50.1263209,140.799719 C50.636113,151.758652 52.4097546,163.248181 52.4097546,167.082667 C52.4097546,170.762561 50.5932589,172.744042 48.6836096,172.744042 C44.9108877,172.744042 42.6752007,171.102243 42.4888934,166.120233 C42.3748498,162.294345 43.4916561,153.095998 43.3537985,141.625343 C43.2552738,133.427444 42.5227432,124.525804 42.1127589,118.299683 C39.4392074,124.76939 36.5102487,132.313334 35.2028702,135.260409 C33.2181966,139.805001 27.3138952,153.071201 25.2397636,155.298297 C24.4053105,155.967985 23.4870324,156.478305 22.7510997,156.465459 C20.673172,156.429189 19.3292177,154.03716 19.3843257,150.880029 C19.4330043,148.09123 21.3993086,144.599015 23.6805841,140.428045 C25.2904639,137.508592 27.2125596,134.06824 28.3499216,130.93 C31.1454545,123.36401 37.2911235,110.049838 42.1544059,101.548959 C42.9575952,80.4006092 45.0906323,37.1411976 46.2839012,29.9344778 C46.4236317,29.0286579 45.0948788,20.1779237 50.1585317,21.0646937 C55.2221847,21.9514637 52.418753,28.1473164 52.418753,31.3176862 C52.418753,34.5690822 51.2069903,71.4121213 50.6643567,96.6398373 C51.2857543,96.9259272 51.7720529,97.296121 51.9257336,97.6025594 C57.1293083,107.115032 60.5322694,118.069851 63.1191466,128.641981 C63.8865518,131.813469 64.6512015,135.142813 65.5917673,138.317324 C66.7782971,142.285651 68.9263951,145.744413 68.847407,150.269634 C68.8134238,152.216531 68.2922272,154.786543 65.5216569,154.738182 C61.8852833,154.674709 61.2616479,153.190047 60.0391757,148.800014 C57.2755685,138.190197 54.6007508,126.583938 50.3988163,115.568304 Z" id="path-81"></path>
        <filter x="-50%" y="-50%" width="200%" height="200%" filterUnits="objectBoundingBox" id="filter-82">
            <feGaussianBlur stdDeviation="1.5" in="SourceAlpha" result="shadowBlurInner1"></feGaussianBlur>
            <feOffset dx="0" dy="1" in="shadowBlurInner1" result="shadowOffsetInner1"></feOffset>
            <feComposite in="shadowOffsetInner1" in2="SourceAlpha" operator="arithmetic" k2="-1" k3="1" result="shadowInnerInner1"></feComposite>
            <feColorMatrix values="0 0 0 0 0   0 0 0 0 0   0 0 0 0 0  0 0 0 0.5 0" type="matrix" in="shadowInnerInner1"></feColorMatrix>
        </filter>
        <path d="M29.0139073,26.1444701 C29.0139073,27.5813429 30.0176048,28.557332 31.0659111,28.557332 C33.3632632,28.557332 34.9245704,23.0538379 36.1959206,21.0747489 C36.731226,20.207203 36.8873567,20.1529814 37.3557489,19.4209896 C38.2925332,18.1196708 39.4300571,16.8996844 39.4300571,15.0832602 C39.4300571,14.5681549 39.251622,13.2126144 38.0248805,13.2126144 C36.9765742,13.2126144 36.5304865,13.6463874 36.1959206,13.9446063 C34.0100905,16.1948034 29.0139073,24.2738243 29.0139073,26.1444701 Z" id="path-83"></path>
        <filter x="-50%" y="-50%" width="200%" height="200%" filterUnits="objectBoundingBox" id="filter-84">
            <feGaussianBlur stdDeviation="1.5" in="SourceAlpha" result="shadowBlurInner1"></feGaussianBlur>
            <feOffset dx="0" dy="1" in="shadowBlurInner1" result="shadowOffsetInner1"></feOffset>
            <feComposite in="shadowOffsetInner1" in2="SourceAlpha" operator="arithmetic" k2="-1" k3="1" result="shadowInnerInner1"></feComposite>
            <feColorMatrix values="0 0 0 0 0   0 0 0 0 0   0 0 0 0 0  0 0 0 0.5 0" type="matrix" in="shadowInnerInner1"></feColorMatrix>
        </filter>
        <path d="M78.5690156,41.8368992 C78.5690156,43.273772 79.5727132,44.2497612 80.6210195,44.2497612 C82.9183716,44.2497612 84.4796788,38.746267 85.751029,36.767178 C86.2863343,35.8996321 86.4424651,35.8454105 86.9108572,35.1134187 C87.8476416,33.8120999 88.9851655,32.5921135 88.9851655,30.7756893 C88.9851655,30.260584 88.8067303,28.9050435 87.5799889,28.9050435 C86.5316826,28.9050435 86.0855948,29.3388165 85.751029,29.6370354 C83.5651988,31.8872325 78.5690156,39.9662534 78.5690156,41.8368992 Z" id="path-85"></path>
        <filter x="-50%" y="-50%" width="200%" height="200%" filterUnits="objectBoundingBox" id="filter-86">
            <feGaussianBlur stdDeviation="1.5" in="SourceAlpha" result="shadowBlurInner1"></feGaussianBlur>
            <feOffset dx="0" dy="1" in="shadowBlurInner1" result="shadowOffsetInner1"></feOffset>
            <feComposite in="shadowOffsetInner1" in2="SourceAlpha" operator="arithmetic" k2="-1" k3="1" result="shadowInnerInner1"></feComposite>
            <feColorMatrix values="0 0 0 0 0   0 0 0 0 0   0 0 0 0 0  0 0 0 0.5 0" type="matrix" in="shadowInnerInner1"></feColorMatrix>
        </filter>
        <path d="M52.8641862,15.183161 C52.8641862,16.6200339 53.8678837,17.596023 54.91619,17.596023 C57.2135421,17.596023 58.7748494,12.0925289 60.0461996,10.1134399 C60.5815049,9.24589398 60.7376356,9.19167236 61.2060278,8.45968053 C62.1428122,7.15836173 63.280336,5.93837535 63.280336,4.12195118 C63.280336,3.60684582 63.1019009,2.25130539 61.8751595,2.25130539 C60.8268532,2.25130539 60.3807654,2.68507833 60.0461996,2.98329722 C57.8603694,5.23349432 52.8641862,13.3125153 52.8641862,15.183161 Z" id="path-87"></path>
        <filter x="-50%" y="-50%" width="200%" height="200%" filterUnits="objectBoundingBox" id="filter-88">
            <feGaussianBlur stdDeviation="1.5" in="SourceAlpha" result="shadowBlurInner1"></feGaussianBlur>
            <feOffset dx="0" dy="1" in="shadowBlurInner1" result="shadowOffsetInner1"></feOffset>
            <feComposite in="shadowOffsetInner1" in2="SourceAlpha" operator="arithmetic" k2="-1" k3="1" result="shadowInnerInner1"></feComposite>
            <feColorMatrix values="0 0 0 0 0   0 0 0 0 0   0 0 0 0 0  0 0 0 0.5 0" type="matrix" in="shadowInnerInner1"></feColorMatrix>
        </filter>
    </defs>
    <g id="Page-1" stroke="none" stroke-width="1" fill="none" fill-rule="evenodd">
        <g id="Desktop-HD-Copy-6" transform="translate(-111.000000, -2020.000000)">
            <g id="Group-4" transform="translate(43.000000, 2004.000000)">
                <g id="Group-3">
                    <g id="Group-2" transform="translate(303.820380, 501.618071) rotate(123.000000) translate(-303.820380, -501.618071) translate(256.820380, 413.118071)">
                        <g id="Combined-Shape" transform="translate(44.116109, 96.873193) rotate(195.000000) translate(-44.116109, -96.873193) ">
                            <use fill="#F23661" fill-rule="evenodd" xlink:href="#path-1"></use>
                            <use fill="black" fill-opacity="1" filter="url(#filter-2)" xlink:href="#path-1"></use>
                        </g>
                        <g id="," transform="translate(34.221982, 20.884973) scale(-1, 1) rotate(-22.000000) translate(-34.221982, -20.884973) ">
                            <use fill="#F23661" fill-rule="evenodd" xlink:href="#path-3"></use>
                            <use fill="black" fill-opacity="1" filter="url(#filter-4)" xlink:href="#path-3"></use>
                        </g>
                        <g id="," transform="translate(83.777091, 36.577402) scale(-1, 1) rotate(-60.000000) translate(-83.777091, -36.577402) ">
                            <use fill="#F23661" fill-rule="evenodd" xlink:href="#path-5"></use>
                            <use fill="black" fill-opacity="1" filter="url(#filter-6)" xlink:href="#path-5"></use>
                        </g>
                        <g id="," transform="translate(58.072261, 9.923664) scale(-1, 1) rotate(-32.000000) translate(-58.072261, -9.923664) ">
                            <use fill="#F23661" fill-rule="evenodd" xlink:href="#path-7"></use>
                            <use fill="black" fill-opacity="1" filter="url(#filter-8)" xlink:href="#path-7"></use>
                        </g>
                    </g>
                    <g id="Group-2" transform="translate(491.820380, 483.618071) rotate(116.000000) translate(-491.820380, -483.618071) translate(444.820380, 395.118071)">
                        <g id="Combined-Shape" transform="translate(44.116109, 96.873193) rotate(195.000000) translate(-44.116109, -96.873193) ">
                            <use fill="#F23661" fill-rule="evenodd" xlink:href="#path-9"></use>
                            <use fill="black" fill-opacity="1" filter="url(#filter-10)" xlink:href="#path-9"></use>
                        </g>
                        <g id="," transform="translate(34.221982, 20.884973) scale(-1, 1) rotate(-22.000000) translate(-34.221982, -20.884973) ">
                            <use fill="#F23661" fill-rule="evenodd" xlink:href="#path-11"></use>
                            <use fill="black" fill-opacity="1" filter="url(#filter-12)" xlink:href="#path-11"></use>
                        </g>
                        <g id="," transform="translate(83.777091, 36.577402) scale(-1, 1) rotate(-60.000000) translate(-83.777091, -36.577402) ">
                            <use fill="#F23661" fill-rule="evenodd" xlink:href="#path-13"></use>
                            <use fill="black" fill-opacity="1" filter="url(#filter-14)" xlink:href="#path-13"></use>
                        </g>
                        <g id="," transform="translate(58.072261, 9.923664) scale(-1, 1) rotate(-32.000000) translate(-58.072261, -9.923664) ">
                            <use fill="#F23661" fill-rule="evenodd" xlink:href="#path-15"></use>
                            <use fill="black" fill-opacity="1" filter="url(#filter-16)" xlink:href="#path-15"></use>
                        </g>
                    </g>
                    <g id="Group-2" transform="translate(284.820380, 276.618071) rotate(123.000000) translate(-284.820380, -276.618071) translate(237.820380, 188.118071)">
                        <g id="Combined-Shape" transform="translate(44.116109, 96.873193) rotate(195.000000) translate(-44.116109, -96.873193) ">
                            <use fill="#F23661" fill-rule="evenodd" xlink:href="#path-17"></use>
                            <use fill="black" fill-opacity="1" filter="url(#filter-18)" xlink:href="#path-17"></use>
                        </g>
                        <g id="," transform="translate(34.221982, 20.884973) scale(-1, 1) rotate(-22.000000) translate(-34.221982, -20.884973) ">
                            <use fill="#F23661" fill-rule="evenodd" xlink:href="#path-19"></use>
                            <use fill="black" fill-opacity="1" filter="url(#filter-20)" xlink:href="#path-19"></use>
                        </g>
                        <g id="," transform="translate(83.777091, 36.577402) scale(-1, 1) rotate(-60.000000) translate(-83.777091, -36.577402) ">
                            <use fill="#F23661" fill-rule="evenodd" xlink:href="#path-21"></use>
                            <use fill="black" fill-opacity="1" filter="url(#filter-22)" xlink:href="#path-21"></use>
                        </g>
                        <g id="," transform="translate(58.072261, 9.923664) scale(-1, 1) rotate(-32.000000) translate(-58.072261, -9.923664) ">
                            <use fill="#F23661" fill-rule="evenodd" xlink:href="#path-23"></use>
                            <use fill="black" fill-opacity="1" filter="url(#filter-24)" xlink:href="#path-23"></use>
                        </g>
                    </g>
                    <g id="Group-2" transform="translate(144.820380, 308.618071) rotate(123.000000) translate(-144.820380, -308.618071) translate(97.820380, 220.118071)">
                        <g id="Combined-Shape" transform="translate(44.116109, 96.873193) rotate(195.000000) translate(-44.116109, -96.873193) ">
                            <use fill="#F23661" fill-rule="evenodd" xlink:href="#path-25"></use>
                            <use fill="black" fill-opacity="1" filter="url(#filter-26)" xlink:href="#path-25"></use>
                        </g>
                        <g id="," transform="translate(34.221982, 20.884973) scale(-1, 1) rotate(-22.000000) translate(-34.221982, -20.884973) ">
                            <use fill="#F23661" fill-rule="evenodd" xlink:href="#path-27"></use>
                            <use fill="black" fill-opacity="1" filter="url(#filter-28)" xlink:href="#path-27"></use>
                        </g>
                        <g id="," transform="translate(83.777091, 36.577402) scale(-1, 1) rotate(-60.000000) translate(-83.777091, -36.577402) ">
                            <use fill="#F23661" fill-rule="evenodd" xlink:href="#path-29"></use>
                            <use fill="black" fill-opacity="1" filter="url(#filter-30)" xlink:href="#path-29"></use>
                        </g>
                        <g id="," transform="translate(58.072261, 9.923664) scale(-1, 1) rotate(-32.000000) translate(-58.072261, -9.923664) ">
                            <use fill="#F23661" fill-rule="evenodd" xlink:href="#path-31"></use>
                            <use fill="black" fill-opacity="1" filter="url(#filter-32)" xlink:href="#path-31"></use>
                        </g>
                    </g>
                    <g id="Group-2" transform="translate(84.017977, 100.692257) rotate(152.000000) translate(-84.017977, -100.692257) translate(37.017977, 12.192257)">
                        <g id="Combined-Shape" transform="translate(44.116109, 96.873193) rotate(195.000000) translate(-44.116109, -96.873193) ">
                            <use fill="#F23661" fill-rule="evenodd" xlink:href="#path-33"></use>
                            <use fill="black" fill-opacity="1" filter="url(#filter-34)" xlink:href="#path-33"></use>
                        </g>
                        <g id="," transform="translate(34.221982, 20.884973) scale(-1, 1) rotate(-22.000000) translate(-34.221982, -20.884973) ">
                            <use fill="#F23661" fill-rule="evenodd" xlink:href="#path-35"></use>
                            <use fill="black" fill-opacity="1" filter="url(#filter-36)" xlink:href="#path-35"></use>
                        </g>
                        <g id="," transform="translate(83.777091, 36.577402) scale(-1, 1) rotate(-60.000000) translate(-83.777091, -36.577402) ">
                            <use fill="#F23661" fill-rule="evenodd" xlink:href="#path-37"></use>
                            <use fill="black" fill-opacity="1" filter="url(#filter-38)" xlink:href="#path-37"></use>
                        </g>
                        <g id="," transform="translate(58.072261, 9.923664) scale(-1, 1) rotate(-32.000000) translate(-58.072261, -9.923664) ">
                            <use fill="#F23661" fill-rule="evenodd" xlink:href="#path-39"></use>
                            <use fill="black" fill-opacity="1" filter="url(#filter-40)" xlink:href="#path-39"></use>
                        </g>
                    </g>
                    <g id="Group-2" transform="translate(869.897124, 760.023952) rotate(86.000000) translate(-869.897124, -760.023952) translate(822.897124, 671.523952)">
                        <g id="Combined-Shape" transform="translate(44.116109, 96.873193) rotate(195.000000) translate(-44.116109, -96.873193) ">
                            <use fill="#F23661" fill-rule="evenodd" xlink:href="#path-41"></use>
                            <use fill="black" fill-opacity="1" filter="url(#filter-42)" xlink:href="#path-41"></use>
                        </g>
                        <g id="," transform="translate(34.221982, 20.884973) scale(-1, 1) rotate(-22.000000) translate(-34.221982, -20.884973) ">
                            <use fill="#F23661" fill-rule="evenodd" xlink:href="#path-43"></use>
                            <use fill="black" fill-opacity="1" filter="url(#filter-44)" xlink:href="#path-43"></use>
                        </g>
                        <g id="," transform="translate(83.777091, 36.577402) scale(-1, 1) rotate(-60.000000) translate(-83.777091, -36.577402) ">
                            <use fill="#F23661" fill-rule="evenodd" xlink:href="#path-45"></use>
                            <use fill="black" fill-opacity="1" filter="url(#filter-46)" xlink:href="#path-45"></use>
                        </g>
                        <g id="," transform="translate(58.072261, 9.923664) scale(-1, 1) rotate(-32.000000) translate(-58.072261, -9.923664) ">
                            <use fill="#F23661" fill-rule="evenodd" xlink:href="#path-47"></use>
                            <use fill="black" fill-opacity="1" filter="url(#filter-48)" xlink:href="#path-47"></use>
                        </g>
                    </g>
                    <g id="Group-2" transform="translate(759.179860, 588.859419) rotate(90.000000) translate(-759.179860, -588.859419) translate(712.179860, 500.359419)">
                        <g id="Combined-Shape" transform="translate(44.116109, 96.873193) rotate(195.000000) translate(-44.116109, -96.873193) ">
                            <use fill="#F23661" fill-rule="evenodd" xlink:href="#path-49"></use>
                            <use fill="black" fill-opacity="1" filter="url(#filter-50)" xlink:href="#path-49"></use>
                        </g>
                        <g id="," transform="translate(34.221982, 20.884973) scale(-1, 1) rotate(-22.000000) translate(-34.221982, -20.884973) ">
                            <use fill="#F23661" fill-rule="evenodd" xlink:href="#path-51"></use>
                            <use fill="black" fill-opacity="1" filter="url(#filter-52)" xlink:href="#path-51"></use>
                        </g>
                        <g id="," transform="translate(83.777091, 36.577402) scale(-1, 1) rotate(-60.000000) translate(-83.777091, -36.577402) ">
                            <use fill="#F23661" fill-rule="evenodd" xlink:href="#path-53"></use>
                            <use fill="black" fill-opacity="1" filter="url(#filter-54)" xlink:href="#path-53"></use>
                        </g>
                        <g id="," transform="translate(58.072261, 9.923664) scale(-1, 1) rotate(-32.000000) translate(-58.072261, -9.923664) ">
                            <use fill="#F23661" fill-rule="evenodd" xlink:href="#path-55"></use>
                            <use fill="black" fill-opacity="1" filter="url(#filter-56)" xlink:href="#path-55"></use>
                        </g>
                    </g>
                    <g id="Group-2" transform="translate(568.804450, 654.703561) rotate(87.000000) translate(-568.804450, -654.703561) translate(521.804450, 566.203561)">
                        <g id="Combined-Shape" transform="translate(44.116109, 96.873193) rotate(195.000000) translate(-44.116109, -96.873193) ">
                            <use fill="#F23661" fill-rule="evenodd" xlink:href="#path-57"></use>
                            <use fill="black" fill-opacity="1" filter="url(#filter-58)" xlink:href="#path-57"></use>
                        </g>
                        <g id="," transform="translate(34.221982, 20.884973) scale(-1, 1) rotate(-22.000000) translate(-34.221982, -20.884973) ">
                            <use fill="#F23661" fill-rule="evenodd" xlink:href="#path-59"></use>
                            <use fill="black" fill-opacity="1" filter="url(#filter-60)" xlink:href="#path-59"></use>
                        </g>
                        <g id="," transform="translate(83.777091, 36.577402) scale(-1, 1) rotate(-60.000000) translate(-83.777091, -36.577402) ">
                            <use fill="#F23661" fill-rule="evenodd" xlink:href="#path-61"></use>
                            <use fill="black" fill-opacity="1" filter="url(#filter-62)" xlink:href="#path-61"></use>
                        </g>
                        <g id="," transform="translate(58.072261, 9.923664) scale(-1, 1) rotate(-32.000000) translate(-58.072261, -9.923664) ">
                            <use fill="#F23661" fill-rule="evenodd" xlink:href="#path-63"></use>
                            <use fill="black" fill-opacity="1" filter="url(#filter-64)" xlink:href="#path-63"></use>
                        </g>
                    </g>
                </g>
                <g id="Group-2" transform="translate(1004.842029, 657.023074) rotate(89.000000) translate(-1004.842029, -657.023074) translate(957.842029, 568.523074)">
                    <g id="Combined-Shape" transform="translate(44.116109, 96.873193) rotate(195.000000) translate(-44.116109, -96.873193) ">
                        <use fill="#F23661" fill-rule="evenodd" xlink:href="#path-65"></use>
                        <use fill="black" fill-opacity="1" filter="url(#filter-66)" xlink:href="#path-65"></use>
                    </g>
                    <g id="," transform="translate(34.221982, 20.884973) scale(-1, 1) rotate(-22.000000) translate(-34.221982, -20.884973) ">
                        <use fill="#F23661" fill-rule="evenodd" xlink:href="#path-67"></use>
                        <use fill="black" fill-opacity="1" filter="url(#filter-68)" xlink:href="#path-67"></use>
                    </g>
                    <g id="," transform="translate(83.777091, 36.577402) scale(-1, 1) rotate(-60.000000) translate(-83.777091, -36.577402) ">
                        <use fill="#F23661" fill-rule="evenodd" xlink:href="#path-69"></use>
                        <use fill="black" fill-opacity="1" filter="url(#filter-70)" xlink:href="#path-69"></use>
                    </g>
                    <g id="," transform="translate(58.072261, 9.923664) scale(-1, 1) rotate(-32.000000) translate(-58.072261, -9.923664) ">
                        <use fill="#F23661" fill-rule="evenodd" xlink:href="#path-71"></use>
                        <use fill="black" fill-opacity="1" filter="url(#filter-72)" xlink:href="#path-71"></use>
                    </g>
                </g>
                <g id="Group-2" transform="translate(1148.692300, 863.047660) rotate(108.000000) translate(-1148.692300, -863.047660) translate(1101.692300, 774.547660)">
                    <g id="Combined-Shape" transform="translate(44.116109, 96.873193) rotate(195.000000) translate(-44.116109, -96.873193) ">
                        <use fill="#F23661" fill-rule="evenodd" xlink:href="#path-73"></use>
                        <use fill="black" fill-opacity="1" filter="url(#filter-74)" xlink:href="#path-73"></use>
                    </g>
                    <g id="," transform="translate(34.221982, 20.884973) scale(-1, 1) rotate(-22.000000) translate(-34.221982, -20.884973) ">
                        <use fill="#F23661" fill-rule="evenodd" xlink:href="#path-75"></use>
                        <use fill="black" fill-opacity="1" filter="url(#filter-76)" xlink:href="#path-75"></use>
                    </g>
                    <g id="," transform="translate(83.777091, 36.577402) scale(-1, 1) rotate(-60.000000) translate(-83.777091, -36.577402) ">
                        <use fill="#F23661" fill-rule="evenodd" xlink:href="#path-77"></use>
                        <use fill="black" fill-opacity="1" filter="url(#filter-78)" xlink:href="#path-77"></use>
                    </g>
                    <g id="," transform="translate(58.072261, 9.923664) scale(-1, 1) rotate(-32.000000) translate(-58.072261, -9.923664) ">
                        <use fill="#F23661" fill-rule="evenodd" xlink:href="#path-79"></use>
                        <use fill="black" fill-opacity="1" filter="url(#filter-80)" xlink:href="#path-79"></use>
                    </g>
                </g>
                <g id="Group-2" transform="translate(1259.568194, 763.435106) rotate(97.000000) translate(-1259.568194, -763.435106) translate(1212.568194, 674.935106)">
                    <g id="Combined-Shape" transform="translate(44.116109, 96.873193) rotate(195.000000) translate(-44.116109, -96.873193) ">
                        <use fill="#F23661" fill-rule="evenodd" xlink:href="#path-81"></use>
                        <use fill="black" fill-opacity="1" filter="url(#filter-82)" xlink:href="#path-81"></use>
                    </g>
                    <g id="," transform="translate(34.221982, 20.884973) scale(-1, 1) rotate(-22.000000) translate(-34.221982, -20.884973) ">
                        <use fill="#F23661" fill-rule="evenodd" xlink:href="#path-83"></use>
                        <use fill="black" fill-opacity="1" filter="url(#filter-84)" xlink:href="#path-83"></use>
                    </g>
                    <g id="," transform="translate(83.777091, 36.577402) scale(-1, 1) rotate(-60.000000) translate(-83.777091, -36.577402) ">
                        <use fill="#F23661" fill-rule="evenodd" xlink:href="#path-85"></use>
                        <use fill="black" fill-opacity="1" filter="url(#filter-86)" xlink:href="#path-85"></use>
                    </g>
                    <g id="," transform="translate(58.072261, 9.923664) scale(-1, 1) rotate(-32.000000) translate(-58.072261, -9.923664) ">
                        <use fill="#F23661" fill-rule="evenodd" xlink:href="#path-87"></use>
                        <use fill="black" fill-opacity="1" filter="url(#filter-88)" xlink:href="#path-87"></use>
                    </g>
                </g>
            </g>
        </g>
    </g>
</svg>